<svg width="85" height="84" viewBox="0 0 85 84" fill="none" xmlns="http://www.w3.org/2000/svg">
<path d="M31.6792 58.7747L34.3458 58.3163C34.8625 58.2275 35.4778 58.0913 36.1917 57.908C45 55.6997 50.8333 49.1163 50.8333 41.9997C50.8333 33.1038 41.7667 25.333 30 25.333C18.2333 25.333 9.16668 33.1038 9.16668 41.9997C9.16668 47.0747 12.0917 51.908 17.2125 55.1247L17.3625 55.208L21.6667 57.583V69.0955L31.6792 58.7747ZM35.7708 66.5247L20.4917 82.2747C19.9142 82.8703 19.1722 83.28 18.3605 83.4514C17.5488 83.6227 16.7044 83.5478 15.9355 83.2363C15.1666 82.9248 14.5082 82.3909 14.0446 81.7029C13.5811 81.015 13.3334 80.2043 13.3333 79.3747V62.4997L12.7833 62.183C5.53751 57.633 0.833344 50.2872 0.833344 41.9997C0.833344 28.1913 13.8917 16.9997 30 16.9997C46.1083 16.9997 59.1667 28.1913 59.1667 41.9997C59.1667 53.358 50.3292 62.9497 38.225 65.9913C37.4139 66.1999 36.5953 66.3778 35.7708 66.5247ZM29.7333 12.833C34.775 5.36217 44.2083 0.333008 55 0.333008C71.1083 0.333008 84.1667 11.5247 84.1667 25.333C84.1667 33.6205 79.4583 40.9663 72.2167 45.5163L71.6667 45.833V62.708C71.6666 63.5376 71.419 64.3483 70.9554 65.0362C70.4918 65.7242 69.8334 66.2581 69.0645 66.5696C68.2956 66.8811 67.4513 66.956 66.6396 66.7847C65.8279 66.6134 65.0858 66.2037 64.5083 65.608L57.2792 58.158L61.625 50.6663L63.3333 52.4288V40.9163L67.6375 38.5413L67.7875 38.458C72.9125 35.2413 75.8333 30.408 75.8333 25.333C75.8333 16.4372 66.7667 8.66634 55 8.66634C49.6667 8.66634 44.8917 10.2622 41.2625 12.833H29.7333Z" fill="#E6E6E6"/>
</svg>
