<svg width="27" height="15" viewBox="0 0 27 15" fill="none" xmlns="http://www.w3.org/2000/svg">
<path d="M6.20833 0.208008H3.29167C2.51812 0.208008 1.77625 0.515298 1.22927 1.06228C0.682291 1.60926 0.375 2.35113 0.375 3.12467V14.7913H3.29167V8.95801H6.20833V14.7913H9.125V3.12467C9.125 2.35113 8.81771 1.60926 8.27073 1.06228C7.72375 0.515298 6.98188 0.208008 6.20833 0.208008ZM6.20833 6.04134H3.29167V3.12467H6.20833M16.4167 0.208008H10.5833V14.7913H13.5V8.95801H16.4167C17.1902 8.95801 17.9321 8.65072 18.4791 8.10373C19.026 7.55675 19.3333 6.81489 19.3333 6.04134V3.12467C19.3333 2.35113 19.026 1.60926 18.4791 1.06228C17.9321 0.515298 17.1902 0.208008 16.4167 0.208008ZM16.4167 6.04134H13.5V3.12467H16.4167M25.1667 3.12467V11.8747H26.625V14.7913H20.7917V11.8747H22.25V3.12467H20.7917V0.208008H26.625V3.12467H25.1667Z" fill="#322662" fill-opacity="0.6"/>
</svg>
