<svg width="75" height="42" viewBox="0 0 75 42" fill="none" xmlns="http://www.w3.org/2000/svg">
<path d="M16.6667 0.166992H8.33333C6.1232 0.166992 4.00358 1.04497 2.44078 2.60777C0.877973 4.17057 0 6.29019 0 8.50033V41.8337H8.33333V25.167H16.6667V41.8337H25V8.50033C25 6.29019 24.122 4.17057 22.5592 2.60777C20.9964 1.04497 18.8768 0.166992 16.6667 0.166992ZM16.6667 16.8337H8.33333V8.50033H16.6667M45.8333 0.166992H29.1667V41.8337H37.5V25.167H45.8333C48.0435 25.167 50.1631 24.289 51.7259 22.7262C53.2887 21.1634 54.1667 19.0438 54.1667 16.8337V8.50033C54.1667 6.29019 53.2887 4.17057 51.7259 2.60777C50.1631 1.04497 48.0435 0.166992 45.8333 0.166992ZM45.8333 16.8337H37.5V8.50033H45.8333M70.8333 8.50033V33.5003H75V41.8337H58.3333V33.5003H62.5V8.50033H58.3333V0.166992H75V8.50033H70.8333Z" fill="#E6E6E6"/>
</svg>
