<svg width="148" height="148" viewBox="0 0 148 148" fill="none" xmlns="http://www.w3.org/2000/svg">
<path fill-rule="evenodd" clip-rule="evenodd" d="M127.925 20.0833L22.9917 58.0249L57.95 78.2583L88.775 47.4249C90.3387 45.8624 92.4591 44.985 94.6696 44.9858C96.8802 44.9865 99 45.8654 100.563 47.4291C102.125 48.9928 103.003 51.1131 103.002 53.3237C103.001 55.5343 102.122 57.654 100.558 59.2166L69.725 90.0499L89.975 125L127.925 20.0833ZM130.617 1.38327C140.575 -2.22506 150.225 7.42494 146.617 17.3833L102.6 139.092C98.9834 149.075 85.35 150.292 80.025 141.1L53.2167 94.7833L6.90003 67.9749C-2.29164 62.6499 -1.07497 49.0166 8.90836 45.3999L130.617 1.38327Z" fill="#E6E6E6"/>
</svg>
