<svg width="100" height="100" viewBox="0 0 100 100" fill="none" xmlns="http://www.w3.org/2000/svg">
<g clip-path="url(#clip0_178_725)">
<path d="M87.5 41.667C73.9562 42.4525 60.9305 47.1476 50 55.1837C39.0696 47.1476 26.0439 42.4525 12.5 41.667V54.0003C10.2862 54.0047 8.16472 54.8881 6.60204 56.4563C5.03936 58.0244 4.16338 60.149 4.1667 62.3628V66.5462C4.1667 71.167 12.5 75.7462 12.5 75.7462V84.1087C23.5666 84.8208 34.2393 88.4901 43.4042 94.7337C45.719 96.3386 47.9226 98.0981 50 100C52.0774 98.0981 54.2811 96.3386 56.5959 94.7337C65.7608 88.4901 76.4334 84.8208 87.5 84.1087V74.9087C89.7139 74.9042 91.8353 74.0208 93.398 72.4527C94.9607 70.8845 95.8367 68.76 95.8334 66.5462V62.3628C95.8367 60.149 94.9607 58.0244 93.398 56.4563C91.8353 54.8881 89.7139 54.0047 87.5 54.0003V41.667ZM50 89.2587C41.3584 82.9253 31.3811 78.6551 20.8334 76.7753V51.1503C28.917 52.7788 36.592 56.012 43.4042 60.6587C45.719 62.2636 47.9226 64.0231 50 65.9253C52.0774 64.0231 54.2811 62.2636 56.5959 60.6587C63.4077 56.0105 71.0827 52.7759 79.1667 51.1462V76.7753C68.6189 78.6551 58.6417 82.9253 50 89.2587ZM45.8334 33.3337H54.1667V37.5003H45.8334V33.3337ZM45.8334 16.667H54.1667V20.8337H45.8334V16.667Z" fill="#E6E6E6"/>
<path d="M45.8333 41.6671H54.1667V45.8338H45.8333V41.6671ZM37.5 20.8338C38.6051 20.8338 39.6649 20.3948 40.4463 19.6134C41.2277 18.832 41.6667 17.7722 41.6667 16.6671C41.6705 16.1243 41.5665 15.5862 41.3606 15.0839C41.1546 14.5817 40.8509 14.1255 40.4671 13.7416C40.0833 13.3578 39.627 13.0541 39.1248 12.8482C38.6226 12.6423 38.0844 12.5382 37.5417 12.5421C36.9972 12.5394 36.4576 12.6439 35.9535 12.8497C35.4495 13.0555 34.9909 13.3586 34.604 13.7417C33.8226 14.5152 33.3805 15.5676 33.375 16.6671C33.3695 17.7666 33.801 18.8233 34.5745 19.6047C35.3481 20.3861 36.4004 20.8282 37.5 20.8338Z" fill="#E6E6E6"/>
<path d="M62.5 20.8333C64.8012 20.8333 66.6666 18.9679 66.6666 16.6667C66.6666 14.3655 64.8012 12.5 62.5 12.5C60.1988 12.5 58.3333 14.3655 58.3333 16.6667C58.3333 18.9679 60.1988 20.8333 62.5 20.8333Z" fill="#E6E6E6"/>
<path d="M66.6666 33.3333H33.3333C30.0191 33.33 26.8416 32.012 24.4981 29.6685C22.1546 27.325 20.8366 24.1475 20.8333 20.8333V12.5C20.8366 9.18581 22.1546 6.00831 24.4981 3.66482C26.8416 1.32133 30.0191 0.00330923 33.3333 0L66.6666 0C69.9808 0.00330923 73.1583 1.32133 75.5018 3.66482C77.8453 6.00831 79.1633 9.18581 79.1666 12.5V20.8333C79.1633 24.1475 77.8453 27.325 75.5018 29.6685C73.1583 32.012 69.9808 33.33 66.6666 33.3333ZM33.3333 8.33333C32.2282 8.33333 31.1684 8.77232 30.387 9.55372C29.6056 10.3351 29.1666 11.3949 29.1666 12.5V20.8333C29.1666 21.9384 29.6056 22.9982 30.387 23.7796C31.1684 24.561 32.2282 25 33.3333 25H66.6666C67.7717 25 68.8315 24.561 69.6129 23.7796C70.3943 22.9982 70.8333 21.9384 70.8333 20.8333V12.5C70.8333 11.3949 70.3943 10.3351 69.6129 9.55372C68.8315 8.77232 67.7717 8.33333 66.6666 8.33333H33.3333Z" fill="#E6E6E6"/>
</g>
<defs>
<clipPath id="clip0_178_725">
<rect width="100" height="100" fill="white"/>
</clipPath>
</defs>
</svg>
