<svg width="35" height="35" viewBox="0 0 35 35" fill="none" xmlns="http://www.w3.org/2000/svg">
<path d="M30.6249 14.583C25.8846 14.8579 21.3256 16.5012 17.4999 19.3138C13.6743 16.5012 9.11527 14.8579 4.37492 14.583V18.8997C3.60008 18.9012 2.85756 19.2104 2.31063 19.7593C1.76369 20.3081 1.45709 21.0517 1.45826 21.8265V23.2907C1.45826 24.908 4.37492 26.5107 4.37492 26.5107V29.4376C8.24823 29.6869 11.9837 30.9711 15.1914 33.1563C16.0016 33.7181 16.7728 34.3339 17.4999 34.9997C18.227 34.3339 18.9983 33.7181 19.8085 33.1563C23.0162 30.9711 26.7516 29.6869 30.6249 29.4376V26.2176C31.3998 26.216 32.1423 25.9069 32.6892 25.358C33.2362 24.8091 33.5427 24.0656 33.5416 23.2907V21.8265C33.5427 21.0517 33.2362 20.3081 32.6892 19.7593C32.1423 19.2104 31.3998 18.9012 30.6249 18.8997V14.583ZM17.4999 31.2401C14.4753 29.0234 10.9833 27.5288 7.29159 26.8709V17.9022C10.1209 18.4721 12.8071 19.6038 15.1914 21.2301C16.0016 21.7918 16.7728 22.4077 17.4999 23.0734C18.227 22.4077 18.9983 21.7918 19.8085 21.2301C22.1926 19.6032 24.8789 18.4711 27.7083 17.9007V26.8709C24.0165 27.5288 20.5245 29.0234 17.4999 31.2401ZM16.0416 11.6663H18.9583V13.1247H16.0416V11.6663ZM16.0416 5.83301H18.9583V7.29134H16.0416V5.83301Z" fill="#322662" fill-opacity="0.6"/>
<path d="M16.0417 14.5833H18.9584V16.0416H16.0417V14.5833ZM13.125 7.29165C13.5118 7.29165 13.8827 7.138 14.1562 6.86451C14.4297 6.59102 14.5834 6.22009 14.5834 5.83331C14.5847 5.64334 14.5483 5.45499 14.4762 5.27921C14.4042 5.10343 14.2979 4.94374 14.1635 4.8094C14.0292 4.67507 13.8695 4.56877 13.6937 4.4967C13.518 4.42462 13.3296 4.38821 13.1396 4.38956C12.9491 4.38861 12.7602 4.42519 12.5838 4.49723C12.4074 4.56926 12.2469 4.67534 12.1114 4.80941C11.838 5.08016 11.6832 5.44847 11.6813 5.83331C11.6794 6.21815 11.8304 6.588 12.1011 6.86149C12.3719 7.13498 12.7402 7.28971 13.125 7.29165Z" fill="#322662" fill-opacity="0.6"/>
<path d="M21.875 7.29167C22.6804 7.29167 23.3333 6.63875 23.3333 5.83333C23.3333 5.02792 22.6804 4.375 21.875 4.375C21.0695 4.375 20.4166 5.02792 20.4166 5.83333C20.4166 6.63875 21.0695 7.29167 21.875 7.29167Z" fill="#322662" fill-opacity="0.6"/>
<path d="M23.3333 11.6667H11.6666C10.5067 11.6655 9.39453 11.2042 8.57431 10.384C7.75409 9.56376 7.29278 8.45163 7.29163 7.29167V4.375C7.29278 3.21503 7.75409 2.10291 8.57431 1.28269C9.39453 0.462466 10.5067 0.00115823 11.6666 0L23.3333 0C24.4933 0.00115823 25.6054 0.462466 26.4256 1.28269C27.2458 2.10291 27.7071 3.21503 27.7083 4.375V7.29167C27.7071 8.45163 27.2458 9.56376 26.4256 10.384C25.6054 11.2042 24.4933 11.6655 23.3333 11.6667ZM11.6666 2.91667C11.2799 2.91667 10.9089 3.07031 10.6354 3.3438C10.3619 3.61729 10.2083 3.98823 10.2083 4.375V7.29167C10.2083 7.67844 10.3619 8.04937 10.6354 8.32286C10.9089 8.59635 11.2799 8.75 11.6666 8.75H23.3333C23.7201 8.75 24.091 8.59635 24.3645 8.32286C24.638 8.04937 24.7916 7.67844 24.7916 7.29167V4.375C24.7916 3.98823 24.638 3.61729 24.3645 3.3438C24.091 3.07031 23.7201 2.91667 23.3333 2.91667H11.6666Z" fill="#322662" fill-opacity="0.6"/>
</svg>
