<svg width="50" height="50" viewBox="0 0 50 50" fill="none" xmlns="http://www.w3.org/2000/svg">
<g clip-path="url(#clip0_166_1520)">
<path d="M48.5781 20.4938C48.8699 22.1717 49.0153 23.8719 49.0125 25.575C49.0125 33.1813 46.2937 39.6125 41.5625 43.9657H41.5687C37.4312 47.7875 31.7437 50 25 50C18.3696 50 12.0107 47.3661 7.32233 42.6777C2.63392 37.9893 0 31.6304 0 25C0 18.3696 2.63392 12.0108 7.32233 7.32236C12.0107 2.63395 18.3696 2.89143e-05 25 2.89143e-05C31.2054 -0.0690771 37.1976 2.26196 41.725 6.50628L34.5875 13.6438C32.0069 11.1852 28.5639 9.83851 25 9.89378C18.4781 9.89378 12.9375 14.2938 10.9625 20.2188C9.91717 23.3238 9.91717 26.6856 10.9625 29.7907H10.9719C12.9562 35.7063 18.4875 40.1063 25.0094 40.1063C28.3781 40.1063 31.2719 39.2438 33.5156 37.7188H33.5062C34.8093 36.8559 35.924 35.7379 36.7828 34.4322C37.6417 33.1264 38.2269 31.6602 38.5031 30.1219H25V20.4969L48.5781 20.4938Z" fill="#322662"/>
</g>
<defs>
<clipPath id="clip0_166_1520">
<rect width="50" height="50" fill="white"/>
</clipPath>
</defs>
</svg>
