<svg width="81" height="80" viewBox="0 0 81 80" fill="none" xmlns="http://www.w3.org/2000/svg">
<path d="M33.1334 32.6288C36.9131 28.8494 42.0008 26.6673 47.3443 26.5339C52.6878 26.4005 57.8781 28.326 61.8417 31.9122L62.5958 32.6288L74.3792 44.4163C78.2168 48.2608 80.4011 53.4521 80.4666 58.8838C80.532 64.3155 78.4733 69.5579 74.7294 73.4936C70.9854 77.4294 65.8523 79.7472 60.4241 79.953C54.996 80.1589 49.7021 78.2364 45.6708 74.5955L44.9208 73.8788L36.0792 65.0372C35.3319 64.2874 34.898 63.2812 34.8657 62.2231C34.8334 61.1649 35.2051 60.1342 35.9052 59.3402C36.6054 58.5462 37.5815 58.0484 38.6353 57.948C39.6892 57.8476 40.7417 58.1521 41.5792 58.7997L41.9708 59.1455L50.8125 67.9872C53.1045 70.2925 56.2044 71.6143 59.4547 71.6721C62.705 71.7299 65.8499 70.5192 68.2225 68.2969C70.595 66.0745 72.0084 63.0153 72.1629 59.7681C72.3174 56.521 71.2008 53.3414 69.05 50.9038L68.4875 50.308L56.7042 38.5247C55.5434 37.3637 54.1653 36.4428 52.6486 35.8145C51.1319 35.1862 49.5063 34.8628 47.8646 34.8628C46.2229 34.8628 44.5973 35.1862 43.0806 35.8145C41.5639 36.4428 40.1858 37.3637 39.025 38.5247C38.2432 39.306 37.183 39.7447 36.0777 39.7443C34.9724 39.7439 33.9125 39.3044 33.1313 38.5226C32.35 37.7408 31.9113 36.6806 31.9117 35.5753C31.9121 34.47 32.3515 33.4101 33.1334 32.6288ZM6.61669 6.11217C10.3964 2.33273 15.4842 0.15063 20.8276 0.0172375C26.1711 -0.116155 31.3614 1.80936 35.325 5.39551L36.0792 6.11217L44.9167 14.958C45.664 15.7078 46.0978 16.714 46.1301 17.7721C46.1624 18.8302 45.7908 19.861 45.0906 20.655C44.3905 21.449 43.4144 21.9468 42.3605 22.0472C41.3067 22.1476 40.2541 21.8431 39.4167 21.1955L39.025 20.8497L30.1875 12.0122C27.8916 9.73117 24.8004 8.42958 21.5643 8.38123C18.3283 8.33289 15.1996 9.54155 12.8365 11.753C10.4735 13.9644 9.0602 17.0061 8.89408 20.2382C8.72797 23.4704 9.82194 26.641 11.9459 29.083L12.5084 29.683L24.2959 41.4705C26.6399 43.8139 29.8188 45.1303 33.1334 45.1303C36.4479 45.1303 39.6268 43.8139 41.9708 41.4705C42.3577 41.0834 42.817 40.7762 43.3226 40.5666C43.8281 40.357 44.37 40.249 44.9173 40.2488C45.4646 40.2486 46.0065 40.3562 46.5122 40.5655C47.0179 40.7748 47.4775 41.0816 47.8646 41.4684C48.2517 41.8553 48.5589 42.3146 48.7685 42.8201C48.9781 43.3257 49.0861 43.8676 49.0863 44.4149C49.0865 44.9622 48.9789 45.5041 48.7696 46.0098C48.5603 46.5155 48.2535 46.975 47.8667 47.3622C44.087 51.1416 38.9992 53.3237 33.6557 53.4571C28.3123 53.5905 23.1219 51.665 19.1584 48.0788L18.4 47.3622L6.61669 35.5747C2.71104 31.6678 0.516968 26.3698 0.516968 20.8455C0.516968 15.3213 2.71104 10.019 6.61669 6.11217Z" fill="#E6E6E6"/>
</svg>
