<svg width="29" height="29" viewBox="0 0 29 29" fill="none" xmlns="http://www.w3.org/2000/svg">
<path d="M11.9217 11.9202C13.2446 10.5974 15.0253 9.8337 16.8956 9.78701C18.7658 9.74033 20.5824 10.4143 21.9696 11.6694L22.2336 11.9202L26.3578 16.0459C27.7009 17.3914 28.4654 19.2084 28.4883 21.1095C28.5112 23.0106 27.7907 24.8454 26.4803 26.2229C25.1699 27.6004 23.3734 28.4117 21.4735 28.4837C19.5736 28.5557 17.7208 27.8829 16.3098 26.6086L16.0473 26.3577L12.9528 23.2632C12.6912 23.0007 12.5394 22.6486 12.528 22.2782C12.5167 21.9079 12.6468 21.5471 12.8919 21.2692C13.1369 20.9913 13.4786 20.8171 13.8474 20.782C14.2163 20.7468 14.5846 20.8534 14.8778 21.08L15.0148 21.2011L18.1094 24.2957C18.9116 25.1025 19.9966 25.5651 21.1342 25.5854C22.2718 25.6056 23.3725 25.1819 24.2029 24.404C25.0333 23.6262 25.528 22.5555 25.582 21.419C25.6361 20.2825 25.2453 19.1696 24.4925 18.3165L24.2957 18.1079L20.1715 13.9838C19.7652 13.5774 19.2829 13.2551 18.7521 13.0352C18.2212 12.8153 17.6522 12.7021 17.0777 12.7021C16.5031 12.7021 15.9341 12.8153 15.4032 13.0352C14.8724 13.2551 14.3901 13.5774 13.9838 13.9838C13.7102 14.2572 13.3391 14.4108 12.9522 14.4106C12.5654 14.4105 12.1944 14.2567 11.921 13.9831C11.6475 13.7094 11.494 13.3383 11.4941 12.9515C11.4943 12.5646 11.6481 12.1937 11.9217 11.9202ZM2.64088 2.63941C3.96378 1.3166 5.7445 0.552867 7.61472 0.50618C9.48493 0.459492 11.3015 1.13342 12.6888 2.38857L12.9528 2.63941L16.0459 5.73545C16.3074 5.99789 16.4593 6.35004 16.4706 6.72038C16.4819 7.09073 16.3518 7.45149 16.1068 7.7294C15.8617 8.00731 15.5201 8.18152 15.1512 8.21666C14.7824 8.25179 14.414 8.14522 14.1209 7.91857L13.9838 7.79753L10.8907 4.70441C10.0871 3.90606 9.00518 3.4505 7.87256 3.43358C6.73994 3.41666 5.6449 3.83969 4.81783 4.61368C3.99075 5.38767 3.49611 6.45228 3.43797 7.58353C3.37983 8.71479 3.76272 9.8245 4.50609 10.6792L4.70297 10.8892L8.82859 15.0148C9.64902 15.835 10.7616 16.2958 11.9217 16.2958C13.0818 16.2958 14.1944 15.835 15.0148 15.0148C15.1502 14.8793 15.311 14.7718 15.4879 14.6985C15.6649 14.6251 15.8545 14.5873 16.0461 14.5872C16.2376 14.5872 16.4273 14.6248 16.6043 14.6981C16.7813 14.7713 16.9422 14.8787 17.0777 15.0141C17.2131 15.1495 17.3206 15.3103 17.394 15.4872C17.4674 15.6641 17.5052 15.8538 17.5052 16.0454C17.5053 16.2369 17.4676 16.4266 17.3944 16.6036C17.3212 16.7806 17.2138 16.9414 17.0784 17.0769C15.7555 18.3997 13.9748 19.1634 12.1045 19.2101C10.2343 19.2568 8.41772 18.5829 7.03047 17.3277L6.76505 17.0769L2.64088 12.9513C1.27391 11.5839 0.505981 9.72956 0.505981 7.79607C0.505981 5.86259 1.27391 4.0068 2.64088 2.63941Z" fill="#322662" fill-opacity="0.6"/>
</svg>
