<svg width="67" height="63" viewBox="0 0 67 63" fill="none" xmlns="http://www.w3.org/2000/svg">
<path d="M56.8332 0C59.4853 0 62.0289 1.05357 63.9042 2.92893C65.7796 4.8043 66.8332 7.34784 66.8332 10V43.3333C66.8332 45.9855 65.7796 48.529 63.9042 50.4044C62.0289 52.2798 59.4853 53.3333 56.8332 53.3333H17.9432L6.83317 61.6667C4.0865 63.7267 0.166504 61.7667 0.166504 58.3333V10C0.166504 7.34784 1.22007 4.8043 3.09544 2.92893C4.9708 1.05357 7.51434 0 10.1665 0H56.8332ZM56.8332 6.66667H10.1665C9.28245 6.66667 8.4346 7.01786 7.80948 7.64298C7.18436 8.2681 6.83317 9.11595 6.83317 10V53.3333L13.9432 48C15.0971 47.1345 16.5007 46.6667 17.9432 46.6667H56.8332C57.7172 46.6667 58.5651 46.3155 59.1902 45.6904C59.8153 45.0652 60.1665 44.2174 60.1665 43.3333V10C60.1665 9.11595 59.8153 8.2681 59.1902 7.64298C58.5651 7.01786 57.7172 6.66667 56.8332 6.66667ZM30.1665 30C31.0161 30.0009 31.8333 30.3263 32.4511 30.9095C33.0689 31.4927 33.4406 32.2898 33.4904 33.138C33.5402 33.9861 33.2643 34.8213 32.719 35.4728C32.1737 36.1243 31.4002 36.543 30.5565 36.6433L30.1665 36.6667H20.1665C19.3169 36.6657 18.4997 36.3404 17.8819 35.7572C17.2642 35.1739 16.8924 34.3768 16.8426 33.5287C16.7928 32.6805 17.0688 31.8454 17.6141 31.1939C18.1594 30.5424 18.9328 30.1237 19.7765 30.0233L20.1665 30H30.1665ZM46.8332 16.6667C47.7172 16.6667 48.5651 17.0179 49.1902 17.643C49.8153 18.2681 50.1665 19.1159 50.1665 20C50.1665 20.8841 49.8153 21.7319 49.1902 22.357C48.5651 22.9821 47.7172 23.3333 46.8332 23.3333H20.1665C19.2824 23.3333 18.4346 22.9821 17.8095 22.357C17.1844 21.7319 16.8332 20.8841 16.8332 20C16.8332 19.1159 17.1844 18.2681 17.8095 17.643C18.4346 17.0179 19.2824 16.6667 20.1665 16.6667H46.8332Z" fill="white"/>
</svg>
