<svg width="20" height="18" viewBox="0 0 20 18" fill="none" xmlns="http://www.w3.org/2000/svg">
<path fill-rule="evenodd" clip-rule="evenodd" d="M16.7098 14.5653C17.5067 13.7683 17.9544 12.6874 17.9544 11.5603C17.9544 10.4332 17.5067 9.35233 16.7098 8.55532L10.1698 2.01532C9.98212 1.82781 9.87665 1.57344 9.87656 1.30817C9.87646 1.0429 9.98175 0.788461 10.1693 0.60082C10.3568 0.413179 10.6111 0.307711 10.8764 0.307617C11.1417 0.307523 11.3961 0.412812 11.5838 0.60032L18.1238 7.14032C19.296 8.31231 19.9547 9.90198 19.9549 11.5596C19.9551 13.2172 19.2968 14.8071 18.1248 15.9793C16.9528 17.1516 15.3631 17.8103 13.7055 17.8104C12.0478 17.8106 10.458 17.1523 9.28576 15.9803L1.33176 8.02532C0.487709 7.18114 0.0135781 6.03623 0.0136719 4.84247C0.0137657 3.6487 0.488076 2.50387 1.33226 1.65982C2.17644 0.815768 3.32135 0.341638 4.51511 0.341732C5.70888 0.341825 6.85371 0.816136 7.69776 1.66032L15.6508 9.61332C16.1543 10.132 16.4336 10.828 16.4282 11.5508C16.4229 12.2737 16.1333 12.9655 15.622 13.4766C15.1108 13.9877 14.419 14.2771 13.6961 14.2823C12.9732 14.2875 12.2773 14.008 11.7588 13.5043L4.51276 6.25732C4.32512 6.06981 4.21965 5.81544 4.21956 5.55017C4.21946 5.2849 4.32475 5.03046 4.51226 4.84282C4.69977 4.65518 4.95414 4.54971 5.21941 4.54962C5.48468 4.54952 5.73912 4.65481 5.92676 4.84232L13.1738 12.0893C13.3146 12.2303 13.5056 12.3095 13.7049 12.3096C13.9042 12.3097 14.0953 12.2306 14.2363 12.0898C14.3772 11.949 14.4565 11.7579 14.4566 11.5587C14.4567 11.3594 14.3776 11.1683 14.2368 11.0273L6.28376 3.07432C6.05158 2.84201 5.77592 2.65771 5.47252 2.53193C5.16911 2.40616 4.84391 2.34138 4.51547 2.34128C4.18703 2.34119 3.86178 2.40579 3.55831 2.53139C3.25483 2.657 2.97907 2.84114 2.74676 3.07332C2.27759 3.54222 2.01391 4.1783 2.01372 4.84161C2.01354 5.50493 2.27686 6.14115 2.74576 6.61032L10.6998 14.5643C11.4968 15.3612 12.5777 15.8089 13.7048 15.8089C14.8318 15.8089 15.9127 15.3612 16.7098 14.5643V14.5653Z" fill="#322662"/>
</svg>
