<svg width="29" height="19" viewBox="0 0 29 19" fill="none" xmlns="http://www.w3.org/2000/svg">
<path d="M20.2375 1.05629C20.0865 0.936763 19.9134 0.848322 19.728 0.796065C19.5427 0.743808 19.3489 0.72877 19.1577 0.751818C18.9665 0.774867 18.7818 0.835547 18.6142 0.930355C18.4466 1.02516 18.2995 1.15222 18.1812 1.3042L7.97289 14.4292L2.9708 8.33337C2.85347 8.17719 2.70596 8.04617 2.53702 7.94809C2.36809 7.85001 2.18117 7.78688 1.98736 7.76243C1.79355 7.73798 1.59681 7.75271 1.4088 7.80576C1.2208 7.85881 1.04537 7.94909 0.892927 8.07124C0.740485 8.19339 0.614136 8.34492 0.521381 8.51684C0.428627 8.68875 0.371357 8.87755 0.352971 9.07203C0.334585 9.26651 0.355458 9.4627 0.41435 9.64895C0.473243 9.83521 0.568954 10.0077 0.695804 10.1563L6.77705 17.7105C6.91431 17.8796 7.08773 18.0159 7.28458 18.1093C7.48142 18.2027 7.69669 18.2508 7.91455 18.25C8.14581 18.2604 8.37621 18.2155 8.58668 18.1191C8.79716 18.0228 8.98168 17.8777 9.12497 17.6959L20.5437 3.11254C20.6601 2.95799 20.7446 2.78182 20.7923 2.5943C20.84 2.40677 20.8498 2.21164 20.8213 2.02026C20.7928 1.82888 20.7265 1.64509 20.6263 1.4796C20.526 1.3141 20.3939 1.1702 20.2375 1.05629ZM27.5291 1.05629C27.3782 0.936763 27.205 0.848322 27.0197 0.796065C26.8344 0.743808 26.6405 0.72877 26.4494 0.751818C26.2582 0.774867 26.0735 0.835547 25.9059 0.930355C25.7383 1.02516 25.5911 1.15222 25.4729 1.3042L15.2646 14.4292L14.375 13.3355L12.5375 15.698L14.1416 17.6959C14.2789 17.8651 14.4523 18.0014 14.6492 18.0947C14.846 18.1881 15.0613 18.2362 15.2791 18.2355C15.4982 18.2344 15.7142 18.1841 15.9111 18.0882C16.108 17.9922 16.2808 17.8532 16.4166 17.6813L27.8354 3.09795C27.9495 2.94386 28.0322 2.76877 28.0785 2.5827C28.1249 2.39663 28.1342 2.20324 28.1057 2.0136C28.0773 1.82396 28.0117 1.64179 27.9128 1.47752C27.8138 1.31325 27.6835 1.17011 27.5291 1.05629Z" fill="#322662" fill-opacity="0.6"/>
</svg>
