<svg width="67" height="84" viewBox="0 0 67 84" fill="none" xmlns="http://www.w3.org/2000/svg">
<path d="M33.5 50.333C35.7916 50.333 37.7541 49.5177 39.3875 47.8872C41.0208 46.2566 41.8361 44.2941 41.8333 41.9997C41.8305 39.7052 41.0152 37.7441 39.3875 36.1163C37.7597 34.4886 35.7972 33.6719 33.5 33.6663C31.2027 33.6608 29.2416 34.4775 27.6166 36.1163C25.9916 37.7552 25.175 39.7163 25.1666 41.9997C25.1583 44.283 25.975 46.2455 27.6166 47.8872C29.2583 49.5288 31.2194 50.3441 33.5 50.333ZM16.8333 66.9997H50.1666V64.6038C50.1666 62.9372 49.7152 61.4094 48.8125 60.0205C47.9097 58.6316 46.6597 57.59 45.0625 56.8955C43.2569 56.1316 41.3986 55.5413 39.4875 55.1247C37.5763 54.708 35.5805 54.4997 33.5 54.4997C31.4194 54.4997 29.4236 54.708 27.5125 55.1247C25.6013 55.5413 23.743 56.1316 21.9375 56.8955C20.3402 57.59 19.0902 58.6316 18.1875 60.0205C17.2847 61.4094 16.8333 62.9372 16.8333 64.6038V66.9997ZM58.5 83.6664H8.49996C6.20829 83.6664 4.24718 82.8511 2.61663 81.2205C0.98607 79.59 0.169404 77.6275 0.166626 75.333V8.66634C0.166626 6.37467 0.983292 4.41356 2.61663 2.78301C4.24996 1.15245 6.21107 0.335786 8.49996 0.333008H41.8333L66.8333 25.333V75.333C66.8333 77.6247 66.018 79.5872 64.3875 81.2205C62.7569 82.8539 60.7944 83.6691 58.5 83.6664ZM58.5 75.333V28.8747L38.2916 8.66634H8.49996V75.333H58.5Z" fill="#E6E6E6"/>
</svg>
