<svg width="25" height="31" viewBox="0 0 25 31" fill="none" xmlns="http://www.w3.org/2000/svg">
<path d="M12.4999 18.417C13.302 18.417 13.9889 18.1316 14.5605 17.561C15.1322 16.9903 15.4176 16.3034 15.4166 15.5003C15.4156 14.6973 15.1303 14.0109 14.5605 13.4412C13.9908 12.8714 13.3039 12.5856 12.4999 12.5837C11.6959 12.5817 11.0095 12.8675 10.4408 13.4412C9.872 14.0148 9.58617 14.7012 9.58325 15.5003C9.58033 16.2995 9.86617 16.9864 10.4408 17.561C11.0153 18.1355 11.7017 18.4209 12.4999 18.417ZM6.66658 24.2503H18.3333V23.4118C18.3333 22.8284 18.1753 22.2937 17.8593 21.8076C17.5433 21.3215 17.1058 20.9569 16.5468 20.7139C15.9148 20.4465 15.2644 20.2399 14.5955 20.0941C13.9267 19.9482 13.2281 19.8753 12.4999 19.8753C11.7717 19.8753 11.0732 19.9482 10.4043 20.0941C9.7354 20.2399 9.08499 20.4465 8.45304 20.7139C7.89402 20.9569 7.45652 21.3215 7.14054 21.8076C6.82457 22.2937 6.66658 22.8284 6.66658 23.4118V24.2503ZM21.2499 30.0837H3.74992C2.94784 30.0837 2.26145 29.7983 1.69075 29.2276C1.12006 28.6569 0.834224 27.97 0.833252 27.167V3.83366C0.833252 3.03158 1.11909 2.34519 1.69075 1.77449C2.26242 1.2038 2.94881 0.917964 3.74992 0.916992H15.4166L24.1666 9.66699V27.167C24.1666 27.9691 23.8812 28.656 23.3105 29.2276C22.7398 29.7993 22.053 30.0846 21.2499 30.0837ZM21.2499 27.167V10.9066L14.177 3.83366H3.74992V27.167H21.2499Z" fill="#322662" fill-opacity="0.6"/>
</svg>
