<svg width="31" height="27" viewBox="0 0 31 27" fill="none" xmlns="http://www.w3.org/2000/svg">
<path d="M0.92395 9.85417V1.83333C0.92395 1.44656 1.0776 1.07563 1.35109 0.802136C1.62458 0.528645 1.99551 0.375 2.38228 0.375H28.6323C29.0191 0.375 29.39 0.528645 29.6635 0.802136C29.937 1.07563 30.0906 1.44656 30.0906 1.83333V9.85417C29.1237 9.85417 28.1963 10.2383 27.5126 10.922C26.8289 11.6057 26.4448 12.5331 26.4448 13.5C26.4448 14.4669 26.8289 15.3943 27.5126 16.078C28.1963 16.7617 29.1237 17.1458 30.0906 17.1458V25.1667C30.0906 25.5534 29.937 25.9244 29.6635 26.1979C29.39 26.4714 29.0191 26.625 28.6323 26.625H2.38228C1.99551 26.625 1.62458 26.4714 1.35109 26.1979C1.0776 25.9244 0.92395 25.5534 0.92395 25.1667V17.1458C1.89089 17.1458 2.81822 16.7617 3.50194 16.078C4.18567 15.3943 4.56978 14.4669 4.56978 13.5C4.56978 12.5331 4.18567 11.6057 3.50194 10.922C2.81822 10.2383 1.89089 9.85417 0.92395 9.85417ZM3.84062 7.62C4.93613 8.16293 5.85818 9.00111 6.50281 10.04C7.14744 11.079 7.48901 12.2773 7.48901 13.5C7.48901 14.7227 7.14744 15.921 6.50281 16.96C5.85818 17.9989 4.93613 18.8371 3.84062 19.38V23.7083H27.174V19.38C26.0784 18.8371 25.1564 17.9989 24.5118 16.96C23.8671 15.921 23.5256 14.7227 23.5256 13.5C23.5256 12.2773 23.8671 11.079 24.5118 10.04C25.1564 9.00111 26.0784 8.16293 27.174 7.62V3.29167H3.84062V7.62ZM11.1323 9.125H19.8823V12.0417H11.1323V9.125ZM11.1323 14.9583H19.8823V17.875H11.1323V14.9583Z" fill="#322662" fill-opacity="0.6"/>
</svg>
