<svg width="101" height="100" viewBox="0 0 101 100" fill="none" xmlns="http://www.w3.org/2000/svg">
<path d="M50.5 15.625C48.8424 15.625 47.2527 16.2835 46.0806 17.4556C44.9085 18.6277 44.25 20.2174 44.25 21.875C44.25 23.5326 44.9085 25.1223 46.0806 26.2944C47.2527 27.4665 48.8424 28.125 50.5 28.125C52.1576 28.125 53.7473 27.4665 54.9194 26.2944C56.0915 25.1223 56.75 23.5326 56.75 21.875C56.75 20.2174 56.0915 18.6277 54.9194 17.4556C53.7473 16.2835 52.1576 15.625 50.5 15.625ZM38 21.875C38 18.5598 39.317 15.3804 41.6612 13.0362C44.0054 10.692 47.1848 9.375 50.5 9.375C53.8152 9.375 56.9946 10.692 59.3388 13.0362C61.683 15.3804 63 18.5598 63 21.875C63 25.1902 61.683 28.3696 59.3388 30.7138C56.9946 33.058 53.8152 34.375 50.5 34.375C47.1848 34.375 44.0054 33.058 41.6612 30.7138C39.317 28.3696 38 25.1902 38 21.875ZM80.1875 18.75C78.9443 18.75 77.752 19.2439 76.8729 20.1229C75.9939 21.002 75.5 22.1943 75.5 23.4375C75.5 24.6807 75.9939 25.873 76.8729 26.7521C77.752 27.6311 78.9443 28.125 80.1875 28.125C81.4307 28.125 82.623 27.6311 83.5021 26.7521C84.3811 25.873 84.875 24.6807 84.875 23.4375C84.875 22.1943 84.3811 21.002 83.5021 20.1229C82.623 19.2439 81.4307 18.75 80.1875 18.75ZM69.25 23.4375C69.25 22.0012 69.5329 20.5789 70.0826 19.2519C70.6322 17.9249 71.4379 16.7192 72.4535 15.7035C73.4692 14.6879 74.6749 13.8822 76.0019 13.3326C77.3289 12.7829 78.7512 12.5 80.1875 12.5C81.6238 12.5 83.0461 12.7829 84.3731 13.3326C85.7001 13.8822 86.9058 14.6879 87.9215 15.7035C88.9371 16.7192 89.7428 17.9249 90.2924 19.2519C90.8421 20.5789 91.125 22.0012 91.125 23.4375C91.125 26.3383 89.9727 29.1203 87.9215 31.1715C85.8703 33.2227 83.0883 34.375 80.1875 34.375C77.2867 34.375 74.5047 33.2227 72.4535 31.1715C70.4023 29.1203 69.25 26.3383 69.25 23.4375ZM16.125 23.4375C16.125 22.1943 16.6189 21.002 17.4979 20.1229C18.377 19.2439 19.5693 18.75 20.8125 18.75C22.0557 18.75 23.248 19.2439 24.1271 20.1229C25.0061 21.002 25.5 22.1943 25.5 23.4375C25.5 24.6807 25.0061 25.873 24.1271 26.7521C23.248 27.6311 22.0557 28.125 20.8125 28.125C19.5693 28.125 18.377 27.6311 17.4979 26.7521C16.6189 25.873 16.125 24.6807 16.125 23.4375ZM20.8125 12.5C17.9117 12.5 15.1297 13.6523 13.0785 15.7035C11.0273 17.7547 9.875 20.5367 9.875 23.4375C9.875 26.3383 11.0273 29.1203 13.0785 31.1715C15.1297 33.2227 17.9117 34.375 20.8125 34.375C23.7133 34.375 26.4953 33.2227 28.5465 31.1715C30.5977 29.1203 31.75 26.3383 31.75 23.4375C31.75 20.5367 30.5977 17.7547 28.5465 15.7035C26.4953 13.6523 23.7133 12.5 20.8125 12.5ZM27.5344 76.5781C26.121 77.5097 24.4818 78.0412 22.7907 78.1163C21.0997 78.1914 19.4198 77.8072 17.9295 77.0045C16.4391 76.2018 15.1939 75.0106 14.326 73.5573C13.4581 72.1039 12.9999 70.4427 13 68.75V48.4375C13 48.0231 13.1646 47.6257 13.4576 47.3326C13.7507 47.0396 14.1481 46.875 14.5625 46.875H27.1594C27.4474 44.5877 28.3624 42.4247 29.8031 40.625H14.5625C12.4905 40.625 10.5034 41.4481 9.03823 42.9132C7.5731 44.3784 6.75 46.3655 6.75 48.4375V68.75C6.74919 71.4408 7.44331 74.0863 8.76512 76.4301C10.0869 78.7739 11.9916 80.7366 14.2947 82.1281C16.5978 83.5197 19.2212 84.2929 21.9109 84.3728C24.6005 84.4527 27.2652 83.8367 29.6469 82.5844C28.6728 80.6877 27.9621 78.667 27.5344 76.5781ZM71.3531 82.5844C73.7348 83.8367 76.3995 84.4527 79.0891 84.3728C81.7788 84.2929 84.4022 83.5197 86.7053 82.1281C89.0084 80.7366 90.9131 78.7739 92.2349 76.4301C93.5567 74.0863 94.2508 71.4408 94.25 68.75V48.4375C94.25 46.3655 93.4269 44.3784 91.9618 42.9132C90.4966 41.4481 88.5095 40.625 86.4375 40.625H71.1969C72.6376 42.4247 73.5526 44.5877 73.8406 46.875H86.4375C86.8519 46.875 87.2493 47.0396 87.5424 47.3326C87.8354 47.6257 88 48.0231 88 48.4375V68.75C88.0001 70.4427 87.5419 72.1039 86.674 73.5573C85.8061 75.0106 84.5609 76.2018 83.0705 77.0045C81.5802 77.8072 79.9003 78.1914 78.2093 78.1163C76.5182 78.0412 74.879 77.5097 73.4656 76.5781C73.0379 78.667 72.3272 80.6877 71.3531 82.5844ZM39.5625 40.625C37.4905 40.625 35.5034 41.4481 34.0382 42.9132C32.5731 44.3784 31.75 46.3655 31.75 48.4375V71.875C31.75 76.8478 33.7254 81.617 37.2417 85.1333C40.7581 88.6496 45.5272 90.625 50.5 90.625C55.4728 90.625 60.2419 88.6496 63.7583 85.1333C67.2746 81.617 69.25 76.8478 69.25 71.875V48.4375C69.25 46.3655 68.4269 44.3784 66.9618 42.9132C65.4966 41.4481 63.5095 40.625 61.4375 40.625H39.5625ZM38 48.4375C38 48.0231 38.1646 47.6257 38.4576 47.3326C38.7507 47.0396 39.1481 46.875 39.5625 46.875H61.4375C61.8519 46.875 62.2493 47.0396 62.5424 47.3326C62.8354 47.6257 63 48.0231 63 48.4375V71.875C63 75.1902 61.683 78.3696 59.3388 80.7138C56.9946 83.058 53.8152 84.375 50.5 84.375C47.1848 84.375 44.0054 83.058 41.6612 80.7138C39.317 78.3696 38 75.1902 38 71.875V48.4375Z" fill="#E6E6E6"/>
</svg>
