<svg width="35" height="35" viewBox="0 0 35 35" fill="none" xmlns="http://www.w3.org/2000/svg">
<path d="M17.5 5.46875C16.9198 5.46875 16.3634 5.69922 15.9532 6.10945C15.543 6.51969 15.3125 7.07609 15.3125 7.65625C15.3125 8.23641 15.543 8.79281 15.9532 9.20305C16.3634 9.61328 16.9198 9.84375 17.5 9.84375C18.0802 9.84375 18.6366 9.61328 19.0468 9.20305C19.457 8.79281 19.6875 8.23641 19.6875 7.65625C19.6875 7.07609 19.457 6.51969 19.0468 6.10945C18.6366 5.69922 18.0802 5.46875 17.5 5.46875ZM13.125 7.65625C13.125 6.49593 13.5859 5.38313 14.4064 4.56266C15.2269 3.74219 16.3397 3.28125 17.5 3.28125C18.6603 3.28125 19.7731 3.74219 20.5936 4.56266C21.4141 5.38313 21.875 6.49593 21.875 7.65625C21.875 8.81657 21.4141 9.92937 20.5936 10.7498C19.7731 11.5703 18.6603 12.0312 17.5 12.0312C16.3397 12.0312 15.2269 11.5703 14.4064 10.7498C13.5859 9.92937 13.125 8.81657 13.125 7.65625ZM27.8906 6.5625C27.4555 6.5625 27.0382 6.73535 26.7305 7.04303C26.4229 7.3507 26.25 7.768 26.25 8.20312C26.25 8.63825 26.4229 9.05555 26.7305 9.36322C27.0382 9.6709 27.4555 9.84375 27.8906 9.84375C28.3257 9.84375 28.743 9.6709 29.0507 9.36322C29.3584 9.05555 29.5312 8.63825 29.5312 8.20312C29.5312 7.768 29.3584 7.3507 29.0507 7.04303C28.743 6.73535 28.3257 6.5625 27.8906 6.5625ZM24.0625 8.20312C24.0625 7.70041 24.1615 7.20261 24.3539 6.73816C24.5463 6.27372 24.8283 5.85171 25.1837 5.49623C25.5392 5.14076 25.9612 4.85878 26.4257 4.6664C26.8901 4.47402 27.3879 4.375 27.8906 4.375C28.3933 4.375 28.8911 4.47402 29.3556 4.6664C29.82 4.85878 30.242 5.14076 30.5975 5.49623C30.953 5.85171 31.235 6.27372 31.4274 6.73816C31.6197 7.20261 31.7188 7.70041 31.7188 8.20312C31.7188 9.21841 31.3154 10.1921 30.5975 10.91C29.8796 11.6279 28.9059 12.0312 27.8906 12.0312C26.8753 12.0312 25.9016 11.6279 25.1837 10.91C24.4658 10.1921 24.0625 9.21841 24.0625 8.20312ZM5.46875 8.20312C5.46875 7.768 5.6416 7.3507 5.94928 7.04303C6.25695 6.73535 6.67425 6.5625 7.10938 6.5625C7.5445 6.5625 7.9618 6.73535 8.26947 7.04303C8.57715 7.3507 8.75 7.768 8.75 8.20312C8.75 8.63825 8.57715 9.05555 8.26947 9.36322C7.9618 9.6709 7.5445 9.84375 7.10938 9.84375C6.67425 9.84375 6.25695 9.6709 5.94928 9.36322C5.6416 9.05555 5.46875 8.63825 5.46875 8.20312ZM7.10938 4.375C6.09409 4.375 5.12039 4.77832 4.40248 5.49623C3.68457 6.21414 3.28125 7.18784 3.28125 8.20312C3.28125 9.21841 3.68457 10.1921 4.40248 10.91C5.12039 11.6279 6.09409 12.0312 7.10938 12.0312C8.12466 12.0312 9.09836 11.6279 9.81627 10.91C10.5342 10.1921 10.9375 9.21841 10.9375 8.20312C10.9375 7.18784 10.5342 6.21414 9.81627 5.49623C9.09836 4.77832 8.12466 4.375 7.10938 4.375ZM9.46203 26.8023C8.96736 27.1284 8.39364 27.3144 7.80176 27.3407C7.20988 27.367 6.62193 27.2325 6.10031 26.9516C5.5787 26.6706 5.14288 26.2537 4.83911 25.745C4.53535 25.2364 4.37497 24.655 4.375 24.0625V16.9531C4.375 16.8081 4.43262 16.669 4.53518 16.5664C4.63774 16.4639 4.77683 16.4062 4.92188 16.4062H9.33078C9.4316 15.6057 9.75184 14.8486 10.2561 14.2188H4.92188C4.19667 14.2188 3.50117 14.5068 2.98838 15.0196C2.47559 15.5324 2.1875 16.2279 2.1875 16.9531V24.0625C2.18722 25.0043 2.43016 25.9302 2.89279 26.7505C3.35542 27.5709 4.02207 28.2578 4.82815 28.7449C5.63423 29.2319 6.55243 29.5025 7.4938 29.5305C8.43518 29.5584 9.36783 29.3428 10.2014 28.9045C9.86047 28.2407 9.61172 27.5334 9.46203 26.8023ZM24.7986 28.9045C25.6322 29.3428 26.5648 29.5584 27.5062 29.5305C28.4476 29.5025 29.3658 29.2319 30.1719 28.7449C30.9779 28.2578 31.6446 27.5709 32.1072 26.7505C32.5698 25.9302 32.8128 25.0043 32.8125 24.0625V16.9531C32.8125 16.2279 32.5244 15.5324 32.0116 15.0196C31.4988 14.5068 30.8033 14.2188 30.0781 14.2188H24.7439C25.2482 14.8486 25.5684 15.6057 25.6692 16.4062H30.0781C30.2232 16.4062 30.3623 16.4639 30.4648 16.5664C30.5674 16.669 30.625 16.8081 30.625 16.9531V24.0625C30.625 24.655 30.4647 25.2364 30.1609 25.745C29.8571 26.2537 29.4213 26.6706 28.8997 26.9516C28.3781 27.2325 27.7901 27.367 27.1982 27.3407C26.6064 27.3144 26.0326 27.1284 25.538 26.8023C25.3883 27.5334 25.1395 28.2407 24.7986 28.9045ZM13.6719 14.2188C12.9467 14.2188 12.2512 14.5068 11.7384 15.0196C11.2256 15.5324 10.9375 16.2279 10.9375 16.9531V25.1562C10.9375 26.8967 11.6289 28.5659 12.8596 29.7966C14.0903 31.0273 15.7595 31.7188 17.5 31.7188C19.2405 31.7188 20.9097 31.0273 22.1404 29.7966C23.3711 28.5659 24.0625 26.8967 24.0625 25.1562V16.9531C24.0625 16.2279 23.7744 15.5324 23.2616 15.0196C22.7488 14.5068 22.0533 14.2188 21.3281 14.2188H13.6719ZM13.125 16.9531C13.125 16.8081 13.1826 16.669 13.2852 16.5664C13.3877 16.4639 13.5268 16.4062 13.6719 16.4062H21.3281C21.4732 16.4062 21.6123 16.4639 21.7148 16.5664C21.8174 16.669 21.875 16.8081 21.875 16.9531V25.1562C21.875 26.3166 21.4141 27.4294 20.5936 28.2498C19.7731 29.0703 18.6603 29.5312 17.5 29.5312C16.3397 29.5312 15.2269 29.0703 14.4064 28.2498C13.5859 27.4294 13.125 26.3166 13.125 25.1562V16.9531Z" fill="#322662" fill-opacity="0.6"/>
</svg>
