<svg width="100" height="100" viewBox="0 0 100 100" fill="none" xmlns="http://www.w3.org/2000/svg">
<path d="M91.6667 45.2915L80.25 38.6665C81.25 37.7915 82.2084 36.6665 82.9167 35.4165C86.375 29.4582 84.3334 21.7915 78.3334 18.3332C74.75 16.2498 70.5417 16.2498 67 17.7498L67.0417 17.7082L63.375 19.3332L62.9167 15.3332L62.875 15.3748C62.5 11.5832 60.2917 7.9165 56.7084 5.83316C53.826 4.18624 50.4099 3.74383 47.2031 4.60211C43.9962 5.4604 41.2578 7.54998 39.5834 10.4165C38.875 11.6665 38.4167 13.0415 38.1667 14.3748L26.7084 7.7915C22.7084 5.49983 17.625 6.83316 15.3334 10.8332L9.08337 21.6665C8.80883 22.1389 8.63087 22.6611 8.55981 23.2028C8.48876 23.7445 8.52602 24.295 8.66945 24.8222C8.81288 25.3494 9.05961 25.8428 9.39532 26.2739C9.73103 26.7049 10.149 27.065 10.625 27.3332L17.8334 31.4998L35.4167 41.6665H8.33337V83.3332C8.33337 85.5433 9.21135 87.6629 10.7742 89.2257C12.337 90.7885 14.4566 91.6665 16.6667 91.6665H83.3334C87.9584 91.6665 91.6667 87.9582 91.6667 83.3332V61.9582L94.7084 56.6665C97 52.6665 95.6667 47.5832 91.6667 45.2915ZM68.5 27.0832C69.625 24.9998 72.2084 24.4165 74.1667 25.5415C76.1667 26.7082 76.875 29.1665 75.7084 31.2498C74.5417 33.3332 72 33.9165 70 32.7915C68.0417 31.6248 67.3334 29.1665 68.5 27.0832ZM58.625 35.8332L87.5 52.4998L83.3334 59.7082L54.4584 43.0415L58.625 35.8332ZM45.8334 83.3332H16.6667V49.9998H45.8334V83.3332ZM47.25 38.8748L18.375 22.2082L22.5417 14.9998L51.4167 31.6665L47.25 38.8748ZM48.375 20.2915C46.375 19.1248 45.7084 16.6665 46.8334 14.5832C47.9167 12.4998 50.5417 11.9165 52.5417 13.0415C54.5417 14.2082 55.2084 16.6665 54.0417 18.7498C52.9167 20.8332 50.375 21.4165 48.375 20.2915ZM54.1667 83.3332V52.4998L83.3334 69.3332V83.3332H54.1667Z" fill="#E6E6E6"/>
</svg>
