<svg width="263" height="299" viewBox="0 0 263 299" fill="none" xmlns="http://www.w3.org/2000/svg">
<g clip-path="url(#clip0_101_1851)">
<path d="M154.036 20.7789V228.677L153.314 237.334C152.048 252.36 145.682 266.502 135.273 277.414C133.798 278.958 132.254 280.42 130.642 281.799C128.657 283.511 126.57 285.1 124.393 286.557C123.147 287.394 121.87 288.185 120.572 288.933C113.024 293.292 104.686 296.112 96.0416 297.228H34.0954C29.1658 297.233 24.4019 295.449 20.6867 292.209C18.8475 290.608 17.306 288.695 16.1334 286.557C14.4949 283.557 13.6381 280.193 13.6421 276.775V20.7789C13.649 15.355 15.8067 10.1553 19.6419 6.32009C23.4771 2.48486 28.6768 0.327206 34.1007 0.320312H133.583C133.818 0.320312 134.049 0.32554 134.284 0.330774C134.436 0.336008 134.588 0.341243 134.74 0.356944C134.944 0.362178 135.148 0.37788 135.347 0.398815C135.603 0.414516 135.854 0.44066 136.106 0.472063C136.336 0.503465 136.566 0.534868 136.796 0.571504C136.844 0.576738 136.885 0.587202 136.933 0.592436C137.226 0.639539 137.519 0.691875 137.807 0.754679C138.094 0.81225 138.387 0.880291 138.67 0.953562C138.874 1.0059 139.084 1.06347 139.288 1.12104C139.293 1.12104 139.303 1.12628 139.309 1.12628C139.91 1.30422 140.507 1.50833 141.093 1.74387C141.276 1.81189 141.46 1.89042 141.638 1.96893L141.716 2.00033C141.863 2.06313 142.004 2.12593 142.145 2.19397C142.569 2.38762 142.988 2.6022 143.401 2.82725C144.081 3.20222 144.74 3.61458 145.374 4.06243C145.579 4.20372 145.777 4.35552 145.971 4.5073C146.133 4.62768 146.296 4.75328 146.453 4.88936C146.466 4.8963 146.478 4.90511 146.489 4.91553C146.51 4.93123 146.531 4.95216 146.552 4.96786C146.693 5.07777 146.829 5.19292 146.96 5.30806C147.217 5.52787 147.468 5.75816 147.714 5.99367C147.782 6.05648 147.85 6.11928 147.918 6.18732C147.986 6.25012 148.049 6.31816 148.117 6.3862C148.185 6.449 148.248 6.51704 148.311 6.57984C148.348 6.61208 148.383 6.64707 148.415 6.68453C148.604 6.88341 148.787 7.08751 148.965 7.29163C149.19 7.54808 149.41 7.80977 149.614 8.07668C149.792 8.2965 149.959 8.51632 150.121 8.74137C150.273 8.94546 150.415 9.1496 150.556 9.35895C150.594 9.41103 150.629 9.46519 150.66 9.52119C150.807 9.73577 150.943 9.95559 151.079 10.1754C151.419 10.7302 151.728 11.3059 152.011 11.8868C152.115 12.1066 152.215 12.3212 152.309 12.541C152.43 12.808 152.539 13.0749 152.644 13.3418C152.686 13.4412 152.723 13.5459 152.759 13.6453C152.817 13.7971 152.869 13.9489 152.921 14.1007C152.979 14.2682 153.037 14.4409 153.089 14.6084L153.215 15.0166C153.288 15.2626 153.351 15.5033 153.413 15.7493C153.45 15.8958 153.487 16.0424 153.518 16.1942C153.764 17.263 153.923 18.3499 153.994 19.4443C154 19.5804 154.01 19.7112 154.015 19.8473C154.031 20.1561 154.036 20.4648 154.036 20.7789Z" fill="white"/>
<path d="M12.2226 93.4638C11.6123 93.4631 11.0271 93.2203 10.5955 92.7887C10.1639 92.3571 9.92112 91.772 9.92041 91.1616V75.5064C9.91996 75.2038 9.97917 74.904 10.0947 74.6243C10.2102 74.3446 10.3797 74.0904 10.5935 73.8762C10.8073 73.6621 11.0613 73.4922 11.3408 73.3763C11.6204 73.2603 11.92 73.2007 12.2226 73.2007C12.5253 73.2007 12.8249 73.2603 13.1045 73.3763C13.384 73.4922 13.638 73.6621 13.8518 73.8762C14.0656 74.0904 14.2352 74.3446 14.3506 74.6243C14.4661 74.904 14.5253 75.2038 14.5249 75.5064V91.1616C14.5242 91.772 14.2814 92.3571 13.8498 92.7887C13.4182 93.2203 12.833 93.4631 12.2226 93.4638Z" fill="#151027"/>
<path d="M11.7622 63.0741C11.1518 63.0734 10.5666 62.8306 10.135 62.399C9.70345 61.9674 9.46067 61.3822 9.45996 60.7718V45.1166C9.46088 44.5067 9.70384 43.922 10.1355 43.491C10.5672 43.06 11.1522 42.8179 11.7622 42.8179C12.3722 42.8179 12.9572 43.06 13.3889 43.491C13.8206 43.922 14.0635 44.5067 14.0644 45.1166V60.7718C14.0637 61.3822 13.8209 61.9674 13.3893 62.399C12.9577 62.8306 12.3726 63.0734 11.7622 63.0741Z" fill="#151027"/>
<path d="M68.2915 7.92626C68.2922 7.31589 68.535 6.73072 68.9666 6.29912C69.3982 5.86752 69.9834 5.62473 70.5937 5.62402H86.2489C86.8595 5.62402 87.4451 5.86658 87.8769 6.29833C88.3086 6.73008 88.5512 7.31567 88.5512 7.92626C88.5512 8.53685 88.3086 9.12244 87.8769 9.55419C87.4451 9.98594 86.8595 10.2285 86.2489 10.2285H70.5937C69.9834 10.2278 69.3982 9.98499 68.9666 9.55339C68.535 9.12179 68.2922 8.53663 68.2915 7.92626Z" fill="#151027"/>
<path d="M12.2226 120.17C11.6123 120.169 11.0271 119.926 10.5955 119.495C10.1639 119.063 9.92112 118.478 9.92041 117.868V102.212C9.91996 101.91 9.97917 101.61 10.0947 101.33C10.2102 101.051 10.3797 100.796 10.5935 100.582C10.8073 100.368 11.0613 100.198 11.3408 100.082C11.6204 99.9664 11.92 99.9067 12.2226 99.9067C12.5253 99.9067 12.8249 99.9664 13.1045 100.082C13.384 100.198 13.638 100.368 13.8518 100.582C14.0656 100.796 14.2352 101.051 14.3506 101.33C14.4661 101.61 14.5253 101.91 14.5249 102.212V117.868C14.5242 118.478 14.2814 119.063 13.8498 119.495C13.4182 119.926 12.833 120.169 12.2226 120.17Z" fill="#151027"/>
<path d="M155.626 86.1504C155.016 86.1496 154.431 85.9069 153.999 85.4753C153.568 85.0437 153.325 84.4585 153.324 83.8481V68.1929C153.324 67.8903 153.383 67.5905 153.498 67.3108C153.614 67.0311 153.783 66.7769 153.997 66.5627C154.211 66.3486 154.465 66.1787 154.745 66.0628C155.024 65.9469 155.324 65.8872 155.626 65.8872C155.929 65.8872 156.229 65.9469 156.508 66.0628C156.788 66.1787 157.042 66.3486 157.256 66.5627C157.469 66.7769 157.639 67.0311 157.754 67.3108C157.87 67.5905 157.929 67.8903 157.929 68.1929V83.8481C157.928 84.4585 157.685 85.0437 157.254 85.4753C156.822 85.9069 156.237 86.1496 155.626 86.1504Z" fill="#151027"/>
<path d="M94.9975 10.2285C96.269 10.2285 97.2998 9.19775 97.2998 7.92626C97.2998 6.65477 96.269 5.62402 94.9975 5.62402C93.7261 5.62402 92.6953 6.65477 92.6953 7.92626C92.6953 9.19775 93.7261 10.2285 94.9975 10.2285Z" fill="#151027"/>
<path d="M143.853 28.1649H23.8322C23.6933 28.1618 23.5612 28.1044 23.464 28.0051C23.3669 27.9058 23.3125 27.7724 23.3125 27.6335C23.3125 27.4945 23.3669 27.3611 23.464 27.2618C23.5612 27.1625 23.6933 27.1051 23.8322 27.1021H143.853C143.992 27.1051 144.124 27.1625 144.222 27.2618C144.319 27.3611 144.373 27.4945 144.373 27.6335C144.373 27.7724 144.319 27.9058 144.222 28.0051C144.124 28.1044 143.992 28.1618 143.853 28.1649Z" fill="#151027"/>
<path d="M32.9283 24.3888C34.6482 24.3888 36.0425 22.9635 36.0425 21.2052C36.0425 19.4469 34.6482 18.0215 32.9283 18.0215C31.2083 18.0215 29.814 19.4469 29.814 21.2052C29.814 22.9635 31.2083 24.3888 32.9283 24.3888Z" fill="#151027"/>
<path d="M43.687 24.3888C45.407 24.3888 46.8013 22.9635 46.8013 21.2052C46.8013 19.4469 45.407 18.0215 43.687 18.0215C41.9671 18.0215 40.5728 19.4469 40.5728 21.2052C40.5728 22.9635 41.9671 24.3888 43.687 24.3888Z" fill="#151027"/>
<path d="M54.4453 24.3888C56.1653 24.3888 57.5596 22.9635 57.5596 21.2052C57.5596 19.4469 56.1653 18.0215 54.4453 18.0215C52.7254 18.0215 51.3311 19.4469 51.3311 21.2052C51.3311 22.9635 52.7254 24.3888 54.4453 24.3888Z" fill="#151027"/>
<path d="M137.376 18.8105H129.734C129.582 18.8136 129.438 18.8759 129.332 18.9841C129.226 19.0922 129.167 19.2377 129.167 19.3892C129.167 19.5407 129.226 19.6862 129.332 19.7944C129.438 19.9025 129.582 19.9648 129.734 19.9679H137.376C137.527 19.9648 137.672 19.9025 137.778 19.7944C137.884 19.6862 137.943 19.5407 137.943 19.3892C137.943 19.2377 137.884 19.0922 137.778 18.9841C137.672 18.8759 137.527 18.8136 137.376 18.8105Z" fill="white"/>
<path d="M137.376 20.9829H129.734C129.582 20.9859 129.438 21.0482 129.332 21.1564C129.226 21.2646 129.167 21.4101 129.167 21.5616C129.167 21.7131 129.226 21.8585 129.332 21.9667C129.438 22.0749 129.582 22.1372 129.734 22.1402H137.376C137.527 22.1372 137.672 22.0749 137.778 21.9667C137.884 21.8585 137.943 21.7131 137.943 21.5616C137.943 21.4101 137.884 21.2646 137.778 21.1564C137.672 21.0482 137.527 20.9859 137.376 20.9829Z" fill="#151027"/>
<path d="M137.376 23.1519H129.734C129.582 23.1549 129.438 23.2172 129.332 23.3254C129.226 23.4335 129.167 23.579 129.167 23.7305C129.167 23.882 129.226 24.0275 129.332 24.1357C129.438 24.2438 129.582 24.3061 129.734 24.3092H137.376C137.527 24.3061 137.672 24.2438 137.778 24.1357C137.884 24.0275 137.943 23.882 137.943 23.7305C137.943 23.579 137.884 23.4335 137.778 23.3254C137.672 23.2172 137.527 23.1549 137.376 23.1519Z" fill="white"/>
<path d="M52.4207 109.386C52.4727 110.128 52.6912 110.848 53.0601 111.494C53.8846 112.84 55.1318 113.874 56.6068 114.436C58.4008 115.17 60.4007 115.192 62.3046 115.029C64.0729 114.877 65.8233 114.524 67.5982 114.452C68.9708 114.408 70.3447 114.44 71.7137 114.55C74.3696 114.738 77.0144 115.088 79.6423 115.512C80.354 115.625 81.0642 115.747 81.7728 115.878C81.8398 115.884 81.9061 115.896 81.9707 115.914C81.9836 115.92 82.0043 115.916 82.0161 115.923C82.0375 115.936 81.9295 115.889 81.9949 115.943C82.0861 116.038 82.1674 116.143 82.2376 116.255L83.2081 117.504C83.4631 117.897 83.764 118.258 84.1044 118.58C84.358 118.776 84.664 118.892 84.9837 118.914C85.3035 118.937 85.6226 118.864 85.901 118.705C86.1918 118.521 86.4237 118.258 86.5691 117.946C86.7923 117.537 87.0587 117.152 87.3636 116.799C88.5182 115.452 90.1229 114.624 91.4651 113.49C92.1152 112.964 92.6701 112.33 93.1055 111.615C93.4769 110.969 93.7079 110.251 93.7832 109.51C93.9011 107.99 93.5225 106.472 92.7044 105.186C91.8587 103.809 90.6439 102.697 89.198 101.977C87.557 101.189 85.7875 100.704 83.9744 100.545C82.0566 100.364 80.1295 100.3 78.2039 100.354C76.0466 100.378 73.8931 100.473 71.7435 100.639C69.5911 100.805 67.4471 101.042 65.3116 101.349C63.2494 101.609 61.2032 101.984 59.1826 102.472C57.3724 102.86 55.6959 103.717 54.3205 104.956C53.7095 105.519 53.2243 106.205 52.8969 106.968C52.5694 107.731 52.4072 108.555 52.4207 109.386Z" fill="#E6E6E6"/>
<path d="M82.3427 104.355H61.9219C61.5173 104.356 61.1294 104.517 60.8432 104.803C60.5571 105.089 60.3961 105.477 60.3955 105.882V106.128C60.3961 106.533 60.5571 106.921 60.8432 107.207C61.1294 107.493 61.5173 107.654 61.9219 107.654H82.3428C82.7474 107.654 83.1353 107.493 83.4215 107.207C83.7076 106.921 83.8686 106.533 83.8692 106.128V105.882C83.8686 105.477 83.7076 105.089 83.4214 104.803C83.1353 104.517 82.7474 104.356 82.3427 104.355Z" fill="#151027"/>
<path d="M82.3427 108.542H61.9219C61.5173 108.543 61.1294 108.704 60.8432 108.99C60.5571 109.276 60.3961 109.664 60.3955 110.069V110.315C60.3961 110.72 60.5571 111.108 60.8432 111.394C61.1294 111.68 61.5173 111.841 61.9219 111.841H82.3428C82.7474 111.841 83.1353 111.68 83.4215 111.394C83.7076 111.108 83.8686 110.72 83.8692 110.315V110.069C83.8686 109.664 83.7076 109.276 83.4214 108.99C83.1353 108.704 82.7474 108.543 82.3427 108.542Z" fill="#151027"/>
<path d="M124.742 79.0303C124.69 79.7722 124.471 80.4928 124.103 81.1386C123.278 82.4843 122.031 83.5188 120.556 84.0801C118.762 84.8143 116.762 84.8369 114.858 84.6732C113.09 84.5212 111.339 84.1687 109.565 84.0961C108.192 84.0522 106.818 84.0849 105.449 84.1943C102.793 84.3828 100.148 84.7325 97.5204 85.1566C96.8087 85.27 96.0986 85.3918 95.3899 85.5222C95.3229 85.5281 95.2566 85.5404 95.192 85.5589C95.1791 85.5642 95.1584 85.5601 95.1466 85.5675C95.1253 85.581 95.2332 85.5333 95.1678 85.5874C95.0766 85.683 94.9953 85.7876 94.9251 85.8996L93.9546 87.1486C93.6996 87.5414 93.3987 87.9025 93.0583 88.2242C92.8047 88.4202 92.4987 88.5366 92.179 88.5589C91.8593 88.5812 91.5401 88.5083 91.2617 88.3494C90.9709 88.1657 90.739 87.9023 90.5936 87.5905C90.3704 87.1811 90.1041 86.7967 89.7992 86.4438C88.6445 85.0968 87.0398 84.2683 85.6976 83.135C85.0475 82.6085 84.4926 81.9742 84.0572 81.2599C83.6858 80.6135 83.4549 79.896 83.3795 79.1542C83.2616 77.6342 83.6402 76.117 84.4584 74.8304C85.304 73.4538 86.5188 72.3419 87.9647 71.6211C89.6057 70.8337 91.3752 70.3488 93.1883 70.1895C95.1061 70.0085 97.0332 69.9446 98.9588 69.9984C101.116 70.0225 103.27 70.1173 105.419 70.2831C107.572 70.4497 109.716 70.6865 111.851 70.9935C113.913 71.254 115.959 71.6289 117.98 72.1165C119.79 72.5049 121.467 73.3617 122.842 74.601C123.453 75.1636 123.938 75.8491 124.266 76.6124C124.593 77.3758 124.756 78.1997 124.742 79.0303Z" fill="#E6E6E6"/>
<path d="M93.2939 75.5264V75.7726C93.2945 76.1772 93.4555 76.5651 93.7417 76.8513C94.0278 77.1374 94.4157 77.2984 94.8204 77.299H115.241C115.646 77.2984 116.034 77.1374 116.32 76.8513C116.606 76.5651 116.767 76.1772 116.768 75.7726V75.5264C116.767 75.1218 116.606 74.7339 116.32 74.4477C116.034 74.1616 115.646 74.0006 115.241 74H94.8204C94.4157 74.0006 94.0278 74.1616 93.7417 74.4477C93.4555 74.7339 93.2945 75.1218 93.2939 75.5264Z" fill="#151027"/>
<path d="M93.2939 79.7134V79.9596C93.2945 80.3642 93.4555 80.7521 93.7417 81.0383C94.0278 81.3244 94.4157 81.4854 94.8204 81.486H115.241C115.646 81.4854 116.034 81.3244 116.32 81.0383C116.606 80.7521 116.767 80.3642 116.768 79.9596V79.7134C116.767 79.3088 116.606 78.9209 116.32 78.6348C116.034 78.3486 115.646 78.1876 115.241 78.187H94.8204C94.4157 78.1876 94.0278 78.3486 93.7417 78.6348C93.4555 78.9209 93.2945 79.3088 93.2939 79.7134Z" fill="#151027"/>
<path d="M223.882 290.798L217.398 290.797L214.313 265.786L223.883 265.787L223.882 290.798Z" fill="#A0616A"/>
<path d="M223.71 288.679L216.791 285.868L216.586 285.785L212.766 288.679C210.669 288.679 208.653 289.488 207.139 290.938C205.625 292.388 204.729 294.367 204.638 296.461C204.627 296.577 204.627 296.697 204.627 296.817V297.084H225.536V288.679H223.71Z" fill="#2F2E41"/>
<path d="M208.696 284.764L202.58 286.916L191.368 264.346L200.396 261.17L208.696 284.764Z" fill="#A0616A"/>
<path d="M207.83 282.822L200.371 282.467L200.15 282.456L197.507 286.454C195.529 287.15 193.896 288.582 192.949 290.453C192.002 292.323 191.813 294.487 192.423 296.493C192.451 296.606 192.491 296.719 192.531 296.833L192.62 297.084L212.343 290.145L209.553 282.216L207.83 282.822Z" fill="#2F2E41"/>
<path d="M226.174 182.954C232.107 182.724 224.758 229.999 224.758 229.999C224.758 229.999 226.907 271.505 226.452 273.684C225.996 275.862 226.394 281.736 226.394 281.736C225.232 279.621 213.241 281.218 213.241 281.218L211.61 239.151L203.281 205.446L191.734 228.039L202.801 262.718C202.801 262.718 207.283 266.865 206.806 268.504C206.33 270.143 194.59 273.839 192.433 273.923C190.276 274.006 191.25 271.268 191.145 268.571C191.041 265.875 180.89 240.883 177.319 232.379C173.749 223.875 176.524 211.885 178.347 203.172C180.17 194.46 189.758 178.109 189.758 178.109C201.661 164.684 220.242 183.184 226.174 182.954Z" fill="#2F2E41"/>
<path d="M223.093 190.532C208.381 190.533 200.274 187.588 195.968 184.958C190.704 181.743 189.803 178.352 189.767 178.209L189.757 178.168L190.269 171.72L190.493 171.218C191.526 168.907 191.663 166.294 190.878 163.887L190.862 163.838L190.866 163.786L194.306 119.172L206.479 115.184L210.021 111.626L225.788 111.397L227.985 115.851L240.416 120.531L234.309 156.882L231.381 161.928L232.56 167.425L232.551 167.475L228.711 190.398L228.499 190.408C226.605 190.492 224.803 190.534 223.093 190.532Z" fill="white"/>
<path d="M229.226 96.3898C228.752 99.8396 226.929 102.961 224.156 105.067C221.383 107.173 217.887 108.092 214.437 107.623C210.986 107.153 207.863 105.333 205.754 102.562C203.645 99.7916 202.722 96.2969 203.187 92.846L203.213 92.6595C203.757 89.2547 205.618 86.2003 208.394 84.1553C211.17 82.1102 214.639 81.2384 218.052 81.7278C221.465 82.2173 224.549 84.0288 226.639 86.7716C228.728 89.5144 229.656 92.9687 229.222 96.3892L229.226 96.3898Z" fill="#A0616A"/>
<path d="M225.881 103.157C226.556 101.787 227.249 100.315 227.06 98.7991C226.87 97.2832 225.383 95.8343 223.924 96.2848C223.051 96.5542 222.391 97.4162 221.478 97.4603C220.223 97.521 219.503 96.0841 219.112 94.8895L217.521 90.0239C215.992 91.215 214.22 92.0541 212.33 92.4811C210.44 92.9082 208.479 92.9128 206.587 92.4946C205.109 92.1568 203.616 91.498 202.75 90.2545C201.883 89.0109 201.888 87.082 203.077 86.1416C203.66 85.6805 204.436 85.5054 204.993 85.0134C205.338 84.7081 205.577 84.2998 205.672 83.8487C205.768 83.3976 205.715 82.9278 205.523 82.5087C205.331 82.0896 205.009 81.7436 204.604 81.5218C204.2 81.3001 203.735 81.2143 203.278 81.2773L207.286 80.7764L206.092 78.6169C206.546 78.9258 207.059 79.1365 207.599 79.2356C208.139 79.3346 208.694 79.3199 209.228 79.1922C210.306 78.9981 211.321 78.5541 212.376 78.2581C214.933 77.6052 217.633 77.8048 220.065 78.8264C222.498 79.8479 224.531 81.6358 225.855 83.9182C226.841 83.5889 227.904 83.567 228.903 83.8554C229.902 84.1438 230.79 84.7289 231.448 85.5332C232.521 86.8948 232.813 88.7118 232.855 90.4447C232.933 93.8616 232.188 97.2471 230.682 100.316C230.251 101.29 229.631 102.17 228.858 102.904C228.468 103.268 228.004 103.542 227.498 103.708C226.992 103.874 226.455 103.926 225.926 103.863" fill="#2F2E41"/>
<path d="M77.3186 221.074C77.2567 221.074 77.1949 221.073 77.1324 221.07C76.4038 221.044 75.6924 220.842 75.0587 220.482C74.425 220.121 73.8877 219.613 73.4925 219C70.5329 214.577 66.9009 210.643 62.7276 207.339C60.2013 205.32 57.5613 203.443 55.0084 201.627C48.4222 196.944 42.2197 192.533 38.7767 186.439C31.2699 173.15 40.1102 154.64 52.7396 146.339C66.9051 137.029 85.5376 135.569 103.563 135.377C105.436 135.357 107.31 135.348 109.186 135.348C141.663 135.36 174.071 138.323 206.012 144.201C216.633 146.161 227.75 148.561 236.684 154.387C245.565 160.178 250.963 169.297 250.437 177.621C249.668 189.771 236.787 198.85 225.059 201.224C213.879 203.484 202.266 201.957 189.971 200.339C187.256 199.982 184.45 199.613 181.675 199.292C151.513 195.805 94.8513 206.551 92.4542 207.01L90.0759 207.466L80.8482 219.34C80.4332 219.882 79.8987 220.32 79.2864 220.621C78.6742 220.921 78.0007 221.076 77.3186 221.074Z" fill="#6C63FF"/>
<path d="M211.634 161.8H84.1493C83.4136 161.8 82.7081 161.507 82.1879 160.987C81.6677 160.467 81.3755 159.761 81.3755 159.026C81.3755 158.29 81.6677 157.585 82.1879 157.064C82.7081 156.544 83.4136 156.252 84.1493 156.252H211.634C212.369 156.252 213.075 156.544 213.595 157.064C214.115 157.585 214.408 158.29 214.408 159.026C214.408 159.761 214.115 160.467 213.595 160.987C213.075 161.507 212.369 161.8 211.634 161.8Z" fill="#151027"/>
<path d="M211.634 178.825H84.1493C83.7848 178.826 83.4238 178.755 83.0868 178.616C82.7499 178.477 82.4436 178.273 82.1855 178.016C81.9274 177.759 81.7225 177.453 81.5826 177.116C81.4427 176.78 81.3705 176.419 81.3701 176.055C81.3697 175.69 81.4412 175.329 81.5804 174.992C81.7196 174.655 81.9238 174.349 82.1814 174.091C82.4389 173.834 82.7448 173.629 83.0815 173.489C83.4181 173.35 83.779 173.278 84.1435 173.278H211.634C212.369 173.279 213.073 173.572 213.593 174.092C214.112 174.612 214.404 175.317 214.404 176.052C214.404 176.787 214.112 177.492 213.593 178.012C213.073 178.532 212.369 178.824 211.634 178.825Z" fill="#151027"/>
<path d="M99.0053 195.851H84.1489C83.4139 195.85 82.7094 195.557 82.19 195.037C81.6706 194.517 81.3789 193.812 81.3789 193.077C81.3789 192.342 81.6706 191.637 82.19 191.117C82.7094 190.597 83.4139 190.304 84.1489 190.303H99.0053C99.7403 190.304 100.445 190.597 100.964 191.117C101.484 191.637 101.775 192.342 101.775 193.077C101.775 193.812 101.484 194.517 100.964 195.037C100.445 195.557 99.7403 195.85 99.0053 195.851Z" fill="#151027"/>
<path d="M222.124 205.439C222.891 205.141 223.584 204.678 224.152 204.083C224.721 203.488 225.153 202.776 225.416 201.997C225.68 201.217 225.77 200.39 225.679 199.572C225.588 198.754 225.319 197.966 224.891 197.263L238.767 147.91L226.593 146.638L216.781 195.55C215.649 196.348 214.848 197.534 214.531 198.882C214.214 200.231 214.402 201.649 215.061 202.868C215.719 204.087 216.802 205.022 218.104 205.496C219.406 205.969 220.837 205.949 222.124 205.439Z" fill="#A0616A"/>
<path d="M240.82 120.818C240.82 120.818 243.792 120.925 242.323 127.052C241.147 131.956 236.828 162.724 233.452 168.858C234.181 169.515 234.671 170.396 234.844 171.362C235.018 172.328 234.865 173.325 234.41 174.194L220.955 168.645C219.838 165.542 220.703 162.726 221.974 162.476L223.546 153.503L225.863 123.401L238.673 120.703L240.82 120.818Z" fill="white"/>
<path d="M167.721 201.432C167.227 200.774 166.884 200.016 166.714 199.21C166.545 198.405 166.555 197.572 166.742 196.771C166.93 195.97 167.291 195.22 167.799 194.573C168.308 193.926 168.953 193.399 169.687 193.028L183.955 143.787L194.967 149.133L177.479 195.855C178.02 197.13 178.075 198.56 177.632 199.872C177.189 201.185 176.28 202.29 175.078 202.978C173.875 203.665 172.462 203.888 171.106 203.603C169.75 203.318 168.546 202.546 167.721 201.432Z" fill="#A0616A"/>
<path d="M196.513 119.694C196.513 119.694 193.933 118.216 191.947 124.194C190.356 128.98 177.782 157.391 177.411 164.384C176.445 164.557 175.564 165.047 174.907 165.775C174.249 166.504 173.853 167.431 173.781 168.41L188.138 170.799C190.724 168.754 191.476 165.905 190.529 165.022L193.93 156.572L207.853 129.783L198.397 120.729L196.513 119.694Z" fill="white"/>
<path d="M302.577 298.273L-89.2966 298.434C-89.4616 298.433 -89.6196 298.367 -89.7361 298.25C-89.8526 298.134 -89.918 297.975 -89.918 297.81C-89.918 297.645 -89.8526 297.487 -89.7361 297.37C-89.6196 297.254 -89.4616 297.188 -89.2966 297.187L302.577 297.026C302.742 297.027 302.9 297.093 303.016 297.21C303.133 297.326 303.198 297.485 303.198 297.65C303.198 297.814 303.133 297.973 303.016 298.09C302.9 298.206 302.742 298.272 302.577 298.273Z" fill="#CACACA"/>
<path d="M78.5468 270.615C74.5395 270.615 70.6223 269.427 67.2903 267.201C63.9584 264.974 61.3615 261.81 59.8279 258.108C58.2944 254.405 57.8932 250.331 58.675 246.401C59.4568 242.471 61.3864 238.861 64.22 236.027C67.0536 233.194 70.6638 231.264 74.5941 230.482C78.5244 229.7 82.5982 230.102 86.3005 231.635C90.0027 233.169 93.1671 235.766 95.3934 239.097C97.6197 242.429 98.808 246.347 98.808 250.354C98.8019 255.726 96.6654 260.876 92.867 264.674C89.0686 268.472 83.9186 270.609 78.5468 270.615ZM78.5468 231.14C74.7466 231.14 71.0317 232.266 67.8719 234.378C64.7121 236.489 62.2493 239.49 60.795 243.001C59.3407 246.512 58.9602 250.375 59.7016 254.103C60.443 257.83 62.273 261.253 64.9602 263.941C67.6474 266.628 71.071 268.458 74.7983 269.199C78.5255 269.941 82.3889 269.56 85.8999 268.106C89.4109 266.652 92.4118 264.189 94.5231 261.029C96.6344 257.869 97.7613 254.154 97.7613 250.354C97.7555 245.26 95.7293 240.376 92.1271 236.774C88.525 233.172 83.641 231.145 78.5468 231.14Z" fill="#151027"/>
<path d="M77.069 258.243C77.027 258.243 76.9849 258.241 76.9428 258.239C76.5711 258.221 76.2076 258.123 75.8773 257.952C75.5471 257.78 75.2579 257.539 75.0295 257.245L71.7309 253.005C71.5226 252.737 71.3691 252.431 71.2791 252.104C71.1891 251.777 71.1644 251.435 71.2064 251.099C71.2485 250.762 71.3564 250.437 71.524 250.142C71.6917 249.848 71.9158 249.589 72.1835 249.38L72.3022 249.288C72.5699 249.08 72.8761 248.926 73.2032 248.836C73.5302 248.746 73.8719 248.721 74.2085 248.763C74.5452 248.805 74.8702 248.913 75.1651 249.081C75.46 249.249 75.7189 249.473 75.9271 249.741C76.0937 249.955 76.3045 250.13 76.5452 250.255C76.7858 250.38 77.0506 250.452 77.3214 250.465C77.5923 250.478 77.8627 250.433 78.1144 250.332C78.366 250.231 78.5929 250.077 78.7795 249.88L85.4769 242.809C85.9483 242.313 86.5975 242.023 87.282 242.005C87.9664 241.986 88.6304 242.24 89.1281 242.71L89.2379 242.815C89.4842 243.048 89.6821 243.327 89.8203 243.637C89.9585 243.947 90.0344 244.281 90.0436 244.62C90.0527 244.959 89.995 245.296 89.8736 245.613C89.7523 245.93 89.5698 246.22 89.3364 246.466L78.9431 257.436C78.702 257.691 78.4114 257.894 78.0892 258.033C77.767 258.171 77.4199 258.243 77.069 258.243Z" fill="#6C63FF"/>
</g>
<defs>
<clipPath id="clip0_101_1851">
<rect width="261.24" height="298.2" fill="white" transform="translate(0.799805 0.320312)"/>
</clipPath>
</defs>
</svg>
