<svg width="74" height="87" viewBox="0 0 74 87" fill="none" xmlns="http://www.w3.org/2000/svg">
<path d="M72.1289 17.2461L56.5039 1.6211C56.0683 1.18593 55.5511 0.840868 54.9821 0.605612C54.4131 0.370355 53.8033 0.249517 53.1875 0.250001H21.9375C19.8655 0.250001 17.8784 1.0731 16.4132 2.53823C14.9481 4.00336 14.125 5.9905 14.125 8.0625V15.875H7.875C5.803 15.875 3.81586 16.6981 2.35073 18.1632C0.8856 19.6284 0.0625 21.6155 0.0625 23.6875V78.375C0.0625 80.447 0.8856 82.4341 2.35073 83.8993C3.81586 85.3644 5.803 86.1875 7.875 86.1875H50.0625C52.1345 86.1875 54.1216 85.3644 55.5868 83.8993C57.0519 82.4341 57.875 80.447 57.875 78.375V70.5625H65.6875C67.7595 70.5625 69.7466 69.7394 71.2118 68.2743C72.6769 66.8091 73.5 64.822 73.5 62.75V20.5625C73.5005 19.9467 73.3796 19.3369 73.1444 18.7679C72.9091 18.1989 72.5641 17.6817 72.1289 17.2461ZM48.5 76.8125H9.4375V25.25H35.6094L48.5 38.1406V76.8125ZM64.125 61.1875H57.875V36.1875C57.8755 35.5717 57.7546 34.9619 57.5194 34.3929C57.2841 33.8239 56.9391 33.3067 56.5039 32.8711L40.8789 17.2461C40.4433 16.8109 39.9261 16.4659 39.3571 16.2306C38.7881 15.9954 38.1783 15.8745 37.5625 15.875H23.5V9.625H51.2344L64.125 22.5156V61.1875ZM42.25 50.25C42.25 51.4932 41.7561 52.6855 40.8771 53.5646C39.998 54.4436 38.8057 54.9375 37.5625 54.9375H20.375C19.1318 54.9375 17.9395 54.4436 17.0604 53.5646C16.1814 52.6855 15.6875 51.4932 15.6875 50.25C15.6875 49.0068 16.1814 47.8145 17.0604 46.9354C17.9395 46.0564 19.1318 45.5625 20.375 45.5625H37.5625C38.8057 45.5625 39.998 46.0564 40.8771 46.9354C41.7561 47.8145 42.25 49.0068 42.25 50.25ZM42.25 65.875C42.25 67.1182 41.7561 68.3105 40.8771 69.1896C39.998 70.0686 38.8057 70.5625 37.5625 70.5625H20.375C19.1318 70.5625 17.9395 70.0686 17.0604 69.1896C16.1814 68.3105 15.6875 67.1182 15.6875 65.875C15.6875 64.6318 16.1814 63.4395 17.0604 62.5604C17.9395 61.6814 19.1318 61.1875 20.375 61.1875H37.5625C38.8057 61.1875 39.998 61.6814 40.8771 62.5604C41.7561 63.4395 42.25 64.6318 42.25 65.875Z" fill="#E6E6E6"/>
</svg>
