<svg width="27" height="31" viewBox="0 0 27 31" fill="none" xmlns="http://www.w3.org/2000/svg">
<path d="M26.1451 6.13613L20.6764 0.667383C20.5239 0.515077 20.3429 0.394304 20.1437 0.311964C19.9446 0.229624 19.7311 0.187331 19.5156 0.187501H8.57812C7.85292 0.187501 7.15742 0.475586 6.64463 0.98838C6.13183 1.50118 5.84375 2.19667 5.84375 2.92188V5.65625H3.65625C2.93105 5.65625 2.23555 5.94434 1.72275 6.45713C1.20996 6.96993 0.921875 7.66542 0.921875 8.39063V27.5312C0.921875 28.2565 1.20996 28.952 1.72275 29.4647C2.23555 29.9775 2.93105 30.2656 3.65625 30.2656H18.4219C19.1471 30.2656 19.8426 29.9775 20.3554 29.4647C20.8682 28.952 21.1562 28.2565 21.1562 27.5312V24.7969H23.8906C24.6158 24.7969 25.3113 24.5088 25.8241 23.996C26.3369 23.4832 26.625 22.7877 26.625 22.0625V7.29688C26.6252 7.08136 26.5829 6.86793 26.5005 6.66876C26.4182 6.4696 26.2974 6.28861 26.1451 6.13613ZM17.875 26.9844H4.20312V8.9375H13.3633L17.875 13.4492V26.9844ZM23.3438 21.5156H21.1562V12.7656C21.1564 12.5501 21.1141 12.3367 21.0318 12.1375C20.9494 11.9383 20.8287 11.7574 20.6764 11.6049L15.2076 6.13613C15.0551 5.98383 14.8742 5.86305 14.675 5.78071C14.4758 5.69837 14.2624 5.65608 14.0469 5.65625H9.125V3.46875H18.832L23.3438 7.98047V21.5156ZM15.6875 17.6875C15.6875 18.1226 15.5146 18.5399 15.207 18.8476C14.8993 19.1553 14.482 19.3281 14.0469 19.3281H8.03125C7.59613 19.3281 7.17883 19.1553 6.87115 18.8476C6.56348 18.5399 6.39062 18.1226 6.39062 17.6875C6.39062 17.2524 6.56348 16.8351 6.87115 16.5274C7.17883 16.2197 7.59613 16.0469 8.03125 16.0469H14.0469C14.482 16.0469 14.8993 16.2197 15.207 16.5274C15.5146 16.8351 15.6875 17.2524 15.6875 17.6875ZM15.6875 23.1562C15.6875 23.5914 15.5146 24.0087 15.207 24.3163C14.8993 24.624 14.482 24.7969 14.0469 24.7969H8.03125C7.59613 24.7969 7.17883 24.624 6.87115 24.3163C6.56348 24.0087 6.39062 23.5914 6.39062 23.1562C6.39062 22.7211 6.56348 22.3038 6.87115 21.9962C7.17883 21.6885 7.59613 21.5156 8.03125 21.5156H14.0469C14.482 21.5156 14.8993 21.6885 15.207 21.9962C15.5146 22.3038 15.6875 22.7211 15.6875 23.1562Z" fill="#322662" fill-opacity="0.6"/>
</svg>
