<svg width="81" height="74" viewBox="0 0 81 74" fill="none" xmlns="http://www.w3.org/2000/svg">
<path d="M31.2692 0C14.4908 0 0.5 11.5385 0.5 26.1538C0.5 33.6308 4.59231 40.1477 10.4046 44.9046C10.0263 47.4313 8.999 49.8167 7.42308 51.8277C6.77967 52.653 6.1064 53.4545 5.40462 54.2308C5.04163 54.6131 4.71891 55.0317 4.44154 55.48C4.26615 55.7662 3.99231 56.0862 3.86615 56.7323C3.74 57.3785 3.91231 58.4338 4.44154 59.2308L4.82615 59.9046L5.59538 60.2892C8.28769 61.6338 11.1954 61.3969 13.8662 60.6738C16.5338 59.9477 19.1 58.7046 21.5585 57.4031C24.0169 56.1015 26.3492 54.7446 28.1923 53.7508C28.4508 53.6123 28.6169 53.5785 28.8662 53.4615C33.7185 60.1323 42.6046 64.6154 52.5185 64.6154C52.6138 64.6277 52.7031 64.6154 52.8077 64.6154C56.8077 64.6154 69.7308 77.8277 77.4231 72.5969C77.7308 71.3692 70.66 68.2892 70.3062 59.1354C76.3277 54.88 80.2138 48.5508 80.2138 41.5385C80.2138 31.1631 71.98 22.5908 60.9831 19.52C57.5031 8.19692 45.4046 0 31.2692 0ZM31.2692 6.15385C45.26 6.15385 55.8846 15.5385 55.8846 26.1538C55.8846 36.7692 45.26 46.1538 31.2692 46.1538C28.7708 46.1538 27.3369 47.1754 25.3062 48.2708C23.2754 49.3661 20.9462 50.72 18.6723 51.9231C16.7031 52.9631 14.8262 53.7631 13.0969 54.3262C14.78 51.8954 16.5369 48.6985 16.8446 44.2308L16.9431 42.4985L15.5 41.4431C10.0169 37.6 6.65385 32.0708 6.65385 26.1538C6.65385 15.5385 17.2785 6.15385 31.2692 6.15385Z" fill="white"/>
</svg>
