<svg width="101" height="100" viewBox="0 0 101 100" fill="none" xmlns="http://www.w3.org/2000/svg">
<g clip-path="url(#clip0_178_757)">
<path d="M83.2093 1.72294C83.3367 1.72166 83.4641 1.72038 83.5954 1.71906C84.0169 1.71521 84.4383 1.71292 84.8597 1.71098C85.004 1.71018 85.1483 1.70938 85.2969 1.70856C86.0609 1.70449 86.8248 1.7017 87.5888 1.69987C88.3758 1.69771 89.1627 1.69099 89.9496 1.68323C90.5565 1.67811 91.1634 1.67649 91.7703 1.67579C92.0603 1.67484 92.3503 1.67258 92.6403 1.66894C94.4878 1.64724 95.6211 1.71604 97.0655 2.93778C97.2031 3.076 97.3407 3.21423 97.4826 3.35664C97.635 3.50921 97.7874 3.66178 97.9445 3.81898C98.099 3.97659 98.2534 4.13419 98.4126 4.29658C98.6499 4.53299 98.6499 4.53299 98.8921 4.77418C100.547 6.44468 100.547 6.44468 100.551 7.64967C100.552 7.81038 100.554 7.9711 100.555 8.13668C100.555 8.31132 100.554 8.48596 100.554 8.66588C100.555 8.85112 100.556 9.03635 100.557 9.2272C100.559 9.83968 100.559 10.4521 100.559 11.0646C100.559 11.4903 100.56 11.916 100.561 12.3417C100.563 13.234 100.563 14.1263 100.562 15.0187C100.56 16.1624 100.564 17.306 100.568 18.4497C100.571 19.3288 100.571 20.208 100.571 21.0871C100.571 21.5088 100.572 21.9305 100.574 22.3521C100.576 22.9417 100.575 23.5312 100.573 24.1207C100.574 24.295 100.576 24.4692 100.577 24.6488C100.569 25.5666 100.549 26.2346 99.914 26.9528C98.9998 27.568 98.1572 27.623 97.0858 27.6146C96.8426 27.6161 96.8426 27.6161 96.5946 27.6177C96.0612 27.6203 95.528 27.6186 94.9946 27.6166C94.6225 27.617 94.2504 27.6175 93.8783 27.6183C93.0994 27.6191 92.3206 27.6179 91.5417 27.6152C90.5448 27.6118 89.5479 27.6137 88.5509 27.6172C87.7829 27.6194 87.0148 27.6187 86.2467 27.6172C85.8792 27.6168 85.5116 27.6173 85.1441 27.6186C84.6299 27.6201 84.1158 27.6178 83.6016 27.6146C83.4506 27.6158 83.2996 27.617 83.144 27.6182C82.2091 27.6072 81.5678 27.4476 80.7734 26.9528C80.0773 26.1402 80.0863 25.3258 80.0898 24.3039C80.0843 24.1565 80.0787 24.0091 80.073 23.8572C80.0703 23.0901 80.1121 22.7364 80.6445 22.1684C81.2789 21.8098 81.6182 21.7525 82.3359 21.8747C82.7876 22.1555 82.7876 22.1555 83.1172 22.656C83.1816 23.236 83.2461 23.8161 83.3125 24.4138C88.0176 24.4138 92.7226 24.4138 97.5703 24.4138C97.6208 21.5693 97.6208 21.5693 97.6439 18.7249C97.6473 17.5623 97.6537 16.4004 97.6794 15.238C97.7 14.2994 97.7059 13.3617 97.7022 12.4228C97.7033 12.0671 97.7094 11.7112 97.7209 11.3556C97.777 9.52561 97.6687 8.14673 96.4421 6.71309C95.2448 5.48575 94.1849 4.74543 92.416 4.71613C92.0734 4.7324 92.0734 4.7324 91.7239 4.749C91.3595 4.74872 91.3594 4.74872 90.9876 4.74843C90.2228 4.75093 89.4602 4.7736 88.6958 4.79707C88.1728 4.80401 87.6499 4.80631 87.1268 4.80889C85.8548 4.81805 84.5839 4.8437 83.3125 4.88252C83.3133 5.02961 83.3142 5.1767 83.3151 5.32825C83.3229 6.7162 83.3289 8.10415 83.3327 9.49212C83.3347 10.2056 83.3375 10.9192 83.3419 11.6327C83.3462 12.3216 83.3485 13.0105 83.3495 13.6994C83.3506 14.0894 83.3537 14.4794 83.3567 14.8694C83.3568 15.1079 83.3568 15.3464 83.3568 15.592C83.3577 15.8015 83.3586 16.011 83.3595 16.2268C83.3105 16.8205 83.1857 17.2412 82.9219 17.7731C82.4024 18.1964 82.1233 18.1629 81.4448 18.1271C80.7734 17.9685 80.7734 17.9685 80.395 17.7487C80.078 17.1894 80.1751 16.6462 80.1875 16.0153C77.578 16.0273 74.9685 16.0423 72.3591 16.0614C71.1475 16.0701 69.9359 16.0778 68.7242 16.083C67.5553 16.0881 66.3865 16.0959 65.2176 16.1058C64.7712 16.1091 64.3249 16.1113 63.8785 16.1125C63.2542 16.1144 62.63 16.1199 62.0057 16.1262C61.8204 16.1259 61.6351 16.1256 61.4442 16.1253C60.745 16.1354 60.2089 16.1493 59.5654 16.4341C59.1663 16.9576 59.1876 17.3381 59.1824 17.9926C59.1786 18.2389 59.1747 18.4852 59.1707 18.739C59.1704 19.0078 59.1702 19.2766 59.17 19.5454C59.1671 19.8205 59.1638 20.0955 59.1602 20.3706C59.1517 21.094 59.1478 21.8173 59.1449 22.5408C59.141 23.2792 59.1328 24.0176 59.125 24.7559C59.1103 26.2044 59.1005 27.6528 59.0937 29.1013C59.2282 29.1 59.3626 29.0987 59.5011 29.0973C60.9015 29.0843 62.3019 29.0755 63.7024 29.0691C64.2249 29.0665 64.7473 29.0621 65.2698 29.0571C66.0213 29.0499 66.7727 29.0466 67.5242 29.044C67.874 29.0395 67.874 29.0395 68.2309 29.0349C69.5642 29.0346 70.5436 29.0788 71.567 30.0229C71.6604 30.1377 71.7538 30.2525 71.8501 30.3708C71.946 30.4856 72.0419 30.6004 72.1408 30.7187C72.6589 31.4613 72.5988 32.2312 72.5977 33.0969C72.5986 33.3213 72.5986 33.3213 72.5995 33.5503C72.6012 34.0532 72.6015 34.556 72.6018 35.0589C72.6027 35.4189 72.6036 35.7788 72.6047 36.1387C72.6073 37.1177 72.6085 38.0967 72.6094 39.0757C72.61 39.6872 72.6108 40.2986 72.6116 40.9101C72.6143 42.8227 72.6162 44.7352 72.617 46.6478C72.6178 48.8566 72.6213 51.0653 72.6269 53.2741C72.6311 54.9808 72.6331 56.6874 72.6334 58.3941C72.6336 59.4137 72.6347 60.4333 72.6382 61.4529C72.6414 62.4121 72.6419 63.3712 72.6401 64.3303C72.64 64.6823 72.6408 65.0342 72.6428 65.3861C72.6452 65.8668 72.6441 66.3474 72.6421 66.8281C72.6444 67.0367 72.6444 67.0367 72.6468 67.2495C72.6363 68.3153 72.3755 69.1069 71.6487 69.8949C71.5339 69.9883 71.419 70.0817 71.3008 70.1779C71.186 70.2738 71.0711 70.3698 70.9529 70.4686C70.3036 70.9216 69.7262 70.922 68.9607 70.9203C68.7418 70.9203 68.5228 70.9203 68.2972 70.9203C68.061 70.9193 67.8248 70.9183 67.5814 70.9172C67.2185 70.9168 67.2185 70.9168 66.8483 70.9164C66.2058 70.9155 65.5633 70.9137 64.9208 70.9116C64.2649 70.9096 63.609 70.9087 62.9531 70.9077C61.6666 70.9055 60.3802 70.9023 59.0937 70.8981C59.1012 72.4924 59.1127 74.0866 59.1296 75.6808C59.1374 76.421 59.1437 77.1612 59.1467 77.9015C59.1496 78.6158 59.1563 79.33 59.1657 80.0442C59.1686 80.3168 59.1701 80.5895 59.1703 80.8621C59.1707 81.2437 59.1765 81.6252 59.1824 82.0068C59.1842 82.2241 59.1859 82.4414 59.1877 82.6652C59.2478 83.205 59.2478 83.205 59.5654 83.5653C60.3632 83.9184 61.1425 83.8745 62.0057 83.8732C62.202 83.8752 62.3983 83.8772 62.6006 83.8792C63.2495 83.8851 63.8983 83.8869 64.5472 83.8887C64.9971 83.892 65.4471 83.8955 65.897 83.8993C67.0811 83.9086 68.2653 83.9144 69.4495 83.9195C70.6579 83.9254 71.8662 83.9344 73.0746 83.9433C75.4455 83.9601 77.8165 83.9732 80.1875 83.9841C80.1855 83.8001 80.1855 83.8001 80.1835 83.6125C80.1706 82.3357 80.1617 81.0588 80.1553 79.782C80.1523 79.3055 80.1483 78.829 80.1433 78.3526C80.1362 77.6675 80.1328 76.9825 80.1303 76.2975C80.1272 76.0846 80.1242 75.8718 80.1211 75.6525C80.1207 73.7355 80.1207 73.7355 80.7734 73.0466C81.6175 72.5003 82.2806 72.3863 83.2758 72.3817C83.4671 72.3797 83.4671 72.3797 83.6622 72.3777C84.0805 72.3741 84.4986 72.3748 84.9169 72.376C85.2098 72.3751 85.5026 72.374 85.7954 72.3728C86.4079 72.3711 87.0204 72.3716 87.633 72.3735C88.4154 72.3758 89.1976 72.3718 89.98 72.3661C90.5844 72.3625 91.1888 72.3626 91.7932 72.3637C92.0815 72.3637 92.3698 72.3626 92.6582 72.3601C94.4961 72.3468 95.6288 72.4257 97.0655 73.6409C97.2031 73.7791 97.3407 73.9174 97.4826 74.0598C97.635 74.2123 97.7874 74.3649 97.9445 74.5221C98.099 74.6797 98.2534 74.8373 98.4126 74.9997C98.6499 75.2361 98.6499 75.2361 98.8921 75.4773C100.547 77.1478 100.547 77.1478 100.551 78.3528C100.552 78.5135 100.554 78.6742 100.555 78.8398C100.555 79.0144 100.554 79.1891 100.554 79.369C100.555 79.5542 100.556 79.7395 100.557 79.9303C100.559 80.5428 100.559 81.1553 100.559 81.7677C100.559 82.1934 100.56 82.6191 100.561 83.0448C100.563 83.9371 100.563 84.8295 100.562 85.7218C100.56 86.8655 100.564 88.0091 100.568 89.1528C100.571 90.0319 100.571 90.9111 100.571 91.7902C100.571 92.2119 100.572 92.6336 100.574 93.0553C100.576 93.6448 100.575 94.2343 100.573 94.8239C100.574 94.9981 100.576 95.1724 100.577 95.3519C100.569 96.2697 100.549 96.9377 99.914 97.656C98.9991 98.2719 98.155 98.3261 97.0827 98.3177C96.8391 98.3192 96.8391 98.3192 96.5905 98.3208C96.0562 98.3234 95.522 98.3217 94.9877 98.3197C94.6152 98.3201 94.2426 98.3207 93.87 98.3214C93.0903 98.3223 92.3107 98.321 91.531 98.3183C90.5323 98.3149 89.5336 98.3169 88.5349 98.3204C87.766 98.3225 86.9971 98.3218 86.2282 98.3203C85.8599 98.3199 85.4917 98.3204 85.1234 98.3217C84.6087 98.3232 84.0942 98.321 83.5795 98.3177C83.4277 98.3189 83.276 98.3201 83.1197 98.3213C81.9459 98.3075 81.3871 98.0193 80.5218 97.2679C80.0086 96.3645 80.091 95.5113 80.1112 94.4905C80.1123 94.2795 80.1134 94.0684 80.1145 93.851C80.1189 93.1783 80.1287 92.5058 80.1386 91.8332C80.1426 91.3766 80.1461 90.92 80.1493 90.4633C80.1579 89.3452 80.171 88.2271 80.1875 87.1091C79.934 87.1104 79.6806 87.1117 79.4194 87.113C77.0286 87.1249 74.6377 87.1337 72.2468 87.1394C71.0176 87.1425 69.7885 87.1466 68.5594 87.1533C67.3728 87.1597 66.1862 87.1632 64.9996 87.1647C64.5473 87.1657 64.0951 87.1679 63.6428 87.171C63.0084 87.1753 62.3741 87.1759 61.7396 87.1756C61.4604 87.1788 61.4604 87.1788 61.1755 87.182C59.6905 87.1751 58.4218 86.9047 57.2749 85.8884C57.1508 85.7826 57.0266 85.6769 56.8988 85.5679C55.7267 84.1646 55.8921 82.5632 55.9115 80.8354C55.9126 80.5484 55.9134 80.2613 55.914 79.9743C55.9162 79.2226 55.922 78.4709 55.9285 77.7193C55.9345 76.9507 55.9372 76.1822 55.9401 75.4136C55.9464 73.9084 55.9564 72.4033 55.9687 70.8981C55.7804 70.9072 55.5921 70.9163 55.398 70.9256C55.1513 70.9327 54.9046 70.9397 54.6504 70.947C54.4056 70.956 54.1609 70.9651 53.9088 70.9744C53.2344 70.8981 53.2344 70.8981 52.7621 70.5289C52.4299 70.0859 52.3422 69.8825 52.3432 69.3356C52.3368 69.1423 52.3368 69.1423 52.3303 68.945C52.5267 68.3204 52.8864 68.1234 53.4297 67.7731C53.9764 67.696 54.4467 67.6628 54.9928 67.6665C55.1497 67.6645 55.3066 67.6625 55.4683 67.6604C55.9742 67.6547 56.4799 67.6543 56.9857 67.6541C57.2989 67.6514 57.612 67.6483 57.9252 67.6449C59.0837 67.6346 60.2423 67.631 61.4009 67.6267C63.9911 67.6105 66.5813 67.5944 69.25 67.5778C69.3144 58.7477 69.3789 49.9177 69.4453 40.82C56.9414 40.82 44.4375 40.82 31.5547 40.82C31.6191 49.6501 31.6836 58.4802 31.75 67.5778C36.9125 67.6111 36.9125 67.6111 42.075 67.636C43.0748 67.6449 43.0748 67.6449 43.5432 67.65C43.8695 67.6529 44.1958 67.6542 44.5221 67.6543C45.0172 67.6548 45.5121 67.6601 46.0072 67.6665C46.2242 67.665 46.2242 67.665 46.4456 67.6635C47.3912 67.6827 47.8859 67.8766 48.5469 68.5544C48.6697 68.945 48.6697 68.945 48.6567 69.3356C48.6571 69.529 48.6571 69.529 48.6575 69.7263C48.4934 70.3057 48.2389 70.528 47.7656 70.8981C47.0912 70.9744 47.0912 70.9744 46.3496 70.947C46.1029 70.9399 45.8561 70.9329 45.6019 70.9256C45.4136 70.9165 45.2253 70.9075 45.0312 70.8981C45.033 71.0562 45.0347 71.2142 45.0365 71.377C45.0522 72.8711 45.0641 74.3652 45.0717 75.8594C45.0758 76.6274 45.0813 77.3954 45.0902 78.1634C45.0987 78.9055 45.1033 79.6476 45.1053 80.3897C45.1068 80.6719 45.1096 80.9541 45.1138 81.2363C45.1397 83.0298 45.0848 84.3632 43.88 85.7892C43.7563 85.8944 43.6327 85.9997 43.5053 86.1081C43.3832 86.2164 43.2611 86.3246 43.1353 86.4362C41.9333 87.1939 40.6573 87.1638 39.2825 87.1534C39.0823 87.1535 38.8821 87.1535 38.6758 87.1536C38.0174 87.1533 37.3591 87.1503 36.7007 87.1472C36.2429 87.1465 35.785 87.1459 35.3272 87.1455C34.1247 87.1441 32.9222 87.1402 31.7198 87.1359C30.4917 87.1319 29.2637 87.1301 28.0356 87.1282C25.6279 87.124 23.2202 87.1173 20.8125 87.1091C20.8144 87.2857 20.8144 87.2857 20.8164 87.4658C20.8294 88.692 20.8382 89.9181 20.8447 91.1443C20.8476 91.6018 20.8516 92.0593 20.8567 92.5168C20.8638 93.1747 20.8671 93.8326 20.8697 94.4905C20.8727 94.6948 20.8757 94.8991 20.8789 95.1096C20.8793 96.9574 20.8793 96.9574 20.2265 97.656C19.3123 98.2711 18.4697 98.3261 17.3983 98.3177C17.1551 98.3192 17.1551 98.3192 16.9071 98.3208C16.3737 98.3234 15.8405 98.3217 15.3071 98.3197C14.935 98.3201 14.5629 98.3207 14.1908 98.3214C13.4119 98.3223 12.6331 98.321 11.8542 98.3183C10.8573 98.3149 9.8604 98.3169 8.86344 98.3204C8.09536 98.3225 7.3273 98.3218 6.55921 98.3203C6.19167 98.3199 5.82413 98.3204 5.45659 98.3217C4.94238 98.3232 4.42833 98.321 3.91413 98.3177C3.76312 98.3189 3.61211 98.3201 3.45653 98.3213C2.52165 98.3104 1.86536 98.1804 1.08591 97.656C0.264516 96.7721 0.417646 95.64 0.42416 94.5042C0.423133 94.2847 0.422107 94.0651 0.421049 93.8389C0.41847 93.1134 0.420177 92.3879 0.422157 91.6623C0.421763 91.1581 0.421194 90.6539 0.420459 90.1496C0.419595 89.0929 0.420795 88.0363 0.423588 86.9796C0.426777 85.759 0.425741 84.5386 0.422515 83.3181C0.419533 82.1424 0.419853 80.9669 0.421567 79.7913C0.421958 79.2916 0.421482 78.792 0.420119 78.2924C0.418632 77.5943 0.420896 76.8963 0.42416 76.1983C0.422974 75.9915 0.421788 75.7847 0.420566 75.5716C0.436399 73.7455 0.436399 73.7455 1.08591 73.0466C1.92999 72.5003 2.59311 72.3863 3.58831 72.3817C3.77958 72.3797 3.77958 72.3797 3.97472 72.3777C4.393 72.3741 4.81114 72.3748 5.22944 72.376C5.52226 72.3751 5.81508 72.374 6.1079 72.3728C6.72044 72.3711 7.33292 72.3716 7.94546 72.3735C8.72787 72.3758 9.5101 72.3718 10.2925 72.3661C10.8969 72.3625 11.5013 72.3626 12.1057 72.3637C12.394 72.3637 12.6823 72.3626 12.9707 72.3601C14.8086 72.3468 15.9413 72.4257 17.378 73.6409C17.5156 73.7791 17.6532 73.9174 17.7951 74.0598C17.9475 74.2123 18.0999 74.3649 18.257 74.5221C18.4115 74.6797 18.5659 74.8373 18.7251 74.9997C18.8833 75.1573 19.0415 75.3149 19.2046 75.4773C20.8571 77.1449 20.8571 77.1449 20.8567 78.61C20.8547 78.7469 20.8527 78.8839 20.8506 79.025C20.8501 79.1669 20.8495 79.3089 20.8489 79.4551C20.8468 79.9069 20.8419 80.3585 20.8369 80.8102C20.8349 81.1172 20.8331 81.4242 20.8316 81.7311C20.8273 82.4821 20.8205 83.2331 20.8125 83.9841C23.422 83.9721 26.0314 83.9571 28.6409 83.938C29.8525 83.9293 31.0641 83.9216 32.2757 83.9164C33.4446 83.9113 34.6135 83.9035 35.7823 83.8936C36.2287 83.8903 36.6751 83.8881 37.1214 83.8869C37.7458 83.885 38.37 83.8795 38.9943 83.8732C39.2722 83.8736 39.2722 83.8736 39.5558 83.8741C40.2549 83.864 40.7911 83.8501 41.4346 83.5653C41.8336 83.0418 41.8123 82.6613 41.8175 82.0068C41.8214 81.7605 41.8252 81.5142 41.8292 81.2604C41.8295 80.9916 41.8298 80.7228 41.8299 80.454C41.8329 80.1789 41.8361 79.9039 41.8397 79.6288C41.8483 78.9054 41.8522 78.1821 41.8551 77.4586C41.8589 76.7202 41.8671 75.9818 41.8749 75.2435C41.8897 73.795 41.8995 72.3466 41.9062 70.8981C41.7718 70.8994 41.6374 70.9007 41.4989 70.9021C40.0985 70.9151 38.6981 70.9239 37.2976 70.9303C36.7751 70.9329 36.2526 70.9373 35.7301 70.9423C34.9787 70.9495 34.2272 70.9528 33.4757 70.9554C33.1259 70.9599 33.1259 70.9599 32.7691 70.9645C31.4358 70.9648 30.4564 70.9206 29.4329 69.9765C29.3395 69.8617 29.2461 69.7469 29.1499 69.6286C29.054 69.5138 28.958 69.399 28.8592 69.2807C28.3411 68.5381 28.4012 67.7682 28.4022 66.9025C28.4017 66.7529 28.4011 66.6033 28.4005 66.4491C28.3988 65.9462 28.3985 65.4434 28.3982 64.9405C28.3973 64.5805 28.3963 64.2206 28.3953 63.8607C28.3927 62.8817 28.3914 61.9027 28.3906 60.9237C28.39 60.3122 28.3892 59.7008 28.3883 59.0893C28.3856 57.1767 28.3838 55.2642 28.383 53.3516C28.3821 51.1428 28.3787 48.9341 28.373 46.7253C28.3688 45.0186 28.3669 43.312 28.3666 41.6053C28.3664 40.5857 28.3652 39.5661 28.3617 38.5465C28.3585 37.5873 28.3581 36.6282 28.3598 35.6691C28.36 35.3171 28.3591 34.9652 28.3572 34.6133C28.3547 34.1326 28.3558 33.652 28.3579 33.1713C28.3555 32.9627 28.3555 32.9627 28.3531 32.7499C28.3637 31.6841 28.6244 30.8925 29.3513 30.1045C29.4661 30.0111 29.5809 29.9177 29.6992 29.8215C29.814 29.7256 29.9288 29.6296 30.0471 29.5308C30.6964 29.0778 31.2738 29.0774 32.0393 29.0791C32.2582 29.0791 32.4771 29.0791 32.7027 29.0791C32.9389 29.0801 33.1751 29.0812 33.4185 29.0822C33.7814 29.0826 33.7814 29.0826 34.1517 29.083C34.7942 29.0839 35.4367 29.0857 36.0792 29.0879C36.7351 29.0899 37.391 29.0907 38.0469 29.0917C39.3333 29.0939 40.6198 29.0972 41.9062 29.1013C41.8988 27.507 41.8872 25.9128 41.8703 24.3186C41.8626 23.5784 41.8563 22.8382 41.8533 22.0979C41.8503 21.3836 41.8436 20.6694 41.8343 19.9552C41.8314 19.6826 41.8298 19.4099 41.8297 19.1373C41.8292 18.7557 41.8235 18.3742 41.8175 17.9926C41.8158 17.7753 41.8141 17.558 41.8123 17.3342C41.7579 16.7815 41.7579 16.7815 41.3699 16.4332C40.8776 16.1843 40.5776 16.1389 40.0286 16.1417C39.8513 16.141 39.674 16.1403 39.4914 16.1395C39.3013 16.1413 39.1113 16.1432 38.9155 16.145C38.5122 16.1426 38.1088 16.14 37.7055 16.1374C37.0702 16.1366 36.4351 16.1374 35.7999 16.1403C35.1863 16.1419 34.573 16.1377 33.9594 16.1328C33.6744 16.1367 33.6744 16.1367 33.3836 16.1407C32.0691 16.1263 32.0691 16.1263 31.4341 15.5571C31.1062 14.9279 31.0597 14.5674 31.164 13.8669C31.5117 13.2544 31.6568 13.1167 32.3359 12.8903C32.6242 12.8706 32.9134 12.8614 33.2024 12.8589C33.3772 12.857 33.5519 12.8551 33.732 12.8532C34.0149 12.8519 34.0149 12.8519 34.3035 12.8507C34.4984 12.8495 34.6933 12.8484 34.8941 12.8473C35.307 12.8454 35.7199 12.8442 36.1328 12.8434C36.7612 12.8415 37.3895 12.8355 38.0179 12.8293C38.4196 12.828 38.8213 12.827 39.223 12.8262C39.5029 12.8226 39.5029 12.8226 39.7885 12.8189C41.2892 12.8239 42.5649 13.083 43.7251 14.111C43.8492 14.2168 43.9733 14.3225 44.1012 14.4315C45.2732 15.8348 45.1078 17.4362 45.0884 19.164C45.0874 19.451 45.0865 19.7381 45.0859 20.0251C45.0837 20.7768 45.078 21.5285 45.0715 22.2801C45.0644 23.184 45.0617 24.088 45.0583 24.9919C45.0526 26.3618 45.0414 27.7314 45.0312 29.1013C48.6406 29.1013 52.25 29.1013 55.9687 29.1013C55.9597 28.1889 55.9506 27.2764 55.9413 26.3364C55.9373 25.756 55.9335 25.1757 55.9306 24.5953C55.9259 23.6755 55.9204 22.7558 55.9098 21.836C55.9013 21.0939 55.8966 20.3518 55.8946 19.6097C55.8932 19.3275 55.8904 19.0453 55.8861 18.7631C55.8603 16.9696 55.9151 15.6362 57.12 14.2102C57.2436 14.105 57.3672 13.9997 57.4946 13.8913C57.6778 13.7289 57.6778 13.7289 57.8646 13.5632C59.0667 12.8056 60.3426 12.8356 61.7174 12.846C61.9177 12.8459 62.1179 12.8459 62.3242 12.8458C62.9826 12.8461 63.6409 12.8491 64.2993 12.8522C64.7571 12.8529 65.2149 12.8535 65.6728 12.8539C66.8753 12.8553 68.0777 12.8592 69.2802 12.8635C70.5082 12.8675 71.7363 12.8693 72.9643 12.8713C75.3721 12.8754 77.7798 12.8821 80.1875 12.8903C80.1836 12.715 80.1836 12.715 80.1796 12.5362C80.1536 11.3164 80.136 10.0966 80.1231 8.87655C80.1172 8.42168 80.1092 7.96683 80.0991 7.51203C80.0848 6.85698 80.0782 6.20222 80.073 5.54704C80.067 5.34475 80.0609 5.14247 80.0547 4.93406C80.0542 3.73582 80.2074 3.06515 81.0498 2.19268C81.7168 1.67583 82.4001 1.72969 83.2093 1.72294ZM31.5547 32.4216C31.5376 32.8121 31.5338 33.2033 31.5356 33.5942C31.5361 33.8079 31.5366 34.0215 31.5371 34.2416C31.5388 34.5151 31.5406 34.7887 31.5425 35.0705C31.5465 35.9366 31.5505 36.8027 31.5547 37.695C33.2949 37.695 35.0351 37.695 36.8281 37.695C36.8281 35.8903 36.8281 34.0856 36.8281 32.2263C35.9942 32.2222 35.1604 32.2182 34.3012 32.2141C34.0379 32.2123 33.7746 32.2105 33.5033 32.2087C33.2975 32.2082 33.0918 32.2077 32.8799 32.2072C32.6682 32.2062 32.4564 32.2051 32.2383 32.2041C31.7616 32.1707 31.7616 32.1707 31.5547 32.4216ZM39.9531 32.2263C39.9531 34.031 39.9531 35.8356 39.9531 37.695C49.6855 37.695 59.4179 37.695 69.4453 37.695C69.4453 35.9548 69.4453 34.2145 69.4453 32.4216C69.2391 32.1717 69.2391 32.1717 68.7684 32.2022C68.4446 32.2025 68.4446 32.2025 68.1143 32.2028C67.8675 32.2025 67.6207 32.2022 67.3665 32.202C67.0905 32.2027 66.8145 32.2034 66.5384 32.2041C66.2498 32.2041 65.9611 32.2041 65.6724 32.204C64.8864 32.2039 64.1003 32.2051 63.3143 32.2065C62.4937 32.2077 61.6731 32.2078 60.8525 32.208C59.2975 32.2086 57.7426 32.2102 56.1876 32.2122C54.4178 32.2144 52.6479 32.2155 50.8781 32.2164C47.2364 32.2185 43.5948 32.2221 39.9531 32.2263ZM3.42966 75.5856C3.42966 82.031 3.42966 88.4763 3.42966 95.1169C8.13474 95.1169 12.8398 95.1169 17.6875 95.1169C17.7729 92.2378 17.7729 92.2378 17.8305 89.3586C17.848 88.1818 17.8684 87.0056 17.9085 85.8293C17.9406 84.8794 17.9579 83.9303 17.9654 82.9799C17.9708 82.6197 17.9813 82.2595 17.9972 81.8996C18.0755 80.0589 17.9923 78.6636 16.7597 77.2158C15.7622 76.1919 14.842 75.4395 13.3853 75.253C12.9212 75.2538 12.4568 75.2693 11.9937 75.2995C11.6641 75.304 11.6641 75.304 11.3278 75.3085C10.5216 75.3236 9.71605 75.3645 8.91062 75.4025C6.19755 75.4932 6.19755 75.4932 3.42966 75.5856ZM83.3125 75.5856C83.3125 82.031 83.3125 88.4763 83.3125 95.1169C88.0176 95.1169 92.7226 95.1169 97.5703 95.1169C97.6614 92.2773 97.6614 92.2773 97.7229 89.4376C97.7415 88.2766 97.7633 87.1163 97.806 85.9559C98.176 81.2983 98.176 81.2983 96.7316 77.0291C95.3356 75.567 93.6562 75.3466 91.7048 75.2805C90.6933 75.2827 89.6957 75.3382 88.6836 75.3903C86.9111 75.4548 85.1386 75.5192 83.3125 75.5856Z" fill="#E6E6E6"/>
<path d="M3.58831 1.67903C3.71582 1.67769 3.84334 1.67635 3.97472 1.67497C4.393 1.67142 4.81114 1.67215 5.22944 1.67326C5.52226 1.67237 5.81508 1.67133 6.1079 1.67016C6.72043 1.66842 7.33292 1.66888 7.94546 1.67083C8.72787 1.67307 9.5101 1.66912 10.2925 1.66342C10.8969 1.65983 11.5013 1.6599 12.1057 1.66101C12.394 1.66104 12.6823 1.65987 12.9707 1.65744C14.8086 1.64413 15.9413 1.72303 17.378 2.93821C17.5156 3.07644 17.6532 3.21466 17.7951 3.35707C17.9475 3.50964 18.0999 3.66221 18.257 3.81941C18.4115 3.97702 18.5659 4.13462 18.7251 4.29701C18.8833 4.45462 19.0415 4.61223 19.2046 4.77461C20.78 6.36448 20.78 6.36448 20.8568 7.48056C20.8548 7.73013 20.8527 7.9797 20.8506 8.23683C20.8501 8.37011 20.8495 8.5034 20.8489 8.64072C20.8468 9.0646 20.8419 9.48839 20.8369 9.91224C20.8349 10.2004 20.8331 10.4885 20.8316 10.7767C20.8273 11.4814 20.8205 12.1861 20.8125 12.8908C21.0533 12.8862 21.0533 12.8862 21.299 12.8815C22.0279 12.8693 22.7568 12.8617 23.4858 12.8541C23.8648 12.8468 23.8648 12.8468 24.2514 12.8393C24.495 12.8374 24.7386 12.8355 24.9896 12.8335C25.2136 12.8305 25.4376 12.8274 25.6683 12.8242C26.35 12.8982 26.7122 13.0688 27.2578 13.4767C27.5364 14.034 27.5137 14.4209 27.4531 15.0392C27.1435 15.5604 27.1435 15.5604 26.6719 16.0158C26.0453 16.1266 26.0453 16.1266 25.3138 16.1111C25.1849 16.1097 25.0559 16.1084 24.9231 16.1069C24.5129 16.1015 24.1033 16.0892 23.6933 16.0768C23.4146 16.0719 23.1359 16.0674 22.8572 16.0634C22.1754 16.0527 21.494 16.0359 20.8125 16.0158C20.8144 16.1997 20.8144 16.1997 20.8164 16.3873C20.8294 17.6642 20.8382 18.941 20.8447 20.2179C20.8476 20.6943 20.8516 21.1708 20.8567 21.6473C20.8638 22.3323 20.8671 23.0173 20.8697 23.7024C20.8727 23.9152 20.8757 24.1281 20.8789 24.3474C20.8793 26.2643 20.8793 26.2643 20.2265 26.9533C19.2868 27.534 18.4777 27.6235 17.3983 27.615C17.1551 27.6166 17.1551 27.6166 16.9071 27.6181C16.3737 27.6207 15.8405 27.619 15.3071 27.617C14.935 27.6174 14.5629 27.618 14.1908 27.6187C13.4119 27.6196 12.6331 27.6183 11.8542 27.6156C10.8573 27.6122 9.8604 27.6142 8.86344 27.6177C8.09536 27.6198 7.3273 27.6191 6.55921 27.6176C6.19167 27.6172 5.82413 27.6177 5.45659 27.6191C4.94238 27.6206 4.42833 27.6183 3.91413 27.615C3.76312 27.6162 3.61211 27.6174 3.45653 27.6186C2.52165 27.6077 1.86536 27.4778 1.08591 26.9533C0.264516 26.0694 0.417646 24.9373 0.42416 23.8016C0.42262 23.4722 0.42262 23.4722 0.421049 23.1362C0.41847 22.4107 0.420177 21.6852 0.422157 20.9596C0.421763 20.4554 0.421194 19.9512 0.420459 19.4469C0.419595 18.3902 0.420795 17.3336 0.423588 16.2769C0.426777 15.0564 0.425743 13.8359 0.422518 12.6154C0.419535 11.4398 0.419855 10.2642 0.42157 9.08857C0.421961 8.58895 0.42148 8.08932 0.420117 7.58969C0.41863 6.89162 0.420896 6.19365 0.42416 5.49559C0.422974 5.28878 0.421788 5.08197 0.420566 4.8689C0.436399 3.04278 0.436399 3.04278 1.08591 2.34388C1.92999 1.79764 2.59311 1.68361 3.58831 1.67903ZM3.42966 4.88295C3.42966 11.3283 3.42966 17.7736 3.42966 24.4142C8.13474 24.4142 12.8398 24.4142 17.6875 24.4142C17.7729 21.5351 17.7729 21.5351 17.8305 18.6559C17.848 17.4791 17.8684 16.3029 17.9085 15.1266C17.9406 14.1767 17.9579 13.2276 17.9654 12.2772C17.9708 11.917 17.9813 11.5568 17.9972 11.1969C18.0755 9.35618 17.9923 7.96093 16.7597 6.51314C15.7622 5.48919 14.842 4.73683 13.3853 4.55035C12.9212 4.55107 12.4568 4.56661 11.9937 4.59684C11.6641 4.60127 11.6641 4.60127 11.3278 4.60578C10.5216 4.6209 9.71605 4.6618 8.91062 4.69984C6.19755 4.79048 6.19755 4.79048 3.42966 4.88295Z" fill="#E6E6E6"/>
<path d="M54.7968 43.5551C55.2943 43.8789 55.4949 44.026 55.7734 44.5317C55.9116 45.3754 55.8868 46.2094 55.8688 47.0623C55.8674 47.3081 55.866 47.5538 55.8646 47.8069C55.8601 48.4579 55.8513 49.1086 55.8405 49.7595C55.8304 50.4245 55.826 51.0897 55.8211 51.7548C55.8103 53.0581 55.7935 54.3613 55.7734 55.6645C57.1269 55.6645 58.4804 55.6645 59.875 55.6645C59.8442 54.3585 59.8442 54.3585 59.8046 53.0528C59.7946 52.2125 59.8008 51.6947 60.2198 50.9503C60.6754 50.5704 60.8536 50.4529 61.4375 50.4643C61.6308 50.4605 61.6308 50.4605 61.8281 50.4566C62.4822 50.6738 62.6626 50.9636 63 51.5629C63.0934 52.2698 63.0736 52.9633 63.0488 53.6747C63.0453 53.8659 63.0417 54.0572 63.0381 54.2542C63.0289 54.7245 63.0161 55.1944 63 55.6645C63.3036 55.6543 63.3036 55.6543 63.6134 55.6439C63.8809 55.6384 64.1484 55.633 64.416 55.6279C64.5492 55.6229 64.6824 55.618 64.8196 55.613C65.4377 55.604 65.8599 55.6253 66.4042 55.9307C66.8162 56.3601 66.878 56.6353 66.9062 57.227C66.7543 57.8649 66.617 58.1283 66.0878 58.5208C65.4439 58.8361 65.0174 58.8631 64.3024 58.8639C64.053 58.8655 63.8035 58.8672 63.5465 58.8689C63.2715 58.8677 62.9965 58.8665 62.7215 58.8653C62.4308 58.8661 62.1401 58.8671 61.8494 58.8684C61.0608 58.8711 60.2724 58.87 59.4838 58.8682C58.6581 58.8667 57.8323 58.8681 57.0065 58.869C55.6196 58.8701 54.2328 58.8687 52.8459 58.8659C51.2435 58.8627 49.6411 58.8637 48.0387 58.8669C46.6622 58.8696 45.2856 58.87 43.909 58.8684C43.0872 58.8675 42.2654 58.8674 41.4436 58.8693C40.6707 58.871 39.8979 58.8698 39.125 58.8665C38.8417 58.8657 38.5584 58.8659 38.2752 58.8672C37.8878 58.8688 37.5003 58.8664 37.1129 58.8639C36.7881 58.8635 36.7881 58.8635 36.4566 58.8632C35.7553 58.7777 35.2826 58.5666 34.6797 58.2035C34.3777 57.5997 34.427 57.1109 34.4843 56.4457C34.7842 56.0139 34.7842 56.0139 35.2656 55.6645C35.8001 55.6076 36.2499 55.5896 36.7793 55.6156C36.9155 55.6192 37.0517 55.6227 37.192 55.6263C37.5266 55.6355 37.861 55.6495 38.1953 55.6645C38.1922 55.4517 38.1891 55.2389 38.186 55.0197C38.1753 54.2269 38.1686 53.4341 38.1631 52.6413C38.1602 52.2988 38.1562 51.9563 38.1511 51.6138C38.1439 51.1203 38.1406 50.6268 38.1381 50.1332C38.135 49.9811 38.132 49.8291 38.1289 49.6725C38.1286 48.7278 38.2588 48.0854 38.7812 47.266C39.3851 46.9641 39.8739 47.0134 40.539 47.0707C40.9691 47.3536 40.9691 47.3536 41.3203 47.852C41.4275 48.4481 41.4112 49.0332 41.3966 49.6373C41.3955 49.8096 41.3944 49.9819 41.3932 50.1594C41.3889 50.7087 41.3791 51.2578 41.3691 51.807C41.3652 52.1799 41.3616 52.5527 41.3584 52.9255C41.3505 53.8387 41.3352 54.7513 41.3203 55.6645C42.6738 55.6645 44.0273 55.6645 45.4218 55.6645C45.415 55.2669 45.4082 54.8694 45.4012 54.4598C45.3972 54.0726 45.3931 53.6854 45.3897 53.2982C45.3867 53.0301 45.3827 52.7621 45.3776 52.494C45.3705 52.1077 45.3675 51.7212 45.3646 51.3348C45.3616 51.1026 45.3585 50.8704 45.3553 50.6312C45.4284 49.9387 45.592 49.5765 46.0078 49.0238C46.6116 48.7219 47.1004 48.7712 47.7656 48.8285C48.1957 49.1354 48.1957 49.1354 48.5468 49.6098C48.6355 50.2543 48.6355 50.2543 48.6231 51.0105C48.622 51.1438 48.6209 51.2771 48.6198 51.4144C48.6154 51.8384 48.6056 52.2621 48.5957 52.686C48.5918 52.9741 48.5882 53.2622 48.585 53.5504C48.5771 54.2553 48.5618 54.9595 48.5468 55.6645C49.9004 55.6645 51.2539 55.6645 52.6484 55.6645C52.6433 55.3323 52.6382 55.0002 52.6329 54.658C52.6171 53.5588 52.6059 52.4597 52.5978 51.3605C52.5927 50.6942 52.5858 50.028 52.5747 49.3618C52.5621 48.5953 52.5574 47.8289 52.553 47.0623C52.548 46.8239 52.543 46.5854 52.5378 46.3397C52.5372 44.4962 52.5372 44.4962 53.106 43.8928C53.7499 43.4738 54.0436 43.3982 54.7968 43.5551Z" fill="#E6E6E6"/>
<path d="M91.5148 53.6071C91.8272 53.606 91.8272 53.606 92.1459 53.6048C92.5857 53.6043 93.0256 53.6057 93.4653 53.609C94.1371 53.6132 94.8085 53.6091 95.4802 53.6041C95.9081 53.6046 96.336 53.6056 96.7639 53.6071C97.0642 53.6047 97.0642 53.6047 97.3706 53.6023C98.5381 53.6176 99.2243 53.7073 100.109 54.4921C100.532 55.1263 100.55 55.3098 100.557 56.0435C100.559 56.2397 100.562 56.4359 100.564 56.6381C100.565 56.8499 100.565 57.0617 100.566 57.2799C100.568 57.6068 100.568 57.6068 100.57 57.9403C100.572 58.4017 100.572 58.863 100.572 59.3244C100.573 60.03 100.58 60.7354 100.588 61.441C100.589 61.8891 100.59 62.3372 100.59 62.7853C100.593 62.9963 100.596 63.2073 100.599 63.4247C100.59 64.8829 100.59 64.8829 100.153 65.6437C99.4489 66.2469 98.9178 66.4541 97.992 66.4691C97.7113 66.4747 97.7113 66.4747 97.4249 66.4805C97.1234 66.483 97.1234 66.483 96.8157 66.4855C96.6077 66.4877 96.3996 66.49 96.1852 66.4923C95.7451 66.496 95.3049 66.4985 94.8648 66.5C94.1934 66.5038 93.5224 66.5159 92.8511 66.5282C92.423 66.5308 91.9949 66.5328 91.5667 66.5343C91.3669 66.5392 91.1671 66.544 90.9612 66.549C89.7719 66.5416 89.1073 66.3771 88.2408 65.5434C87.8006 64.9784 87.779 64.4427 87.7732 63.7547C87.7713 63.5741 87.7694 63.3935 87.7675 63.2074C87.7667 63.0127 87.7659 62.818 87.765 62.6174C87.7639 62.4168 87.7628 62.2162 87.7616 62.0095C87.7598 61.585 87.7585 61.1604 87.7578 60.7358C87.7559 60.0868 87.7498 59.438 87.7436 58.789C87.7424 58.3765 87.7413 57.964 87.7406 57.5515C87.737 57.2606 87.737 57.2606 87.7333 56.9639C87.7375 55.6669 87.9164 55.0324 88.7813 54.0469C89.671 53.5366 90.5061 53.5992 91.5148 53.6071ZM90.9297 56.8359C90.9297 58.9628 90.9297 61.0898 90.9297 63.2812C93.1211 63.2812 95.3125 63.2812 97.5703 63.2812C97.5703 61.1542 97.5703 59.0273 97.5703 56.8359C95.3789 56.8359 93.1875 56.8359 90.9297 56.8359Z" fill="#E6E6E6"/>
<path d="M3.00804 53.6482C3.28874 53.6426 3.28874 53.6426 3.57511 53.6368C3.87664 53.6343 3.87664 53.6343 4.18426 53.6318C4.39233 53.6296 4.60041 53.6273 4.81479 53.6251C5.25493 53.6214 5.69508 53.6188 6.13524 53.6173C6.80664 53.6135 7.47758 53.6014 8.14887 53.5891C8.577 53.5865 9.00514 53.5845 9.43328 53.583C9.73303 53.5757 9.73303 53.5757 10.0388 53.5684C11.2281 53.5757 11.8927 53.7403 12.7592 54.574C13.1994 55.139 13.221 55.6747 13.2268 56.3626C13.2287 56.5432 13.2306 56.7238 13.2325 56.9099C13.2333 57.1046 13.2342 57.2993 13.235 57.4999C13.2361 57.7005 13.2372 57.9011 13.2384 58.1078C13.2402 58.5324 13.2415 58.9569 13.2423 59.3815C13.2442 60.0305 13.2502 60.6794 13.2564 61.3283C13.2576 61.7408 13.2587 62.1533 13.2594 62.5658C13.2618 62.7597 13.2642 62.9537 13.2667 63.1534C13.2625 64.4505 13.0836 65.0849 12.2187 66.0704C11.329 66.5807 10.4939 66.5182 9.48516 66.5102C9.17277 66.5113 9.17277 66.5113 8.85406 66.5125C8.41426 66.513 7.97445 66.5116 7.53466 66.5083C6.86289 66.5041 6.19153 66.5083 5.51978 66.5133C5.0919 66.5128 4.66402 66.5118 4.23614 66.5102C4.03591 66.5118 3.83568 66.5134 3.62939 66.515C2.46186 66.4997 1.77572 66.41 0.890647 65.6252C0.467858 64.991 0.449603 64.8075 0.443278 64.0739C0.43954 63.7795 0.43954 63.7795 0.435726 63.4792C0.435291 63.2674 0.434857 63.0556 0.434409 62.8374C0.433109 62.6195 0.431809 62.4015 0.430469 62.177C0.42849 61.7156 0.427575 61.2543 0.427638 60.7929C0.426784 60.0873 0.419694 59.3819 0.412284 58.6764C0.411137 58.2283 0.410362 57.7802 0.409995 57.3321C0.407188 57.1211 0.404381 56.91 0.401489 56.6927C0.410365 55.2344 0.410365 55.2344 0.847445 54.4736C1.55115 53.8705 2.08219 53.6632 3.00804 53.6482ZM3.42971 56.8361C3.42971 58.9631 3.42971 61.0901 3.42971 63.2815C5.62112 63.2815 7.81252 63.2815 10.0703 63.2815C10.0703 61.1545 10.0703 59.0276 10.0703 56.8361C7.87893 56.8361 5.68752 56.8361 3.42971 56.8361Z" fill="#E6E6E6"/>
<path d="M91.5148 33.4899C91.8272 33.4888 91.8272 33.4888 92.1459 33.4877C92.5857 33.4871 93.0256 33.4886 93.4653 33.4918C94.1371 33.496 94.8085 33.4919 95.4802 33.4869C95.9081 33.4874 96.336 33.4884 96.7639 33.4899C97.0642 33.4875 97.0642 33.4875 97.3706 33.4851C98.5381 33.5004 99.2243 33.5901 100.109 34.3749C100.532 35.0091 100.55 35.1926 100.557 35.9263C100.559 36.1225 100.562 36.3187 100.564 36.5209C100.565 36.7327 100.565 36.9445 100.566 37.1627C100.568 37.4896 100.568 37.4896 100.57 37.8232C100.572 38.2845 100.572 38.7458 100.572 39.2072C100.573 39.9128 100.58 40.6182 100.588 41.3238C100.589 41.7719 100.59 42.22 100.59 42.6681C100.593 42.8791 100.596 43.0901 100.599 43.3075C100.59 44.7657 100.59 44.7657 100.153 45.5265C99.4489 46.1297 98.9178 46.3369 97.992 46.3519C97.7113 46.3576 97.7113 46.3576 97.4249 46.3633C97.1234 46.3658 97.1234 46.3658 96.8157 46.3683C96.6077 46.3706 96.3996 46.3728 96.1852 46.3751C95.7451 46.3788 95.3049 46.3813 94.8648 46.3828C94.1934 46.3866 93.5224 46.3987 92.8511 46.4111C92.423 46.4136 91.9949 46.4157 91.5667 46.4172C91.3669 46.422 91.1671 46.4268 90.9612 46.4318C89.7719 46.4244 89.1073 46.2599 88.2408 45.4262C87.8006 44.8612 87.779 44.3255 87.7732 43.6375C87.7713 43.4569 87.7694 43.2763 87.7675 43.0903C87.7667 42.8955 87.7659 42.7008 87.765 42.5002C87.7639 42.2996 87.7628 42.099 87.7616 41.8923C87.7598 41.4678 87.7585 41.0432 87.7578 40.6186C87.7559 39.9696 87.7498 39.3208 87.7436 38.6718C87.7424 38.2593 87.7413 37.8468 87.7406 37.4343C87.737 37.1434 87.737 37.1434 87.7333 36.8467C87.7375 35.5497 87.9164 34.9152 88.7813 33.9298C89.671 33.4194 90.5061 33.482 91.5148 33.4899ZM90.9297 36.7187C90.9297 38.8456 90.9297 40.9726 90.9297 43.164C93.1211 43.164 95.3125 43.164 97.5703 43.164C97.5703 41.037 97.5703 38.9101 97.5703 36.7187C95.3789 36.7187 93.1875 36.7187 90.9297 36.7187Z" fill="#E6E6E6"/>
<path d="M3.00804 33.531C3.28874 33.5254 3.28874 33.5254 3.57511 33.5196C3.87664 33.5172 3.87664 33.5172 4.18426 33.5146C4.39233 33.5124 4.60041 33.5102 4.81479 33.5079C5.25493 33.5042 5.69508 33.5016 6.13524 33.5001C6.80664 33.4963 7.47758 33.4842 8.14887 33.4719C8.577 33.4693 9.00514 33.4673 9.43328 33.4658C9.73303 33.4586 9.73303 33.4586 10.0388 33.4512C11.2281 33.4585 11.8927 33.6231 12.7592 34.4568C13.1994 35.0218 13.221 35.5575 13.2268 36.2455C13.2287 36.426 13.2306 36.6066 13.2325 36.7927C13.2333 36.9874 13.2342 37.1821 13.235 37.3827C13.2361 37.5833 13.2372 37.7839 13.2384 37.9906C13.2402 38.4152 13.2415 38.8398 13.2423 39.2643C13.2442 39.9133 13.2502 40.5622 13.2564 41.2111C13.2576 41.6236 13.2587 42.0361 13.2594 42.4486C13.2618 42.6426 13.2642 42.8365 13.2667 43.0363C13.2625 44.3333 13.0836 44.9677 12.2187 45.9532C11.329 46.4635 10.4939 46.401 9.48516 46.393C9.17277 46.3942 9.17277 46.3942 8.85406 46.3953C8.41426 46.3958 7.97445 46.3944 7.53466 46.3911C6.86289 46.3869 6.19153 46.3911 5.51978 46.3961C5.0919 46.3956 4.66402 46.3946 4.23614 46.393C4.03591 46.3946 3.83568 46.3962 3.62939 46.3978C2.46186 46.3826 1.77572 46.2929 0.890647 45.508C0.467858 44.8738 0.449603 44.6903 0.443278 43.9567C0.43954 43.6623 0.43954 43.6623 0.435726 43.362C0.435291 43.1503 0.434857 42.9385 0.434409 42.7202C0.433109 42.5023 0.431809 42.2843 0.430469 42.0598C0.42849 41.5985 0.427575 41.1371 0.427638 40.6758C0.426784 39.9701 0.419694 39.2648 0.412284 38.5592C0.411137 38.1111 0.410362 37.663 0.409995 37.2149C0.407188 37.0039 0.404381 36.7929 0.401489 36.5755C0.410365 35.1172 0.410365 35.1172 0.847445 34.3564C1.55115 33.7533 2.08219 33.5461 3.00804 33.531ZM3.42971 36.719C3.42971 38.8459 3.42971 40.9729 3.42971 43.1643C5.62112 43.1643 7.81252 43.1643 10.0703 43.1643C10.0703 41.0373 10.0703 38.9104 10.0703 36.719C7.87893 36.719 5.68752 36.719 3.42971 36.719Z" fill="#E6E6E6"/>
<path d="M37.1707 61.0289C37.3638 61.0272 37.557 61.0256 37.756 61.0238C38.3948 61.0194 39.0335 61.0207 39.6723 61.0225C40.116 61.0215 40.5597 61.0202 41.0033 61.0188C41.9333 61.0168 42.8632 61.0177 43.7932 61.0205C44.9859 61.0239 46.1785 61.0193 47.3713 61.0124C48.2875 61.0081 49.2036 61.0084 50.1198 61.01C50.5597 61.0102 50.9995 61.0089 51.4393 61.006C52.0538 61.0026 52.6679 61.0054 53.2824 61.0098C53.4647 61.0076 53.6469 61.0053 53.8347 61.0029C55.0644 61.0211 55.0644 61.0211 55.6911 61.5917C56.0306 62.225 56.0893 62.5732 55.9687 63.2815C55.5328 63.8378 55.2754 64.0335 54.6015 64.2581C54.0104 64.2791 53.4237 64.2888 52.8324 64.2896C52.6513 64.2906 52.4703 64.2915 52.2837 64.2925C51.6838 64.2954 51.0839 64.2967 50.4839 64.2978C50.0672 64.2989 49.6505 64.3 49.2337 64.3012C48.3594 64.3032 47.4851 64.3044 46.6108 64.305C45.491 64.3061 44.3713 64.3108 43.2515 64.3164C42.3904 64.32 41.5294 64.321 40.6683 64.3213C40.2555 64.3219 39.8427 64.3235 39.4299 64.326C38.8521 64.3294 38.2743 64.329 37.6965 64.3277C37.5263 64.3295 37.3561 64.3313 37.1807 64.3332C36.2036 64.3265 35.5244 64.2198 34.6797 63.6722C34.3777 63.0683 34.427 62.5795 34.4843 61.9144C35.1465 60.8843 36.0637 61.0212 37.1707 61.0289Z" fill="#E6E6E6"/>
<path d="M88.3174 84.0499C88.4784 84.049 88.6395 84.0481 88.8054 84.0471C89.1449 84.0464 89.4844 84.0482 89.8238 84.0523C90.3423 84.0575 90.8599 84.0524 91.3783 84.0461C91.7089 84.0468 92.0395 84.048 92.3701 84.0499C92.6015 84.047 92.6015 84.047 92.8375 84.0439C93.6598 84.0614 93.9706 84.1136 94.6406 84.6394C95.0312 85.1562 95.0312 85.1562 95.1533 85.7421C94.9859 86.546 94.6982 86.7997 94.0547 87.3046C93.4919 87.4448 92.9479 87.4417 92.3701 87.4343C92.1286 87.4357 92.1286 87.4357 91.8821 87.4372C91.5426 87.4378 91.2031 87.436 90.8637 87.432C90.3452 87.4267 89.8276 87.4319 89.3092 87.4381C88.9786 87.4375 88.648 87.4363 88.3174 87.4343C88.1631 87.4363 88.0089 87.4383 87.85 87.4403C87.0277 87.4229 86.7169 87.3706 86.0469 86.8449C85.6562 86.3281 85.6562 86.3281 85.5342 85.7421C85.8557 84.199 86.9674 84.0326 88.3174 84.0499Z" fill="#E6E6E6"/>
<path d="M8.62988 84.0499C8.79092 84.049 8.95196 84.0481 9.11788 84.0471C9.45736 84.0464 9.79685 84.0482 10.1363 84.0523C10.6548 84.0575 11.1724 84.0524 11.6908 84.0461C12.0214 84.0468 12.352 84.048 12.6826 84.0499C12.914 84.047 12.914 84.047 13.15 84.0439C13.9723 84.0614 14.2831 84.1136 14.9531 84.6394C15.3438 85.1562 15.3438 85.1562 15.4658 85.7421C15.2984 86.546 15.0107 86.7997 14.3672 87.3046C13.8044 87.4448 13.2604 87.4417 12.6826 87.4343C12.4411 87.4357 12.4411 87.4357 12.1946 87.4372C11.8551 87.4378 11.5156 87.436 11.1762 87.432C10.6577 87.4267 10.1401 87.4319 9.6217 87.4381C9.2911 87.4375 8.96049 87.4363 8.62988 87.4343C8.47564 87.4363 8.3214 87.4383 8.16249 87.4403C7.34017 87.4229 7.02942 87.3706 6.35938 86.8449C5.96875 86.3281 5.96875 86.3281 5.84668 85.7421C6.16816 84.199 7.27985 84.0326 8.62988 84.0499Z" fill="#E6E6E6"/>
<path d="M88.3174 78.9718C88.4784 78.9709 88.6395 78.9699 88.8054 78.969C89.1449 78.9683 89.4844 78.9701 89.8238 78.9742C90.3423 78.9794 90.8599 78.9742 91.3783 78.968C91.7089 78.9686 92.0395 78.9699 92.3701 78.9718C92.6015 78.9688 92.6015 78.9688 92.8375 78.9658C93.6598 78.9832 93.9706 79.0355 94.6406 79.5613C95.0312 80.0781 95.0312 80.0781 95.1533 80.664C94.9859 81.4678 94.6982 81.7215 94.0547 82.2265C93.4919 82.3667 92.9479 82.3636 92.3701 82.3562C92.1286 82.3576 92.1286 82.3576 91.8821 82.359C91.5426 82.3597 91.2031 82.3579 90.8637 82.3538C90.3452 82.3486 89.8276 82.3538 89.3092 82.36C88.9786 82.3594 88.648 82.3581 88.3174 82.3562C88.1631 82.3582 88.0089 82.3602 87.85 82.3622C87.0277 82.3448 86.7169 82.2925 86.0469 81.7667C85.6562 81.2499 85.6562 81.2499 85.5342 80.664C85.8557 79.1209 86.9674 78.9545 88.3174 78.9718Z" fill="#E6E6E6"/>
<path d="M8.62988 78.9718C8.79092 78.9709 8.95196 78.9699 9.11788 78.969C9.45736 78.9683 9.79685 78.9701 10.1363 78.9742C10.6548 78.9794 11.1724 78.9742 11.6908 78.968C12.0214 78.9686 12.352 78.9699 12.6826 78.9718C12.914 78.9688 12.914 78.9688 13.15 78.9658C13.9723 78.9832 14.2831 79.0355 14.9531 79.5613C15.3438 80.0781 15.3438 80.0781 15.4658 80.664C15.2984 81.4678 15.0107 81.7215 14.3672 82.2265C13.8044 82.3667 13.2604 82.3636 12.6826 82.3562C12.4411 82.3576 12.4411 82.3576 12.1946 82.359C11.8551 82.3597 11.5156 82.3579 11.1762 82.3538C10.6577 82.3486 10.1401 82.3538 9.6217 82.36C9.2911 82.3594 8.96049 82.3581 8.62988 82.3562C8.47564 82.3582 8.3214 82.3602 8.16249 82.3622C7.34017 82.3448 7.02942 82.2925 6.35938 81.7667C5.96875 81.2499 5.96875 81.2499 5.84668 80.664C6.16816 79.1209 7.27985 78.9545 8.62988 78.9718Z" fill="#E6E6E6"/>
<path d="M88.3174 13.3468C88.4784 13.3459 88.6395 13.3449 88.8054 13.344C89.1449 13.3433 89.4844 13.3451 89.8238 13.3492C90.3423 13.3544 90.8599 13.3492 91.3783 13.343C91.7089 13.3436 92.0395 13.3449 92.3701 13.3468C92.6015 13.3438 92.6015 13.3438 92.8375 13.3408C93.6598 13.3582 93.9706 13.4105 94.6406 13.9363C95.0312 14.4531 95.0312 14.4531 95.1533 15.039C94.9859 15.8428 94.6982 16.0965 94.0547 16.6015C93.4919 16.7417 92.9479 16.7386 92.3701 16.7312C92.1286 16.7326 92.1286 16.7326 91.8821 16.734C91.5426 16.7347 91.2031 16.7329 90.8637 16.7288C90.3452 16.7236 89.8276 16.7288 89.3092 16.735C88.9786 16.7344 88.648 16.7331 88.3174 16.7312C88.1631 16.7332 88.0089 16.7352 87.85 16.7372C87.0277 16.7198 86.7169 16.6675 86.0469 16.1417C85.6562 15.6249 85.6562 15.6249 85.5342 15.039C85.8557 13.4959 86.9674 13.3295 88.3174 13.3468Z" fill="#E6E6E6"/>
<path d="M8.58716 13.3607C8.74386 13.3607 8.90056 13.3607 9.06202 13.3607C9.39231 13.3617 9.72261 13.3652 10.0529 13.3708C10.557 13.379 11.0607 13.3789 11.5649 13.3775C11.8866 13.3796 12.2083 13.3821 12.53 13.3851C12.755 13.3852 12.755 13.3852 12.9845 13.3853C13.8657 13.4046 14.4487 13.5145 15.1484 14.0626C15.4305 14.6268 15.4174 14.9994 15.3438 15.6251C14.9577 16.1421 14.6452 16.5326 13.9988 16.6933C13.5572 16.7309 13.1257 16.7371 12.6826 16.7314C12.4411 16.7328 12.4411 16.7328 12.1946 16.7342C11.8551 16.7349 11.5156 16.7331 11.1762 16.729C10.6577 16.7238 10.1401 16.729 9.6217 16.7352C9.2911 16.7346 8.96049 16.7333 8.62988 16.7314C8.47564 16.7334 8.3214 16.7353 8.16249 16.7374C7.34017 16.72 7.02942 16.6677 6.35938 16.1419C5.96875 15.6251 5.96875 15.6251 5.84668 15.0392C6.15655 13.5518 7.24095 13.332 8.58716 13.3607Z" fill="#E6E6E6"/>
<path d="M88.3891 8.35887C88.6185 8.3572 88.6185 8.3572 88.8525 8.3555C89.1759 8.35365 89.4993 8.35238 89.8228 8.35162C90.3162 8.34973 90.8094 8.34367 91.3028 8.33751C91.6173 8.33623 91.9319 8.33521 92.2465 8.33446C92.4669 8.33084 92.4669 8.33084 92.6917 8.32715C93.5716 8.33086 94.138 8.43724 94.8359 8.98448C95.1146 9.54175 95.0919 9.92873 95.0312 10.547C94.7436 11.0661 94.7436 11.0661 94.25 11.5235C93.6811 11.6688 93.1265 11.6605 92.5418 11.6532C92.2933 11.6546 92.2933 11.6546 92.0398 11.6561C91.69 11.6567 91.3401 11.6549 90.9903 11.6509C90.456 11.6456 89.9225 11.6508 89.3882 11.6571C89.0478 11.6564 88.7074 11.6552 88.367 11.6532C88.1283 11.6562 88.1283 11.6562 87.8848 11.6592C87.0502 11.6421 86.7234 11.594 86.0422 11.0645C85.6562 10.547 85.6562 10.547 85.5586 9.94884C85.6655 9.32066 85.7944 9.0416 86.2422 8.59386C86.964 8.35326 87.637 8.3631 88.3891 8.35887Z" fill="#E6E6E6"/>
<path d="M8.70163 8.35887C8.93101 8.3572 8.93101 8.3572 9.16503 8.3555C9.48844 8.35365 9.81187 8.35238 10.1353 8.35162C10.6287 8.34973 11.1219 8.34367 11.6153 8.33751C11.9299 8.33623 12.2445 8.33521 12.5591 8.33446C12.7794 8.33084 12.7794 8.33084 13.0043 8.32715C13.8841 8.33086 14.4505 8.43724 15.1485 8.98448C15.4306 9.54866 15.4174 9.92129 15.3438 10.547C14.956 11.0706 14.6431 11.4566 13.9899 11.6151C13.5349 11.6528 13.0896 11.6589 12.6331 11.6532C12.3843 11.6546 12.3843 11.6546 12.1305 11.6561C11.781 11.6567 11.4315 11.6549 11.082 11.6509C10.5473 11.6456 10.0134 11.6508 9.47868 11.6571C9.13854 11.6564 8.79839 11.6552 8.45825 11.6532C8.21897 11.6562 8.21897 11.6562 7.97485 11.6592C7.17207 11.6427 6.8644 11.6302 6.25798 11.0645C5.90616 10.4349 5.86287 10.0862 5.96878 9.37511C6.60604 8.25231 7.52927 8.36546 8.70163 8.35887Z" fill="#E6E6E6"/>
<path d="M60.3327 61.017C60.4902 61.017 60.6476 61.017 60.8098 61.017C61.1421 61.018 61.4744 61.0215 61.8067 61.0271C62.3147 61.0353 62.8222 61.0352 63.3303 61.0338C63.6536 61.0359 63.9768 61.0384 64.3 61.0414C64.4516 61.0415 64.6032 61.0415 64.7594 61.0416C65.3934 61.0554 65.8528 61.09 66.4115 61.4027C66.8168 61.8307 66.8783 62.1092 66.9062 62.6955C66.7562 63.3258 66.6169 63.5949 66.0994 63.9891C65.4016 64.3239 64.8904 64.3338 64.1177 64.3358C63.9831 64.3364 63.8486 64.3369 63.7099 64.3375C63.4264 64.3379 63.1429 64.3368 62.8595 64.3344C62.4282 64.3312 61.9973 64.3344 61.566 64.3381C61.2895 64.3377 61.0129 64.337 60.7363 64.3358C60.4869 64.3351 60.2374 64.3345 59.9803 64.3338C59.2321 64.2517 58.7554 64.0649 58.1172 63.6721C57.8385 63.1148 57.8612 62.7278 57.9219 62.1096C58.5267 61.0347 59.1856 60.9928 60.3327 61.017Z" fill="#E6E6E6"/>
<path d="M88.6836 89.1479C88.9581 89.1447 88.9581 89.1447 89.2383 89.1414C90.0794 89.1504 90.6039 89.1832 91.344 89.6064C91.7309 90.0625 91.8403 90.2325 91.8208 90.8203C91.8212 91.0136 91.8212 91.0136 91.8216 91.2109C91.6468 91.8281 91.4687 92.0194 90.9297 92.3828C90.2163 92.5048 89.5157 92.5006 88.7935 92.4926C88.5036 92.4996 88.5036 92.4996 88.2079 92.5068C87.2685 92.5049 86.7872 92.4977 86.0171 91.9242C85.6562 91.4062 85.6562 91.4062 85.5342 90.8203C85.8918 89.1038 87.224 89.1108 88.6836 89.1479Z" fill="#E6E6E6"/>
<path d="M8.99609 89.1479C9.27065 89.1447 9.27065 89.1447 9.55075 89.1414C10.3919 89.1504 10.9164 89.1832 11.6565 89.6064C12.0434 90.0625 12.1528 90.2325 12.1333 90.8203C12.1337 91.0136 12.1337 91.0136 12.1341 91.2109C11.9593 91.8281 11.7812 92.0194 11.2422 92.3828C10.5288 92.5048 9.82822 92.5006 9.10596 92.4926C8.81611 92.4996 8.81611 92.4996 8.5204 92.5068C7.58101 92.5049 7.09968 92.4977 6.32962 91.9242C5.96875 91.4062 5.96875 91.4062 5.84668 90.8203C6.20428 89.1038 7.53654 89.1108 8.99609 89.1479Z" fill="#E6E6E6"/>
<path d="M88.6836 18.4448C88.9581 18.4416 88.9581 18.4416 89.2383 18.4383C90.0794 18.4472 90.6039 18.48 91.344 18.9033C91.7309 19.3594 91.8403 19.5294 91.8208 20.1171C91.8212 20.3105 91.8212 20.3105 91.8216 20.5078C91.6468 21.125 91.4687 21.3163 90.9297 21.6796C90.2163 21.8017 89.5157 21.7975 88.7935 21.7895C88.5036 21.7965 88.5036 21.7965 88.2079 21.8036C87.2685 21.8017 86.7872 21.7946 86.0171 21.2211C85.6562 20.7031 85.6562 20.7031 85.5342 20.1171C85.8918 18.4007 87.224 18.4076 88.6836 18.4448Z" fill="#E6E6E6"/>
<path d="M8.99609 18.4448C9.27065 18.4416 9.27065 18.4416 9.55075 18.4383C10.3919 18.4472 10.9164 18.48 11.6565 18.9033C12.0434 19.3594 12.1528 19.5294 12.1333 20.1171C12.1337 20.3105 12.1337 20.3105 12.1341 20.5078C11.9593 21.125 11.7812 21.3163 11.2422 21.6796C10.5288 21.8017 9.82822 21.7975 9.10596 21.7895C8.81611 21.7965 8.81611 21.7965 8.5204 21.8036C7.58101 21.8017 7.09968 21.7946 6.32962 21.2211C5.96875 20.7031 5.96875 20.7031 5.84668 20.1171C6.20428 18.4007 7.53654 18.4076 8.99609 18.4448Z" fill="#E6E6E6"/>
</g>
<defs>
<clipPath id="clip0_178_757">
<rect width="100" height="100" fill="white" transform="translate(0.5)"/>
</clipPath>
</defs>
</svg>
