<svg width="35" height="33" viewBox="0 0 35 33" fill="none" xmlns="http://www.w3.org/2000/svg">
<path d="M13.4615 0C6.12096 0 0 5.04808 0 11.4423C0 14.7135 1.79038 17.5646 4.33327 19.6458C4.16776 20.7512 3.71831 21.7948 3.02885 22.6746C2.74735 23.0357 2.4528 23.3864 2.14577 23.726C1.98696 23.8932 1.84577 24.0764 1.72442 24.2725C1.64769 24.3977 1.52788 24.5377 1.47269 24.8204C1.4175 25.1031 1.49288 25.5648 1.72442 25.9135L1.89269 26.2083L2.22923 26.3765C3.40712 26.9648 4.67923 26.8612 5.84769 26.5448C7.01481 26.2271 8.1375 25.6833 9.21308 25.1138C10.2887 24.5444 11.309 23.9508 12.1154 23.516C12.2285 23.4554 12.3012 23.4406 12.4102 23.3894C14.5331 26.3079 18.4208 28.2692 22.7581 28.2692C22.7998 28.2746 22.8388 28.2692 22.8846 28.2692C24.6346 28.2692 30.2885 34.0496 33.6538 31.7612C33.7885 31.224 30.695 29.8765 30.5402 25.8717C33.1746 24.01 34.8748 21.241 34.8748 18.1731C34.8748 13.6338 31.2725 9.88346 26.4613 8.54C24.9388 3.58615 19.6458 0 13.4615 0ZM13.4615 2.69231C19.5825 2.69231 24.2308 6.79808 24.2308 11.4423C24.2308 16.0865 19.5825 20.1923 13.4615 20.1923C12.3685 20.1923 11.7412 20.6392 10.8527 21.1185C9.96423 21.5977 8.94519 22.19 7.95038 22.7163C7.08885 23.1713 6.26769 23.5213 5.51115 23.7677C6.2475 22.7042 7.01615 21.3056 7.15077 19.351L7.19385 18.5931L6.5625 18.1313C4.16365 16.45 2.69231 14.031 2.69231 11.4423C2.69231 6.79808 7.34058 2.69231 13.4615 2.69231Z" fill="#322662" fill-opacity="0.6"/>
</svg>
