<svg width="500" height="317" viewBox="0 0 500 317" fill="none" xmlns="http://www.w3.org/2000/svg">
<g clip-path="url(#clip0_178_506)">
<path d="M447.708 47.6569H285.1V44.3057H211.368V47.6569H48.0904C45.173 47.6569 42.375 48.8159 40.3121 50.8788C38.2492 52.9417 37.0903 55.7396 37.0903 58.657V281.315C37.0903 284.232 38.2492 287.03 40.3121 289.093C42.375 291.156 45.173 292.315 48.0904 292.315H447.708C450.625 292.315 453.423 291.156 455.486 289.093C457.549 287.03 458.708 284.232 458.708 281.315V58.6558C458.707 55.7386 457.548 52.941 455.486 50.8784C453.423 48.8157 450.625 47.6569 447.708 47.6569Z" fill="#E6E6E6"/>
<path d="M443.96 67.0947H51.8379V288.292H443.96V67.0947Z" fill="#E6E6E6"/>
<path d="M427.464 78.792H68.4673V269.989H427.464V78.792Z" fill="white"/>
<path d="M247.564 61.0633C249.785 61.0633 251.586 59.2627 251.586 57.0414C251.586 54.8202 249.785 53.0195 247.564 53.0195C245.343 53.0195 243.542 54.8202 243.542 57.0414C243.542 59.2627 245.343 61.0633 247.564 61.0633Z" fill="#E6E6E6"/>
<path d="M469.717 284.27H431.448V281.513C431.448 281.368 431.391 281.229 431.288 281.126C431.186 281.023 431.046 280.966 430.901 280.966H417.781C417.636 280.966 417.497 281.023 417.394 281.126C417.291 281.229 417.234 281.368 417.234 281.513V284.27H409.034V281.513C409.034 281.368 408.976 281.229 408.874 281.126C408.771 281.023 408.632 280.966 408.487 280.966H395.366C395.221 280.966 395.082 281.023 394.979 281.126C394.877 281.229 394.819 281.368 394.819 281.513V284.27H386.619V281.513C386.619 281.368 386.562 281.229 386.459 281.126C386.356 281.023 386.217 280.966 386.072 280.966H372.952C372.807 280.966 372.667 281.023 372.565 281.126C372.462 281.229 372.405 281.368 372.405 281.513V284.27H364.205V281.513C364.205 281.368 364.147 281.229 364.044 281.126C363.942 281.023 363.803 280.966 363.658 280.966H350.538C350.393 280.966 350.254 281.023 350.151 281.126C350.048 281.229 349.991 281.368 349.991 281.513V284.27H341.79V281.513C341.79 281.368 341.732 281.229 341.63 281.126C341.527 281.023 341.388 280.966 341.243 280.966H328.123C327.978 280.966 327.839 281.023 327.736 281.126C327.634 281.229 327.576 281.368 327.576 281.513V284.27H319.376V281.513C319.376 281.368 319.318 281.229 319.215 281.126C319.113 281.023 318.974 280.966 318.829 280.966H305.711C305.566 280.966 305.427 281.023 305.324 281.126C305.222 281.229 305.164 281.368 305.164 281.513V284.27H296.961V281.513C296.961 281.368 296.903 281.229 296.801 281.126C296.698 281.023 296.559 280.966 296.414 280.966H193.636C193.491 280.966 193.352 281.023 193.249 281.126C193.147 281.229 193.089 281.368 193.089 281.513V284.27H184.889V281.513C184.889 281.368 184.831 281.229 184.729 281.126C184.626 281.023 184.487 280.966 184.342 280.966H171.221C171.076 280.966 170.937 281.023 170.835 281.126C170.732 281.229 170.674 281.368 170.674 281.513V284.27H162.474V281.513C162.474 281.368 162.417 281.229 162.314 281.126C162.212 281.023 162.073 280.966 161.927 280.966H148.807C148.662 280.966 148.523 281.023 148.421 281.126C148.318 281.229 148.261 281.368 148.261 281.513V284.27H140.06V281.513C140.06 281.368 140.002 281.229 139.9 281.126C139.797 281.023 139.658 280.966 139.513 280.966H126.393C126.248 280.966 126.109 281.023 126.006 281.126C125.904 281.229 125.846 281.368 125.846 281.513V284.27H117.647V281.513C117.647 281.368 117.59 281.229 117.487 281.126C117.384 281.023 117.245 280.966 117.1 280.966H103.978C103.833 280.966 103.694 281.023 103.592 281.126C103.489 281.229 103.431 281.368 103.431 281.513V284.27H95.2314V281.513C95.2314 281.368 95.1737 281.229 95.0712 281.126C94.9686 281.023 94.8295 280.966 94.6845 280.966H81.5638C81.4187 280.966 81.2796 281.023 81.177 281.126C81.0745 281.229 81.0169 281.368 81.0169 281.513V284.27H72.8168V281.513C72.8168 281.368 72.7592 281.229 72.6566 281.126C72.5541 281.023 72.415 280.966 72.2699 280.966H59.1467C59.0017 280.966 58.8626 281.023 58.76 281.126C58.6575 281.229 58.5998 281.368 58.5998 281.513V284.27H33.4546C29.9748 284.27 26.6375 285.653 24.1769 288.113C21.7163 290.574 20.3339 293.911 20.3339 297.391V303.324C20.3339 306.803 21.7163 310.141 24.1769 312.601C26.6375 315.062 29.9748 316.444 33.4546 316.444H469.717C473.196 316.444 476.534 315.062 478.994 312.601C481.455 310.141 482.837 306.804 482.837 303.324V297.392C482.837 293.912 481.455 290.574 478.994 288.114C476.534 285.653 473.197 284.271 469.717 284.271V284.27Z" fill="#E6E6E6"/>
<path d="M327.342 92.2021H168.591V259.078H327.342V92.2021Z" fill="#E6E6E6"/>
<path d="M592.838 315.888H-70.2917V317.138H592.838V315.888Z" fill="#E6E6E6"/>
<path d="M267.121 139.443C278.773 139.443 288.219 129.997 288.219 118.344C288.219 106.692 278.773 97.2461 267.121 97.2461C255.469 97.2461 246.023 106.692 246.023 118.344C246.023 129.997 255.469 139.443 267.121 139.443Z" fill="#A0616A"/>
<path d="M218.577 259.422L232.202 173.649C232.926 169.088 234.613 164.734 237.151 160.877C239.689 157.019 243.02 153.746 246.921 151.276C250.822 148.806 255.205 147.194 259.777 146.549C264.349 145.904 269.007 146.24 273.439 147.535C281.188 149.777 287.824 154.827 292.05 161.699C296.275 168.571 297.787 176.771 296.29 184.698L282.04 261.298L218.577 259.422Z" fill="#322662"/>
<path d="M272.946 274.77C274 274.074 274.888 273.155 275.548 272.079C276.209 271.003 276.625 269.794 276.768 268.54C276.911 267.285 276.777 266.014 276.376 264.817C275.975 263.62 275.316 262.525 274.446 261.61L288.53 234.335L272.669 236.027L261.726 261.669C260.291 263.234 259.479 265.27 259.443 267.393C259.407 269.515 260.15 271.578 261.531 273.19C262.912 274.803 264.835 275.854 266.938 276.145C269.041 276.436 271.178 275.947 272.945 274.77L272.946 274.77Z" fill="#A0616A"/>
<path d="M275.962 256.798C275.183 256.688 274.456 256.344 273.878 255.81L268.489 250.83C267.907 250.29 267.505 249.584 267.337 248.807C267.169 248.031 267.244 247.222 267.551 246.489L278.321 220.961L276.793 170.52C277.24 167.247 278.968 164.286 281.597 162.288C284.227 160.29 287.543 159.418 290.815 159.864C294.087 160.311 297.048 162.039 299.047 164.668C301.045 167.298 301.917 170.614 301.47 173.886L304.083 205.594C304.877 215.218 302.149 224.802 296.405 232.565L279.61 255.27C279.286 255.707 278.875 256.07 278.402 256.337C277.929 256.604 277.406 256.768 276.865 256.82C276.564 256.848 276.261 256.841 275.962 256.798Z" fill="#322662"/>
<path d="M145.622 106.849C145.852 108.091 146.351 109.267 147.085 110.295C147.818 111.323 148.768 112.177 149.868 112.798C150.967 113.419 152.19 113.792 153.449 113.889C154.708 113.987 155.973 113.807 157.155 113.363L176.78 136.966L181.405 121.7L162.06 101.626C161.177 99.6956 159.619 98.1553 157.679 97.2956C155.738 96.4359 153.551 96.3161 151.528 96.9588C149.505 97.6016 147.788 98.9624 146.7 100.785C145.612 102.607 145.228 104.764 145.622 106.849Z" fill="#A0616A"/>
<path d="M160.995 116.633C161.4 115.958 162.001 115.423 162.718 115.099L169.406 112.078C170.13 111.753 170.938 111.658 171.718 111.806C172.498 111.955 173.215 112.339 173.769 112.908L193.078 132.779L240.124 151.038C241.531 151.873 242.759 152.977 243.74 154.286C244.72 155.596 245.433 157.086 245.837 158.672C246.241 160.257 246.329 161.906 246.095 163.526C245.862 165.145 245.311 166.702 244.476 168.109C243.64 169.515 242.536 170.743 241.225 171.723C239.915 172.702 238.424 173.414 236.838 173.817C235.253 174.22 233.603 174.307 231.984 174.072C230.365 173.837 228.808 173.286 227.402 172.45L197.185 162.492C188.014 159.471 180.251 153.222 175.343 144.906L160.982 120.587C160.707 120.12 160.532 119.599 160.471 119.06C160.409 118.52 160.462 117.974 160.626 117.456C160.716 117.168 160.841 116.892 160.997 116.633L160.995 116.633Z" fill="#322662"/>
<path opacity="0.1" d="M284.234 191.503L283.375 218.991L267.551 246.491L280.764 215.847L284.234 191.503Z" fill="black"/>
<path d="M252.832 107.768C255.009 110.344 258.691 111.07 262.089 111.368C268.988 111.974 279.021 110.994 285.763 109.435C286.245 114.1 284.933 119.129 287.68 122.965C288.968 118.32 289.716 113.542 289.912 108.726C289.995 106.663 289.962 104.523 289.123 102.627C288.283 100.731 286.453 99.1215 284.345 99.1047C285.911 97.9165 287.745 97.1322 289.687 96.8209L283.011 93.4665L284.726 91.7065L272.641 90.9671L276.141 88.7433C270.873 88.0201 265.543 87.8525 260.24 88.2433C257.778 88.4246 255.202 88.7715 253.207 90.1984C251.212 91.6252 250.059 94.4609 251.298 96.5559C249.747 96.8105 248.287 97.4569 247.056 98.4337C245.825 99.4105 244.864 100.686 244.263 102.138C243.374 104.393 243.455 106.898 243.729 109.301C244.185 113.144 245.078 116.923 246.392 120.564" fill="#2F2E41"/>
<path d="M343.027 54.9148L150.777 99.2993C149.833 99.516 148.841 99.3495 148.02 98.8362C147.198 98.3228 146.614 97.5046 146.395 96.561L135.385 48.872C135.168 47.9279 135.335 46.9363 135.848 46.1148C136.361 45.2933 137.18 44.709 138.123 44.4899L330.373 0.105485C331.317 -0.111295 332.309 0.0552471 333.13 0.568574C333.952 1.0819 334.536 1.9001 334.755 2.8437L345.765 50.5328C345.982 51.4769 345.815 52.4685 345.302 53.2899C344.789 54.1114 343.971 54.6958 343.027 54.9148Z" fill="white"/>
<path d="M343.027 54.9148L150.777 99.2993C149.833 99.516 148.841 99.3495 148.02 98.8362C147.198 98.3228 146.614 97.5046 146.395 96.561L135.385 48.872C135.168 47.9279 135.335 46.9363 135.848 46.1148C136.361 45.2933 137.18 44.709 138.123 44.4899L330.373 0.105485C331.317 -0.111295 332.309 0.0552471 333.13 0.568574C333.952 1.0819 334.536 1.9001 334.755 2.8437L345.765 50.5328C345.982 51.4769 345.815 52.4685 345.302 53.2899C344.789 54.1114 343.971 54.6958 343.027 54.9148ZM138.452 45.9143C137.886 46.0457 137.395 46.3964 137.087 46.8893C136.779 47.3823 136.679 47.9773 136.809 48.5438L147.819 96.233C147.95 96.7993 148.301 97.2904 148.794 97.5984C149.287 97.9065 149.882 98.0063 150.448 97.8761L342.698 53.4916C343.265 53.3603 343.756 53.0097 344.064 52.5167C344.372 52.0237 344.472 51.4286 344.342 50.8621L333.332 3.17238C333.2 2.60605 332.85 2.11494 332.357 1.80687C331.864 1.4988 331.269 1.39896 330.702 1.52925L138.452 45.9143Z" fill="#E6E6E6"/>
<path d="M205.161 45.7667C204.843 45.8393 204.543 45.9739 204.278 46.1625C204.012 46.3512 203.786 46.5904 203.613 46.8664C203.44 47.1424 203.322 47.4498 203.268 47.771C203.214 48.0923 203.223 48.4212 203.296 48.7388C203.369 49.0564 203.503 49.3565 203.692 49.6221C203.881 49.8877 204.12 50.1135 204.396 50.2866C204.672 50.4597 204.98 50.5767 205.301 50.631C205.622 50.6852 205.951 50.6756 206.269 50.6028L206.277 50.6008L320.223 24.2943C320.863 24.1455 321.418 23.7487 321.766 23.191C322.114 22.6334 322.226 21.9605 322.078 21.3201C321.931 20.6797 321.535 20.1242 320.978 19.7754C320.42 19.4267 319.748 19.3133 319.107 19.4602L205.161 45.7667Z" fill="#E6E6E6"/>
<path d="M208.509 60.2699C208.192 60.3425 207.891 60.477 207.626 60.6657C207.36 60.8544 207.134 61.0935 206.961 61.3695C206.788 61.6455 206.671 61.9529 206.616 62.2742C206.562 62.5955 206.571 62.9243 206.644 63.2419C206.717 63.5595 206.852 63.8597 207.04 64.1253C207.229 64.3909 207.468 64.6166 207.744 64.7897C208.02 64.9628 208.328 65.0798 208.649 65.1341C208.97 65.1883 209.299 65.1788 209.617 65.1059L209.625 65.104L258.657 53.7842C259.298 53.6372 259.854 53.2415 260.204 52.6842C260.553 52.127 260.667 51.4537 260.52 50.8126C260.373 50.1714 259.978 49.6148 259.42 49.2652C258.863 48.9156 258.19 48.8015 257.549 48.9482L257.54 48.9501L208.509 60.2699Z" fill="#E6E6E6"/>
<path d="M174.01 77.9103C182.231 77.9103 188.894 71.2466 188.894 63.0264C188.894 54.8063 182.231 48.1426 174.01 48.1426C165.79 48.1426 159.127 54.8063 159.127 63.0264C159.127 71.2466 165.79 77.9103 174.01 77.9103Z" fill="#322662"/>
<path d="M173.592 71.6123C173.105 71.7255 172.594 71.6773 172.137 71.4748L172.108 71.4622L166.119 68.7434C165.841 68.6174 165.591 68.4378 165.382 68.215C165.173 67.9921 165.011 67.7302 164.903 67.4444C164.796 67.1586 164.746 66.8545 164.757 66.5494C164.767 66.2443 164.837 65.9442 164.964 65.6663C165.09 65.3884 165.27 65.1381 165.493 64.9298C165.716 64.7215 165.978 64.5593 166.264 64.4524C166.55 64.3454 166.854 64.2959 167.16 64.3066C167.465 64.3174 167.765 64.3882 168.042 64.5149L171.923 66.2817L177.367 54.3191C177.622 53.759 178.089 53.3231 178.665 53.1073C179.242 52.8915 179.88 52.9135 180.44 53.1683L180.408 53.2464L180.442 53.1679C181.002 53.4235 181.437 53.8906 181.653 54.4669C181.869 55.0431 181.847 55.6814 181.592 56.2417L175.189 70.314C175.041 70.6382 174.82 70.9239 174.543 71.1488C174.267 71.3738 173.942 71.532 173.594 71.6112L173.592 71.6123Z" fill="white"/>
</g>
<defs>
<clipPath id="clip0_178_506">
<rect width="500" height="316.976" fill="white" transform="translate(0 0.0117188)"/>
</clipPath>
</defs>
</svg>
