<svg width="27" height="29" viewBox="0 0 27 29" fill="none" xmlns="http://www.w3.org/2000/svg">
<path fill-rule="evenodd" clip-rule="evenodd" d="M3.29158 11.1253C3.29158 8.41791 4.36709 5.82138 6.28153 3.90694C8.19596 1.99251 10.7925 0.916992 13.4999 0.916992C16.2073 0.916992 18.8039 1.99251 20.7183 3.90694C22.6327 5.82138 23.7082 8.41791 23.7082 11.1253V16.6145L26.3653 21.9287C26.4876 22.1733 26.5454 22.445 26.5331 22.7182C26.5208 22.9914 26.4389 23.257 26.2951 23.4896C26.1513 23.7222 25.9505 23.9142 25.7116 24.0473C25.4727 24.1805 25.2038 24.2504 24.9303 24.2503H19.1495C18.8251 25.5019 18.0943 26.6104 17.0717 27.4017C16.0492 28.193 14.7929 28.6223 13.4999 28.6223C12.207 28.6223 10.9506 28.193 9.92807 27.4017C8.90553 26.6104 8.17471 25.5019 7.85033 24.2503H2.06949C1.79602 24.2504 1.52708 24.1805 1.28821 24.0473C1.04935 23.9142 0.848485 23.7222 0.704703 23.4896C0.560922 23.257 0.478997 22.9914 0.466709 22.7182C0.45442 22.445 0.512176 22.1733 0.634492 21.9287L3.29158 16.6145V11.1253ZM10.9741 24.2503C11.2301 24.6937 11.5983 25.0618 12.0416 25.3178C12.485 25.5738 12.988 25.7085 13.4999 25.7085C14.0119 25.7085 14.5148 25.5738 14.9582 25.3178C15.4016 25.0618 15.7697 24.6937 16.0257 24.2503H10.9741ZM13.4999 3.83366C11.566 3.83366 9.71137 4.60189 8.34392 5.96934C6.97647 7.33679 6.20824 9.19145 6.20824 11.1253V16.6145C6.20821 17.0671 6.10286 17.5134 5.90053 17.9182L4.19428 21.3337H22.807L21.1007 17.9182C20.8979 17.5135 20.7921 17.0672 20.7916 16.6145V11.1253C20.7916 9.19145 20.0233 7.33679 18.6559 5.96934C17.2884 4.60189 15.4338 3.83366 13.4999 3.83366Z" fill="#322662" fill-opacity="0.6"/>
</svg>
