<svg width="27" height="31" viewBox="0 0 27 31" fill="none" xmlns="http://www.w3.org/2000/svg">
<path fill-rule="evenodd" clip-rule="evenodd" d="M20.0625 27.5312H6.9375C6.06726 27.5312 5.23266 27.1855 4.61731 26.5702C4.00195 25.9548 3.65625 25.1202 3.65625 24.25V6.75C3.65625 5.87976 4.00195 5.04516 4.61731 4.42981C5.23266 3.81445 6.06726 3.46875 6.9375 3.46875H11.3125V8.9375C11.3125 10.678 12.0039 12.3472 13.2346 13.5779C14.4653 14.8086 16.1345 15.5 17.875 15.5H23.3438V24.25C23.3438 25.1202 22.998 25.9548 22.3827 26.5702C21.7673 27.1855 20.9327 27.5312 20.0625 27.5312ZM22.9128 12.2188C22.7682 11.9643 22.5901 11.7304 22.3834 11.5231L15.2894 4.42906C15.0821 4.22237 14.8482 4.04433 14.5938 3.89969V8.9375C14.5938 9.80774 14.9395 10.6423 15.5548 11.2577C16.1702 11.873 17.0048 12.2188 17.875 12.2188H22.9128ZM24.7022 9.20219C25.3119 9.81169 25.7955 10.5354 26.1254 11.3318C26.4553 12.1283 26.6251 12.982 26.625 13.8441V24.25C26.625 25.9905 25.9336 27.6597 24.7029 28.8904C23.4722 30.1211 21.803 30.8125 20.0625 30.8125H6.9375C5.19702 30.8125 3.52782 30.1211 2.29711 28.8904C1.0664 27.6597 0.375 25.9905 0.375 24.25V6.75C0.375 5.00952 1.0664 3.34032 2.29711 2.10961C3.52782 0.878904 5.19702 0.1875 6.9375 0.1875H12.9684C13.8305 0.187397 14.6842 0.357156 15.4807 0.68708C16.2771 1.017 17.0008 1.50062 17.6103 2.11031L24.7022 9.20219Z" fill="#322662" fill-opacity="0.6"/>
</svg>
