<svg width="150" height="150" viewBox="0 0 150 150" fill="none" xmlns="http://www.w3.org/2000/svg">
<path d="M0 66.6667V0H66.6667V66.6667H0ZM16.6667 50H50V16.6667H16.6667V50ZM0 150V83.3333H66.6667V150H0ZM16.6667 133.333H50V100H16.6667V133.333ZM83.3333 66.6667V0H150V66.6667H83.3333ZM100 50H133.333V16.6667H100V50ZM133.333 150V133.333H150V150H133.333ZM83.3333 100V83.3333H100V100H83.3333ZM100 116.667V100H116.667V116.667H100ZM83.3333 133.333V116.667H100V133.333H83.3333ZM100 150V133.333H116.667V150H100ZM116.667 133.333V116.667H133.333V133.333H116.667ZM116.667 100V83.3333H133.333V100H116.667ZM133.333 116.667V100H150V116.667H133.333Z" fill="#E6E6E6"/>
</svg>
