<svg width="350" height="342" viewBox="0 0 350 342" fill="none" xmlns="http://www.w3.org/2000/svg">
<g clip-path="url(#clip0_123_1046)">
<path d="M223.235 76.4519H204.613V235.221C204.613 237.712 204.122 240.178 203.169 242.48C202.216 244.781 200.818 246.872 199.057 248.634C197.295 250.395 195.204 251.792 192.903 252.746C190.602 253.699 188.135 254.19 185.644 254.19H43.2659V254.371C43.2659 256.862 43.7565 259.329 44.7098 261.63C45.663 263.932 47.0603 266.023 48.8217 267.784C50.5831 269.546 52.6743 270.943 54.9757 271.896C57.2771 272.849 59.7438 273.34 62.2348 273.34H223.235C225.726 273.34 228.193 272.849 230.495 271.896C232.796 270.943 234.887 269.546 236.648 267.784C238.41 266.023 239.807 263.932 240.76 261.63C241.714 259.329 242.204 256.862 242.204 254.371V95.4208C242.204 90.39 240.206 85.5651 236.648 82.0078C233.091 78.4504 228.266 76.4519 223.235 76.4519Z" fill="#F2F2F2"/>
<path d="M311.516 328.76C311.845 328.775 312.172 328.689 312.45 328.512C312.729 328.336 312.947 328.078 313.074 327.773C313.202 327.469 313.232 327.133 313.162 326.81C313.092 326.488 312.924 326.194 312.682 325.97L312.572 325.532C312.586 325.497 312.601 325.462 312.616 325.427C312.948 324.642 313.504 323.973 314.215 323.504C314.926 323.035 315.76 322.786 316.612 322.789C317.464 322.793 318.296 323.047 319.003 323.522C319.711 323.996 320.263 324.669 320.589 325.456C321.893 328.597 323.553 331.743 323.962 335.064C324.142 336.532 324.066 338.02 323.738 339.462C326.8 332.781 328.391 325.519 328.401 318.169C328.402 316.325 328.299 314.482 328.094 312.649C327.925 311.146 327.69 309.654 327.389 308.173C325.747 300.136 322.222 292.603 317.104 286.193C314.627 284.841 312.623 282.763 311.364 280.237C310.908 279.33 310.585 278.36 310.406 277.36C310.686 277.397 311.46 273.141 311.249 272.88C311.639 272.289 312.336 271.995 312.761 271.419C314.876 268.551 317.791 269.052 319.312 272.949C322.562 274.589 322.594 277.309 320.599 279.926C319.331 281.59 319.156 283.843 318.043 285.625C318.158 285.771 318.277 285.913 318.391 286.06C320.485 288.752 322.31 291.643 323.839 294.691C323.467 291.276 323.911 287.822 325.135 284.612C326.375 281.621 328.699 279.102 330.745 276.516C331.287 275.821 332.022 275.303 332.858 275.026C333.694 274.749 334.593 274.726 335.442 274.96C336.291 275.194 337.052 275.674 337.628 276.341C338.204 277.007 338.569 277.829 338.678 278.703C338.682 278.741 338.686 278.779 338.69 278.817C338.386 278.989 338.089 279.171 337.798 279.363C337.432 279.608 337.148 279.957 336.984 280.365C336.82 280.773 336.784 281.221 336.879 281.651C336.974 282.08 337.197 282.471 337.518 282.772C337.839 283.073 338.243 283.269 338.678 283.336L338.722 283.343C338.614 284.439 338.423 285.525 338.15 286.591C340.775 296.745 335.107 300.443 327.013 300.61C326.834 300.701 326.66 300.793 326.482 300.88C328.018 305.235 328.982 309.772 329.349 314.376C329.557 317.092 329.545 319.82 329.313 322.535L329.326 322.439C329.913 319.42 331.523 316.697 333.885 314.729C337.392 311.847 342.348 310.786 346.133 308.47C346.535 308.211 347.002 308.074 347.48 308.072C347.958 308.071 348.427 308.207 348.83 308.463C349.234 308.719 349.555 309.086 349.757 309.519C349.959 309.952 350.033 310.434 349.971 310.908L349.955 311.009C349.391 311.238 348.842 311.503 348.311 311.801C348.007 311.973 347.709 312.155 347.418 312.347C347.052 312.592 346.769 312.941 346.605 313.349C346.441 313.757 346.404 314.205 346.499 314.635C346.594 315.064 346.817 315.455 347.138 315.756C347.459 316.057 347.863 316.253 348.298 316.32L348.343 316.327C348.375 316.332 348.402 316.337 348.434 316.341C347.47 318.643 346.118 320.761 344.435 322.603C342.793 331.467 335.742 332.308 328.2 329.727H328.195C327.367 333.323 326.168 336.824 324.617 340.172H311.836C311.79 340.03 311.749 339.883 311.708 339.741C312.891 339.816 314.078 339.745 315.244 339.531C314.296 338.367 313.348 337.194 312.399 336.031C312.378 336.009 312.358 335.986 312.34 335.962C311.859 335.366 311.373 334.775 310.892 334.18L310.892 334.179C310.866 332.354 311.076 330.532 311.516 328.76Z" fill="#F2F2F2"/>
<path d="M170.74 54.855C171.207 55.562 171.821 56.1591 172.541 56.6052C173.262 57.0513 174.07 57.3357 174.911 57.4386C175.752 57.5415 176.605 57.4605 177.411 57.2013C178.218 56.9421 178.958 56.5107 179.582 55.9372L206.155 67.9259L211.278 61.3911L179.613 47.3827C178.569 46.4052 177.203 45.8445 175.774 45.8067C174.345 45.769 172.951 46.2569 171.857 47.1779C170.764 48.099 170.046 49.3892 169.84 50.8041C169.634 52.2191 169.954 53.6604 170.74 54.855Z" fill="#A0616A"/>
<path d="M284.78 62.3307L287.415 77.2654C287.538 77.9621 287.514 78.6769 287.345 79.3638C287.175 80.0507 286.864 80.6945 286.431 81.2539C285.997 81.8134 285.452 82.2761 284.83 82.6123C284.207 82.9485 283.521 83.1509 282.816 83.2063L238.033 86.728L185.393 63.169L191.68 51.2339L237.377 65.7046L284.78 62.3307Z" fill="#9AA4F3"/>
<path d="M179.97 51.6274H18.9689C8.49268 51.6274 0 60.1201 0 70.5964V229.547C0 240.023 8.49268 248.516 18.9689 248.516H179.97C190.446 248.516 198.939 240.023 198.939 229.547V70.5964C198.939 60.1201 190.446 51.6274 179.97 51.6274Z" fill="#F2F2F2"/>
<path d="M18.9691 55.5283C16.9903 55.5283 15.0309 55.9181 13.2028 56.6753C11.3747 57.4325 9.71361 58.5424 8.31442 59.9416C6.91523 61.3408 5.80533 63.0019 5.04809 64.83C4.29085 66.6581 3.90112 68.6175 3.90112 70.5963V229.547C3.90112 233.543 5.48863 237.376 8.31442 240.201C11.1402 243.027 14.9728 244.615 18.9691 244.615H121.724C131.351 244.615 140.885 242.718 149.78 239.034C158.674 235.35 166.756 229.949 173.564 223.142C180.372 216.334 185.772 208.252 189.457 199.357C193.141 190.462 195.037 180.929 195.037 171.301V70.5963C195.037 68.6175 194.648 66.6581 193.89 64.83C193.133 63.0019 192.023 61.3408 190.624 59.9416C189.225 58.5424 187.564 57.4325 185.736 56.6753C183.908 55.9181 181.948 55.5283 179.969 55.5283H18.9691Z" fill="white"/>
<path d="M144.476 103.767H54.1101C53.2809 103.767 52.4856 103.438 51.8993 102.851C51.313 102.265 50.9836 101.47 50.9836 100.64C50.9836 99.8112 51.313 99.016 51.8993 98.4296C52.4856 97.8433 53.2809 97.5139 54.1101 97.5139H144.476C145.306 97.5139 146.101 97.8433 146.687 98.4296C147.273 99.016 147.603 99.8112 147.603 100.64C147.603 101.47 147.273 102.265 146.687 102.851C146.101 103.438 145.306 103.767 144.476 103.767Z" fill="#F2F2F2"/>
<path d="M144.476 170.439H54.1101C53.2809 170.439 52.4856 170.11 51.8993 169.523C51.313 168.937 50.9836 168.142 50.9836 167.313C50.9836 166.483 51.313 165.688 51.8993 165.102C52.4856 164.515 53.2809 164.186 54.1101 164.186H144.476C145.306 164.186 146.101 164.515 146.687 165.102C147.273 165.688 147.603 166.483 147.603 167.313C147.603 168.142 147.273 168.937 146.687 169.523C146.101 170.11 145.306 170.439 144.476 170.439Z" fill="#F2F2F2"/>
<path d="M181.172 137.125H17.4143C16.5851 137.125 15.7899 136.796 15.2036 136.209C14.6172 135.623 14.2878 134.828 14.2878 133.999C14.2878 133.169 14.6172 132.374 15.2036 131.788C15.7899 131.201 16.5851 130.872 17.4143 130.872H181.172C182.001 130.872 182.797 131.201 183.383 131.788C183.969 132.374 184.299 133.169 184.299 133.999C184.299 134.828 183.969 135.623 183.383 136.209C182.797 136.796 182.001 137.125 181.172 137.125Z" fill="#F2F2F2"/>
<path d="M279.122 128.157L262.809 162.911L325.563 156.556L312.464 123.192L279.122 128.157Z" fill="#A0616A"/>
<path d="M293.712 327.912L287.762 327.862L285.128 304.377L293.909 304.452L293.712 327.912Z" fill="#A0616A"/>
<path d="M274.653 337.373C274.648 338.079 274.923 338.757 275.417 339.261C275.912 339.764 276.585 340.05 277.291 340.057L289.121 340.156L291.191 335.958L291.952 340.177L296.416 340.218L295.289 325.169L293.736 325.066L287.401 324.629L285.358 324.492L285.322 328.75L275.819 335.195C275.463 335.437 275.171 335.762 274.968 336.141C274.765 336.52 274.657 336.943 274.653 337.373Z" fill="#2F2E41"/>
<path d="M227.866 327.939L222.193 326.143L226.576 302.921L234.948 305.571L227.866 327.939Z" fill="#A0616A"/>
<path d="M206.869 331.384C206.657 332.056 206.72 332.786 207.045 333.412C207.37 334.038 207.93 334.509 208.602 334.723L219.881 338.293L223.093 334.889L222.581 339.146L226.836 340.496L230.18 325.781L228.726 325.226L222.799 322.947L220.886 322.216L219.601 326.275L208.623 329.644C208.212 329.77 207.838 329.995 207.532 330.298C207.227 330.601 206.999 330.973 206.869 331.384Z" fill="#2F2E41"/>
<path d="M322.705 146.782L265.646 157.237C265.646 157.237 256.494 164.083 258.942 166.535C261.39 168.987 261.77 168.607 260.162 170.215C258.553 171.824 255.075 173.974 255.041 175.381C255.007 176.789 229.473 239.914 229.473 239.914C229.473 239.914 232.31 238.496 230.182 240.623C228.054 242.751 228.054 244.509 228.054 244.509L218.125 311.551L234.251 312.5L250.042 251.38L285.264 194.28C285.264 194.28 288.759 245.199 288.906 248.585C289.052 251.972 291.18 247.716 289.052 251.972C286.924 256.228 285.506 253.39 286.924 256.228C288.343 259.065 281.814 316.824 281.814 316.824H296.534L328.104 197.105C328.104 197.105 339.336 162.878 322.705 146.782Z" fill="#2F2E41"/>
<path d="M305.896 51.0214L283.04 48.6465L277.118 56.3345L270.22 60.0087C267.3 61.5636 264.891 63.9265 263.279 66.8147C261.667 69.703 260.921 72.9944 261.13 76.2954L269.192 123.192C269.192 123.192 262.383 138.526 267.065 142.342C271.746 146.159 263.445 155.611 273.448 150.854C283.451 146.097 326.644 151.563 326.644 151.563L317.423 125.32L324.311 99.5323L325.069 77.9098C325.211 73.8693 324.012 69.8954 321.659 66.6076C319.306 63.3198 315.932 60.9028 312.062 59.7333L311.098 59.4423L305.896 51.0214Z" fill="#9AA4F3"/>
<path d="M337.363 33.4991C337.513 39.9415 335.105 46.1796 331.646 51.6587C330.618 48.4601 328.771 45.5489 326.844 42.7737C327.815 48.7772 326.781 54.9334 323.901 60.2897C323.799 60.3623 323.694 60.4298 323.586 60.4918C320.766 62.1876 317.192 62.8745 314.142 61.6497C320.444 54.8571 321.246 43.603 315.963 35.9841C314.467 33.8222 312.532 31.9102 311.606 29.4499C310.143 25.5244 311.549 21.2023 312.436 17.1096C313.266 13.3005 313.411 8.76761 310.855 5.97601C311.128 5.58589 311.5 5.27536 311.933 5.07622C312.365 4.87709 312.843 4.79653 313.317 4.84278C314.892 5.06534 316.039 6.43486 316.77 7.84537C317.5 9.25585 317.982 10.8191 319 12.0374C320.885 14.3178 324.095 14.8569 326.801 16.0587C333.353 18.977 337.206 26.3306 337.363 33.4991Z" fill="#2F2E41"/>
<path d="M168.56 340.21C168.56 340.321 168.581 340.431 168.624 340.533C168.666 340.636 168.728 340.729 168.807 340.808C168.885 340.886 168.978 340.948 169.081 340.99C169.183 341.033 169.293 341.054 169.404 341.054H349.057C349.28 341.054 349.495 340.965 349.653 340.807C349.812 340.649 349.901 340.434 349.901 340.21C349.901 339.986 349.812 339.771 349.653 339.613C349.495 339.455 349.28 339.366 349.057 339.366H169.404C169.293 339.366 169.183 339.387 169.081 339.43C168.978 339.472 168.885 339.534 168.807 339.612C168.728 339.691 168.666 339.784 168.624 339.887C168.581 339.989 168.56 340.099 168.56 340.21Z" fill="#CCCCCC"/>
<path d="M338.777 182.814C342.303 182.814 345.161 179.956 345.161 176.431C345.161 172.905 342.303 170.047 338.777 170.047C335.252 170.047 332.394 172.905 332.394 176.431C332.394 179.956 335.252 182.814 338.777 182.814Z" fill="#9AA4F3"/>
<path d="M282.211 29.8158C282.585 28.5054 280.005 36.5159 281.25 36.6605C286.922 37.3112 294.708 40.6985 298.658 42.2788C298.836 42.2581 299.014 42.2375 299.187 42.2117C299.61 42.1652 300.024 42.098 300.432 42.0206C309.63 40.2802 313.167 26.1505 313.167 26.0214C313.167 25.3862 311.643 7.93981 309.241 7.68164C308.611 7.61319 307.977 7.57871 307.342 7.57834H301.382C300.149 7.3126 298.899 7.13143 297.641 7.03609H297.631C285.633 6.122 276.173 13.4346 277.058 22.3328C277.063 22.3431 277.073 22.3534 277.079 22.3638C277.335 22.7459 277.56 23.1074 277.759 23.4534C277.952 23.7788 278.115 24.0886 278.256 24.383C279.349 26.6553 276.538 29.5146 278.402 30.0483C280.881 30.7581 271.882 54.0881 281.695 54.0881C276.922 55.4451 281.178 33.4308 282.211 29.8158Z" fill="#2F2E41"/>
<path d="M292.921 43.5049C300.714 43.5049 307.031 37.1877 307.031 29.3949C307.031 21.6022 300.714 15.2849 292.921 15.2849C285.128 15.2849 278.811 21.6022 278.811 29.3949C278.811 37.1877 285.128 43.5049 292.921 43.5049Z" fill="#A0616A"/>
<path d="M277.058 23.1021C277.293 23.2261 277.523 23.3397 277.759 23.4533C278.005 23.5721 278.251 23.6909 278.497 23.7993C283.221 25.9425 287.067 26.1801 289.401 23.1021C289.463 21.4826 289.827 19.8889 290.473 18.4026C290.359 20.0635 290.797 21.7157 291.718 23.1021H296.417C301.257 26.3143 303.742 26.65 300.383 37.1955C299.447 40.134 295.723 57.2331 297.188 59.7688C297.611 59.7223 302.12 40.9935 302.528 40.9161C311.727 39.1757 317.571 24.0214 316.823 23.1641C316.827 20.7263 316.266 18.3206 315.185 16.1355C313.818 13.367 311.686 11.0481 309.043 9.45288C307.467 8.68878 305.824 8.07161 304.135 7.60921C304.093 7.59887 304.056 7.58853 304.014 7.57822C303.496 7.43877 302.968 7.30967 302.439 7.20122C301.348 6.9707 300.244 6.80344 299.133 6.70029C299.054 6.69512 298.976 6.68994 298.902 6.68994C298.459 6.69098 298.023 6.81044 297.641 7.03598C297.636 7.03598 297.636 7.04112 297.631 7.04112C297.358 7.20064 297.12 7.41309 296.93 7.66599C296.596 8.09151 296.415 8.61742 296.417 9.15848H291.185C290.991 9.15848 290.798 9.16364 290.604 9.17395C287.112 9.29329 283.79 10.7115 281.288 13.151C278.787 15.5904 277.286 18.8756 277.079 22.3637C277.063 22.6115 277.058 22.8542 277.058 23.1021Z" fill="#2F2E41"/>
<path d="M307.908 18.5915C313.042 18.5915 317.204 14.4297 317.204 9.29576C317.204 4.16185 313.042 0 307.908 0C302.775 0 298.613 4.16185 298.613 9.29576C298.613 14.4297 302.775 18.5915 307.908 18.5915Z" fill="#2F2E41"/>
<path d="M338.849 179.063C339.303 178.348 339.596 177.542 339.707 176.703C339.819 175.863 339.747 175.009 339.496 174.2C339.246 173.391 338.822 172.645 338.255 172.016C337.688 171.387 336.991 170.888 336.213 170.554L336.259 141.402L328.198 139.407L328.397 174.032C327.933 175.384 327.981 176.86 328.533 178.179C329.084 179.499 330.1 180.57 331.388 181.19C332.677 181.81 334.148 181.936 335.523 181.544C336.898 181.152 338.081 180.269 338.849 179.063Z" fill="#A0616A"/>
<path d="M298.934 71.9753L311.477 63.451C312.062 63.0533 312.724 62.7824 313.42 62.6556C314.116 62.5288 314.831 62.549 315.519 62.7148C316.207 62.8807 316.852 63.1885 317.414 63.6185C317.976 64.0486 318.441 64.5914 318.781 65.212L340.346 104.618L340.428 162.29L326.965 161.446L321.438 113.833L298.934 71.9753Z" fill="#9AA4F3"/>
<path d="M202.601 202.766H68.5483C65.6326 202.766 62.8363 203.924 60.7746 205.986C58.7128 208.048 57.5546 210.844 57.5546 213.76C57.5546 216.676 58.7128 219.472 60.7746 221.534C62.8363 223.595 65.6326 224.754 68.5483 224.754H202.601C205.517 224.754 208.314 223.595 210.375 221.534C212.437 219.472 213.595 216.676 213.595 213.76C213.595 210.844 212.437 208.048 210.375 205.986C208.314 203.924 205.517 202.766 202.601 202.766Z" fill="white"/>
<path d="M202.601 225.463H68.5484C65.4445 225.463 62.4678 224.23 60.2731 222.035C58.0783 219.84 56.8453 216.864 56.8453 213.76C56.8453 210.656 58.0783 207.679 60.2731 205.484C62.4678 203.29 65.4445 202.057 68.5484 202.057H202.601C205.705 202.057 208.682 203.29 210.877 205.484C213.072 207.679 214.305 210.656 214.305 213.76C214.305 216.864 213.072 219.84 210.877 222.035C208.682 224.23 205.705 225.463 202.601 225.463ZM68.5484 203.475C65.8208 203.475 63.2049 204.559 61.2761 206.487C59.3474 208.416 58.2639 211.032 58.2639 213.76C58.2639 216.487 59.3474 219.103 61.2761 221.032C63.2049 222.961 65.8208 224.044 68.5484 224.044H202.601C205.329 224.044 207.945 222.961 209.874 221.032C211.802 219.103 212.886 216.487 212.886 213.76C212.886 211.032 211.802 208.416 209.874 206.487C207.945 204.559 205.329 203.475 202.601 203.475H68.5484Z" fill="#322662"/>
<path d="M210.506 250.743H151.348C150.519 250.743 149.723 250.414 149.137 249.828C148.551 249.241 148.221 248.446 148.221 247.617C148.221 246.788 148.551 245.992 149.137 245.406C149.723 244.82 150.519 244.49 151.348 244.49H210.506C211.335 244.49 212.13 244.82 212.717 245.406C213.303 245.992 213.633 246.788 213.633 247.617C213.633 248.446 213.303 249.241 212.717 249.828C212.13 250.414 211.335 250.743 210.506 250.743Z" fill="#9AA4F3"/>
</g>
<defs>
<clipPath id="clip0_123_1046">
<rect width="350" height="341.054" fill="white"/>
</clipPath>
</defs>
</svg>
