<svg width="33" height="31" viewBox="0 0 33 31" fill="none" xmlns="http://www.w3.org/2000/svg">
<path d="M24.5208 20.6045C24.5208 22.2232 23.2228 23.5212 21.6041 23.5212C19.9853 23.5212 18.6874 22.2232 18.6874 20.6045C18.6874 18.9857 19.9999 17.6878 21.6041 17.6878C23.2083 17.6878 24.5208 19.0003 24.5208 20.6045ZM11.3958 17.6878C9.79159 17.6878 8.47909 19.0003 8.47909 20.6045C8.47909 22.2087 9.79159 23.5212 11.3958 23.5212C12.9999 23.5212 14.3124 22.2232 14.3124 20.6045C14.3124 18.9857 13.0145 17.6878 11.3958 17.6878ZM32.5416 19.8753V24.2503C32.5416 25.0524 31.8853 25.7087 31.0833 25.7087H29.6249V27.167C29.6249 28.7857 28.327 30.0837 26.7083 30.0837H6.29159C5.51804 30.0837 4.77617 29.7764 4.22919 29.2294C3.68221 28.6824 3.37492 27.9405 3.37492 27.167V25.7087H1.91659C1.1145 25.7087 0.458252 25.0524 0.458252 24.2503V19.8753C0.458252 19.0732 1.1145 18.417 1.91659 18.417H3.37492C3.37492 12.7732 7.9395 8.20866 13.5833 8.20866H15.0416V6.35658C14.1666 5.86074 13.5833 4.91283 13.5833 3.83366C13.5833 2.22949 14.8958 0.916992 16.4999 0.916992C18.1041 0.916992 19.4166 2.22949 19.4166 3.83366C19.4166 4.91283 18.8333 5.86074 17.9583 6.35658V8.20866H19.4166C25.0603 8.20866 29.6249 12.7732 29.6249 18.417H31.0833C31.8853 18.417 32.5416 19.0732 32.5416 19.8753ZM29.6249 21.3337H26.7083V18.417C26.7083 14.392 23.4416 11.1253 19.4166 11.1253H13.5833C9.55825 11.1253 6.29159 14.392 6.29159 18.417V21.3337H3.37492V22.792H6.29159V27.167H26.7083V22.792H29.6249V21.3337Z" fill="#322662" fill-opacity="0.6"/>
</svg>
