<svg width="184" height="168" viewBox="0 0 184 168" fill="none" xmlns="http://www.w3.org/2000/svg">
<path d="M137.833 113.167C137.833 122.417 130.417 129.834 121.167 129.834C111.917 129.834 104.5 122.417 104.5 113.167C104.5 103.917 112 96.5003 121.167 96.5003C130.333 96.5003 137.833 104 137.833 113.167ZM62.8334 96.5003C53.6667 96.5003 46.1667 104 46.1667 113.167C46.1667 122.334 53.6667 129.834 62.8334 129.834C72 129.834 79.5 122.417 79.5 113.167C79.5 103.917 72.0834 96.5003 62.8334 96.5003ZM183.667 109V134C183.667 138.584 179.917 142.334 175.333 142.334H167V150.667C167 159.917 159.583 167.334 150.333 167.334H33.6667C29.2464 167.334 25.0072 165.578 21.8816 162.452C18.756 159.326 17 155.087 17 150.667V142.334H8.66671C4.08337 142.334 0.333374 138.584 0.333374 134V109C0.333374 104.417 4.08337 100.667 8.66671 100.667H17C17 68.417 43.0834 42.3337 75.3334 42.3337H83.6667V31.7503C78.6667 28.917 75.3334 23.5003 75.3334 17.3337C75.3334 8.16699 82.8334 0.666992 92 0.666992C101.167 0.666992 108.667 8.16699 108.667 17.3337C108.667 23.5003 105.333 28.917 100.333 31.7503V42.3337H108.667C140.917 42.3337 167 68.417 167 100.667H175.333C179.917 100.667 183.667 104.417 183.667 109ZM167 117.334H150.333V100.667C150.333 77.667 131.667 59.0003 108.667 59.0003H75.3334C52.3334 59.0003 33.6667 77.667 33.6667 100.667V117.334H17V125.667H33.6667V150.667H150.333V125.667H167V117.334Z" fill="#E6E6E6"/>
</svg>
