<svg width="75" height="68" viewBox="0 0 75 68" fill="none" xmlns="http://www.w3.org/2000/svg">
<path d="M55.8335 45.6665C55.8335 49.3665 52.8668 52.3332 49.1668 52.3332C45.4668 52.3332 42.5002 49.3665 42.5002 45.6665C42.5002 41.9665 45.5002 38.9998 49.1668 38.9998C52.8335 38.9998 55.8335 41.9998 55.8335 45.6665ZM25.8335 38.9998C22.1668 38.9998 19.1668 41.9998 19.1668 45.6665C19.1668 49.3332 22.1668 52.3332 25.8335 52.3332C29.5002 52.3332 32.5002 49.3665 32.5002 45.6665C32.5002 41.9665 29.5335 38.9998 25.8335 38.9998ZM74.1668 43.9998V53.9998C74.1668 55.8332 72.6668 57.3332 70.8335 57.3332H67.5002V60.6665C67.5002 64.3665 64.5335 67.3332 60.8335 67.3332H14.1668C12.3987 67.3332 10.703 66.6308 9.45278 65.3806C8.20254 64.1303 7.50016 62.4346 7.50016 60.6665V57.3332H4.16683C2.3335 57.3332 0.833496 55.8332 0.833496 53.9998V43.9998C0.833496 42.1665 2.3335 40.6665 4.16683 40.6665H7.50016C7.50016 27.7665 17.9335 17.3332 30.8335 17.3332H34.1668V13.0998C32.1668 11.9665 30.8335 9.79984 30.8335 7.33317C30.8335 3.6665 33.8335 0.666504 37.5002 0.666504C41.1668 0.666504 44.1668 3.6665 44.1668 7.33317C44.1668 9.79984 42.8335 11.9665 40.8335 13.0998V17.3332H44.1668C57.0668 17.3332 67.5002 27.7665 67.5002 40.6665H70.8335C72.6668 40.6665 74.1668 42.1665 74.1668 43.9998ZM67.5002 47.3332H60.8335V40.6665C60.8335 31.4665 53.3668 23.9998 44.1668 23.9998H30.8335C21.6335 23.9998 14.1668 31.4665 14.1668 40.6665V47.3332H7.50016V50.6665H14.1668V60.6665H60.8335V50.6665H67.5002V47.3332Z" fill="white"/>
</svg>
