<svg width="84" height="84" viewBox="0 0 84 84" fill="none" xmlns="http://www.w3.org/2000/svg">
<path d="M25.3333 0.333984H4.49998C3.39491 0.333984 2.3351 0.772971 1.5537 1.55437C0.7723 2.33577 0.333313 3.39558 0.333313 4.50065V25.334C0.333313 26.4391 0.7723 27.4989 1.5537 28.2803C2.3351 29.0617 3.39491 29.5007 4.49998 29.5007C5.60505 29.5007 6.66486 29.0617 7.44626 28.2803C8.22766 27.4989 8.66665 26.4391 8.66665 25.334V8.66732H25.3333C26.4384 8.66732 27.4982 8.22833 28.2796 7.44693C29.061 6.66553 29.5 5.60572 29.5 4.50065C29.5 3.39558 29.061 2.33577 28.2796 1.55437C27.4982 0.772971 26.4384 0.333984 25.3333 0.333984ZM25.3333 75.334H8.66665V58.6673C8.66665 57.5623 8.22766 56.5024 7.44626 55.721C6.66486 54.9396 5.60505 54.5007 4.49998 54.5007C3.39491 54.5007 2.3351 54.9396 1.5537 55.721C0.7723 56.5024 0.333313 57.5623 0.333313 58.6673V79.5007C0.333313 80.6057 0.7723 81.6655 1.5537 82.4469C2.3351 83.2283 3.39491 83.6673 4.49998 83.6673H25.3333C26.4384 83.6673 27.4982 83.2283 28.2796 82.4469C29.061 81.6655 29.5 80.6057 29.5 79.5007C29.5 78.3956 29.061 77.3358 28.2796 76.5544C27.4982 75.773 26.4384 75.334 25.3333 75.334ZM79.5 0.333984H58.6666C57.5616 0.333984 56.5018 0.772971 55.7204 1.55437C54.939 2.33577 54.5 3.39558 54.5 4.50065C54.5 5.60572 54.939 6.66553 55.7204 7.44693C56.5018 8.22833 57.5616 8.66732 58.6666 8.66732H75.3333V25.334C75.3333 26.4391 75.7723 27.4989 76.5537 28.2803C77.3351 29.0617 78.3949 29.5007 79.5 29.5007C80.6051 29.5007 81.6649 29.0617 82.4463 28.2803C83.2277 27.4989 83.6667 26.4391 83.6667 25.334V4.50065C83.6667 3.39558 83.2277 2.33577 82.4463 1.55437C81.6649 0.772971 80.6051 0.333984 79.5 0.333984ZM79.5 54.5007C78.3949 54.5007 77.3351 54.9396 76.5537 55.721C75.7723 56.5024 75.3333 57.5623 75.3333 58.6673V75.334H58.6666C57.5616 75.334 56.5018 75.773 55.7204 76.5544C54.939 77.3358 54.5 78.3956 54.5 79.5007C54.5 80.6057 54.939 81.6655 55.7204 82.4469C56.5018 83.2283 57.5616 83.6673 58.6666 83.6673H79.5C80.6051 83.6673 81.6649 83.2283 82.4463 82.4469C83.2277 81.6655 83.6667 80.6057 83.6667 79.5007V58.6673C83.6667 57.5623 83.2277 56.5024 82.4463 55.721C81.6649 54.9396 80.6051 54.5007 79.5 54.5007Z" fill="#322662"/>
</svg>
