<svg width="18" height="15" viewBox="0 0 18 15" fill="none" xmlns="http://www.w3.org/2000/svg">
<path fill-rule="evenodd" clip-rule="evenodd" d="M16.2573 14.7422C16.3728 14.7907 16.5002 14.8034 16.6229 14.7787C16.7457 14.754 16.8582 14.6929 16.9459 14.6035C17.0336 14.514 17.0923 14.4003 17.1146 14.277C17.1368 14.1537 17.1215 14.0266 17.0706 13.9122L14.4931 8.12468H8.16648C8.00072 8.12468 7.84174 8.05883 7.72453 7.94162C7.60732 7.82441 7.54148 7.66544 7.54148 7.49968C7.54148 7.33392 7.60732 7.17495 7.72453 7.05774C7.84174 6.94053 8.00072 6.87468 8.16648 6.87468H14.4931L17.0706 1.08718C17.1215 0.972722 17.1368 0.845621 17.1146 0.72236C17.0923 0.599099 17.0336 0.485365 16.9459 0.395905C16.8582 0.306444 16.7457 0.245387 16.6229 0.220651C16.5002 0.195915 16.3728 0.20864 16.2573 0.257178L0.423977 6.92384C0.310734 6.97163 0.214096 7.05174 0.146149 7.15416C0.0782013 7.25658 0.0419598 7.37677 0.0419598 7.49968C0.0419598 7.62259 0.0782013 7.74277 0.146149 7.84519C0.214096 7.94761 0.310734 8.02773 0.423977 8.07551L16.2573 14.7422Z" fill="white"/>
</svg>
