<svg width="31" height="27" viewBox="0 0 31 27" fill="none" xmlns="http://www.w3.org/2000/svg">
<path d="M15.5 0.375C7.47916 0.375 0.916656 5.59583 0.916656 12.0417C0.953474 13.5914 1.33203 15.1139 2.02528 16.5004C2.71853 17.8869 3.70938 19.1032 4.92707 20.0625C4.92707 20.9375 4.31457 23.2271 0.916656 26.625C4.37291 26.4646 7.68332 25.1667 10.3521 22.9792C12.0146 23.4604 13.7646 23.7083 15.5 23.7083C23.5208 23.7083 30.0833 18.4875 30.0833 12.0417C30.0833 5.59583 23.5208 0.375 15.5 0.375ZM15.5 20.7917C9.05416 20.7917 3.83332 16.8687 3.83332 12.0417C3.83332 7.21458 9.05416 3.29167 15.5 3.29167C21.9458 3.29167 27.1667 7.21458 27.1667 12.0417C27.1667 16.8687 21.9458 20.7917 15.5 20.7917Z" fill="#322662" fill-opacity="0.6"/>
</svg>
