<svg width="65" height="61" viewBox="0 0 65 61" fill="none" xmlns="http://www.w3.org/2000/svg">
<path d="M6.89336 7.56011C10.503 3.9478 15.1979 1.6194 20.2581 0.932074C25.3183 0.244745 30.4643 1.23644 34.9067 3.75505C39.349 6.27365 42.8425 10.1801 44.8512 14.8751C46.8598 19.5701 47.2728 24.7945 46.0267 29.7468L45.7967 30.6001L57.13 45.1734C58.0842 46.4 58.7045 47.8527 58.9305 49.3902C59.1566 50.9277 58.9807 52.4975 58.42 53.9468C58.7534 54.0468 59.16 54.1001 59.66 54.0001L60.0534 53.8968C60.8858 53.6398 61.7859 53.719 62.5607 54.1173C63.3356 54.5157 63.9236 55.2016 64.199 56.0282C64.4744 56.8548 64.4152 57.7564 64.0341 58.5398C63.653 59.3233 62.9803 59.9265 62.16 60.2201C60.7462 60.7074 59.2351 60.844 57.7568 60.6181C56.2785 60.3922 54.8772 59.8107 53.6734 58.9234C52.2906 59.5351 50.776 59.7886 49.2695 59.6604C47.7629 59.5323 46.3129 59.0266 45.0534 58.1901L44.5067 57.8001L29.9334 46.4634C24.9597 47.9158 19.6441 47.6714 14.8247 45.7687C10.0052 43.866 5.95623 40.4134 3.31603 35.9551C0.675834 31.4968 -0.405341 26.2866 0.242983 21.1459C0.891307 16.0052 3.23225 11.2266 6.89669 7.56344L6.89336 7.56011ZM42.59 37.3334C40.9891 39.649 38.9823 41.6558 36.6667 43.2568L48.6 52.5368C49.0495 52.876 49.6064 53.0413 50.1682 53.0021C50.73 52.963 51.2586 52.7219 51.6566 52.3235C52.0546 51.9252 52.295 51.3963 52.3337 50.8345C52.3723 50.2727 52.2064 49.7159 51.8667 49.2668L42.59 37.3334ZM37.0667 14.5301L36.39 15.6501C33.7016 19.9812 30.5253 23.9896 26.9234 27.5968C23.317 31.1973 19.3097 34.3725 14.98 37.0601L13.86 37.7368C17.0702 39.9728 20.9644 41.0086 24.8613 40.6629C28.7581 40.3171 32.4092 38.6119 35.1755 35.8456C37.9418 33.0793 39.647 29.4282 39.9928 25.5313C40.3385 21.6345 39.3027 17.7402 37.0667 14.5301ZM32.0734 9.83011C28.8814 7.88581 25.1287 7.07034 21.4177 7.5146C17.7067 7.95886 14.2526 9.63709 11.6098 12.2799C8.967 14.9227 7.28878 18.3768 6.84452 22.0878C6.40025 25.7988 7.21572 29.5515 9.16002 32.7434L10.24 32.1334C14.6055 29.5677 18.6286 26.4597 22.2134 22.8834C25.4499 19.639 28.3041 16.0343 30.72 12.1401L31.1067 11.5068L31.7834 10.3501L32.0734 9.83011Z" fill="white"/>
</svg>
