<svg width="33" height="33" viewBox="0 0 33 33" fill="none" xmlns="http://www.w3.org/2000/svg">
<path fill-rule="evenodd" clip-rule="evenodd" d="M3.31667 16.4999C3.31667 14.7687 3.65767 13.0544 4.32019 11.4549C4.98272 9.85542 5.95379 8.4021 7.17798 7.17792C8.40216 5.95373 9.85548 4.98266 11.455 4.32013C13.0544 3.65761 14.7687 3.31661 16.5 3.31661C18.2313 3.31661 19.9456 3.65761 21.545 4.32013C23.1445 4.98266 24.5978 5.95373 25.822 7.17792C27.0462 8.4021 28.0173 9.85542 28.6798 11.4549C29.3423 13.0544 29.6833 14.7687 29.6833 16.4999C29.6833 19.9964 28.2944 23.3496 25.822 25.822C23.3497 28.2943 19.9964 29.6833 16.5 29.6833C13.0036 29.6833 9.65033 28.2943 7.17798 25.822C4.70562 23.3496 3.31667 19.9964 3.31667 16.4999ZM16.5 0.983276C14.4623 0.983276 12.4446 1.38463 10.562 2.16441C8.67946 2.9442 6.96892 4.08715 5.52806 5.528C4.08721 6.96886 2.94426 8.6794 2.16447 10.562C1.38469 12.4445 0.983337 14.4623 0.983337 16.4999C0.983337 18.5376 1.38469 20.5553 2.16447 22.4379C2.94426 24.3205 4.08721 26.031 5.52806 27.4719C6.96892 28.9127 8.67946 30.0557 10.562 30.8355C12.4446 31.6153 14.4623 32.0166 16.5 32.0166C20.6153 32.0166 24.562 30.3818 27.4719 27.4719C30.3819 24.5619 32.0167 20.6152 32.0167 16.4999C32.0167 12.3847 30.3819 8.43794 27.4719 5.528C24.562 2.61806 20.6153 0.983276 16.5 0.983276ZM15.3333 17.6666V6.29861C15.7144 6.25661 16.1033 6.23483 16.5 6.23328C17.9468 6.23311 19.3773 6.53873 20.6977 7.13011C22.0181 7.72148 23.1986 8.58525 24.1618 9.66479C25.125 10.7443 25.8492 12.0153 26.2868 13.3943C26.7245 14.7733 26.8657 16.2292 26.7013 17.6666H15.3333Z" fill="#322662" fill-opacity="0.6"/>
</svg>
