<svg width="35" height="35" viewBox="0 0 35 35" fill="none" xmlns="http://www.w3.org/2000/svg">
<path d="M8.56227 6.31273L13.1123 10.8627C14.4145 10.004 15.9401 9.54629 17.5 9.54629C19.0599 9.54629 20.5855 10.004 21.8877 10.8627L26.4377 6.31273C23.8995 4.28617 20.748 3.18236 17.5 3.18236C14.252 3.18236 11.1005 4.28617 8.56227 6.31273ZM28.6873 8.56227L24.1373 13.1123C24.996 14.4145 25.4537 15.9401 25.4537 17.5C25.4537 19.0599 24.996 20.5855 24.1373 21.8877L28.6873 26.4377C30.7138 23.8995 31.8176 20.748 31.8176 17.5C31.8176 14.252 30.7138 11.1005 28.6873 8.56227ZM26.4377 28.6873L21.8877 24.1373C20.5855 24.996 19.0599 25.4537 17.5 25.4537C15.9401 25.4537 14.4145 24.996 13.1123 24.1373L8.56227 28.6873C11.1005 30.7138 14.252 31.8176 17.5 31.8176C20.748 31.8176 23.8995 30.7138 26.4377 28.6873ZM6.31273 26.4377L10.8627 21.8877C10.004 20.5855 9.54629 19.0599 9.54629 17.5C9.54629 15.9401 10.004 14.4145 10.8627 13.1123L6.31273 8.56227C4.28617 11.1005 3.18236 14.252 3.18236 17.5C3.18236 20.748 4.28617 23.8995 6.31273 26.4377ZM5.12591 5.12591C11.9605 -1.70864 23.0395 -1.70864 29.8741 5.12591C36.7086 11.9605 36.7086 23.0395 29.8741 29.8741C23.0395 36.7086 11.9605 36.7086 5.12591 29.8741C-1.70864 23.0395 -1.70864 11.9605 5.12591 5.12591ZM20.8759 14.1257C20.4341 13.6765 19.9077 13.3193 19.3272 13.0745C18.7466 12.8298 18.1233 12.7025 17.4933 12.6998C16.8633 12.6972 16.239 12.8193 15.6564 13.0592C15.0738 13.299 14.5444 13.6518 14.0989 14.0973C13.6533 14.5427 13.3004 15.072 13.0604 15.6545C12.8204 16.2371 12.6981 16.8614 12.7006 17.4914C12.7031 18.1214 12.8303 18.7447 13.0749 19.3253C13.3195 19.906 13.6766 20.4324 14.1257 20.8743C15.0286 21.7284 16.229 22.1965 17.4717 22.1792C18.7144 22.1619 19.9014 21.6606 20.7802 20.7818C21.659 19.903 22.1603 18.716 22.1776 17.4733C22.1949 16.2306 21.7268 15.0302 20.8727 14.1273" fill="#322662" fill-opacity="0.6"/>
</svg>
