<svg width="101" height="100" viewBox="0 0 101 100" fill="none" xmlns="http://www.w3.org/2000/svg">
<path d="M24.9636 18.0364L37.9636 31.0364C41.6843 28.5829 46.0432 27.2751 50.5 27.2751C54.9568 27.2751 59.3157 28.5829 63.0364 31.0364L76.0364 18.0364C68.7844 12.2462 59.7799 9.09246 50.5 9.09246C41.2201 9.09246 32.2156 12.2462 24.9636 18.0364ZM82.4636 24.4636L69.4636 37.4636C71.9171 41.1843 73.2249 45.5432 73.2249 50C73.2249 54.4568 71.9171 58.8157 69.4636 62.5364L82.4636 75.5364C88.2538 68.2844 91.4075 59.2799 91.4075 50C91.4075 40.7201 88.2538 31.7156 82.4636 24.4636ZM76.0364 81.9636L63.0364 68.9636C59.3157 71.4171 54.9568 72.7249 50.5 72.7249C46.0432 72.7249 41.6843 71.4171 37.9636 68.9636L24.9636 81.9636C32.2156 87.7538 41.2201 90.9075 50.5 90.9075C59.7799 90.9075 68.7844 87.7538 76.0364 81.9636ZM18.5364 75.5364L31.5364 62.5364C29.0829 58.8157 27.7751 54.4568 27.7751 50C27.7751 45.5432 29.0829 41.1843 31.5364 37.4636L18.5364 24.4636C12.7462 31.7156 9.59246 40.7201 9.59246 50C9.59246 59.2799 12.7462 68.2844 18.5364 75.5364ZM15.1455 14.6455C34.6727 -4.88182 66.3273 -4.88182 85.8545 14.6455C105.382 34.1727 105.382 65.8273 85.8545 85.3545C66.3273 104.882 34.6727 104.882 15.1455 85.3545C-4.38182 65.8273 -4.38182 34.1727 15.1455 14.6455ZM60.1455 40.3591C58.8832 39.0758 57.3792 38.0551 55.7205 37.3558C54.0617 36.6566 52.281 36.2928 50.4809 36.2852C48.6808 36.2777 46.8971 36.6266 45.2325 37.3119C43.5679 37.9972 42.0555 39.0053 40.7825 40.278C39.5095 41.5507 38.5011 43.0628 37.8154 44.7272C37.1297 46.3916 36.7804 48.1753 36.7875 49.9754C36.7946 51.7755 37.1581 53.5563 37.8569 55.2152C38.5557 56.8742 39.5761 58.3783 40.8591 59.6409C43.4388 62.081 46.8686 63.4186 50.4192 63.3692C53.9698 63.3198 57.3611 61.8874 59.872 59.3765C62.3828 56.8656 63.8153 53.4743 63.8646 49.9238C63.914 46.3732 62.5765 42.9434 60.1364 40.3636" fill="#E6E6E6"/>
</svg>
