<svg width="30" height="26" viewBox="0 0 30 26" fill="none" xmlns="http://www.w3.org/2000/svg">
<path fill-rule="evenodd" clip-rule="evenodd" d="M29.85 2.8313C29.9136 2.4453 29.8726 2.04931 29.7311 1.68458C29.5896 1.31985 29.353 0.999729 29.0457 0.757569C28.7385 0.515409 28.3719 0.360073 27.9842 0.307745C27.5965 0.255417 27.2019 0.308011 26.8415 0.460049L1.90397 10.9601C0.165634 11.6921 0.0766761 14.2063 1.90397 14.9646C3.71359 15.7186 5.54932 16.4084 7.40772 17.0325C9.11105 17.5955 10.969 18.1161 12.4579 18.2634C12.8648 18.7505 13.3767 19.22 13.8988 19.6488C14.6965 20.305 15.6561 20.9803 16.6477 21.6278C18.634 22.9257 20.8375 24.1667 22.3221 24.9746C24.0969 25.9371 26.2217 24.8288 26.5396 22.8936L29.85 2.8313ZM4.69959 12.9478L26.7554 3.66109L23.6667 22.3861C22.2098 21.5942 20.1113 20.4086 18.2417 19.1865C17.38 18.6332 16.5481 18.035 15.7494 17.3942C15.5359 17.2198 15.3287 17.0379 15.1281 16.8488L20.9046 11.0738C21.1782 10.8004 21.332 10.4294 21.3322 10.0425C21.3323 9.65569 21.1788 9.28463 20.9053 9.01099C20.6319 8.73734 20.2609 8.58354 19.8741 8.5834C19.4872 8.58326 19.1162 8.73681 18.8425 9.01026L12.5177 15.335C11.4473 15.198 9.95688 14.8013 8.32063 14.2617C7.10251 13.8558 5.89554 13.4172 4.70105 12.9463L4.69959 12.9478Z" fill="#322662" fill-opacity="0.6"/>
</svg>
