<svg width="19" height="31" viewBox="0 0 19 31" fill="none" xmlns="http://www.w3.org/2000/svg">
<path d="M10.9583 6.75H8.04167V8.20833C8.04167 8.59511 8.19532 8.96604 8.46881 9.23953C8.7423 9.51302 9.11323 9.66667 9.50001 9.66667C9.88678 9.66667 10.2577 9.51302 10.5312 9.23953C10.8047 8.96604 10.9583 8.59511 10.9583 8.20833V6.75Z" fill="#322662" fill-opacity="0.6"/>
<path fill-rule="evenodd" clip-rule="evenodd" d="M0.75 0.916626V3.83329H2.20833V8.20829C2.20833 10.1422 2.97656 11.9968 4.34401 13.3643C5.71147 14.7317 7.56613 15.5 9.5 15.5C7.56613 15.5 5.71147 16.2682 4.34401 17.6356C2.97656 19.0031 2.20833 20.8578 2.20833 22.7916V27.1666H0.75V30.0833H18.25V27.1666H16.7917V22.7916C16.7917 20.8578 16.0234 19.0031 14.656 17.6356C13.2885 16.2682 11.4339 15.5 9.5 15.5C10.4576 15.5 11.4057 15.3114 12.2904 14.9449C13.1751 14.5785 13.9789 14.0414 14.656 13.3643C15.3331 12.6872 15.8702 11.8834 16.2366 10.9987C16.6031 10.114 16.7917 9.16585 16.7917 8.20829V3.83329H18.25V0.916626H0.75ZM5.125 3.83329H13.875V8.20829C13.875 9.36861 13.4141 10.4814 12.5936 11.3019C11.7731 12.1224 10.6603 12.5833 9.5 12.5833C8.33968 12.5833 7.22688 12.1224 6.40641 11.3019C5.58594 10.4814 5.125 9.36861 5.125 8.20829V3.83329ZM5.125 22.7916V27.1666H13.875V22.7916C13.875 21.6313 13.4141 20.5185 12.5936 19.698C11.7731 18.8776 10.6603 18.4166 9.5 18.4166C8.33968 18.4166 7.22688 18.8776 6.40641 19.698C5.58594 20.5185 5.125 21.6313 5.125 22.7916Z" fill="#322662" fill-opacity="0.6"/>
</svg>
