<svg width="101" height="100" viewBox="0 0 101 100" fill="none" xmlns="http://www.w3.org/2000/svg">
<path d="M98.4414 82.2773L76.5664 38.5273C76.1769 37.7494 75.5785 37.0952 74.8382 36.638C74.098 36.1808 73.2451 35.9386 72.375 35.9386C71.5049 35.9386 70.6521 36.1808 69.9118 36.638C69.1716 37.0952 68.5732 37.7494 68.1836 38.5273L60.168 54.543C54.7678 54.0709 49.5681 52.2715 45.0313 49.3047C50.5439 42.8931 53.9926 34.9665 54.9258 26.5625H63C64.2432 26.5625 65.4355 26.0686 66.3146 25.1896C67.1936 24.3105 67.6875 23.1182 67.6875 21.875C67.6875 20.6318 67.1936 19.4395 66.3146 18.5604C65.4355 17.6814 64.2432 17.1875 63 17.1875H42.6875V12.5C42.6875 11.2568 42.1936 10.0645 41.3146 9.18544C40.4355 8.30636 39.2432 7.8125 38 7.8125C36.7568 7.8125 35.5645 8.30636 34.6854 9.18544C33.8064 10.0645 33.3125 11.2568 33.3125 12.5V17.1875H13C11.7568 17.1875 10.5645 17.6814 9.68544 18.5604C8.80636 19.4395 8.3125 20.6318 8.3125 21.875C8.3125 23.1182 8.80636 24.3105 9.68544 25.1896C10.5645 26.0686 11.7568 26.5625 13 26.5625H45.4727C44.5932 32.6716 42.0024 38.407 38 43.1055C36.0467 40.8198 34.4169 38.2764 33.1563 35.5469C32.9093 34.9728 32.5501 34.4539 32.0997 34.0207C31.6493 33.5874 31.1169 33.2486 30.5336 33.0242C29.9504 32.7998 29.3282 32.6942 28.7036 32.7138C28.079 32.7333 27.4645 32.8775 26.8965 33.138C26.3284 33.3985 25.8182 33.7699 25.3958 34.2304C24.9733 34.6909 24.6473 35.2313 24.4367 35.8197C24.2262 36.4081 24.1354 37.0326 24.1697 37.6566C24.2041 38.2806 24.3629 38.8914 24.6367 39.4531C26.2767 43.0191 28.4081 46.3378 30.9688 49.3125C25.6342 52.8239 19.3865 54.6927 13 54.6875C11.7568 54.6875 10.5645 55.1814 9.68544 56.0604C8.80636 56.9395 8.3125 58.1318 8.3125 59.375C8.3125 60.6182 8.80636 61.8105 9.68544 62.6896C10.5645 63.5686 11.7568 64.0625 13 64.0625C22.0001 64.0698 30.7644 61.1844 38 55.832C43.2473 59.6936 49.3148 62.2922 55.7305 63.4258L46.3047 82.2773C46.0117 82.8295 45.8322 83.4347 45.7766 84.0574C45.721 84.68 45.7905 85.3074 45.981 85.9028C46.1715 86.4981 46.4791 87.0494 46.8858 87.5241C47.2925 87.9988 47.7901 88.3873 48.3492 88.6669C48.9083 88.9464 49.5177 89.1113 50.1414 89.1519C50.7652 89.1924 51.3908 89.1078 51.9814 88.903C52.572 88.6982 53.1156 88.3773 53.5804 87.9593C54.0451 87.5412 54.4215 87.0344 54.6875 86.4688L59.6445 76.5625H85.1016L90.0547 86.4688C90.6105 87.5809 91.5854 88.4267 92.7648 88.8201C93.9442 89.2135 95.2316 89.1222 96.3438 88.5664C97.4559 88.0106 98.3017 87.0357 98.6951 85.8563C99.0885 84.6769 98.9972 83.3895 98.4414 82.2773ZM64.332 67.1875L72.375 51.1055L80.4141 67.1875H64.332Z" fill="#E6E6E6"/>
</svg>
