<svg width="200" height="200" viewBox="0 0 200 200" fill="none" xmlns="http://www.w3.org/2000/svg">
<path d="M34.375 175C28.5734 175 23.0094 172.695 18.907 168.593C14.8047 164.491 12.5 158.927 12.5 153.125V121.875C12.5 119.389 13.4877 117.004 15.2459 115.246C17.004 113.488 19.3886 112.5 21.875 112.5C24.3614 112.5 26.746 113.488 28.5041 115.246C30.2623 117.004 31.25 119.389 31.25 121.875V153.125C31.25 154.85 32.65 156.25 34.375 156.25H165.625C166.454 156.25 167.249 155.921 167.835 155.335C168.421 154.749 168.75 153.954 168.75 153.125V121.875C168.75 119.389 169.738 117.004 171.496 115.246C173.254 113.488 175.639 112.5 178.125 112.5C180.611 112.5 182.996 113.488 184.754 115.246C186.512 117.004 187.5 119.389 187.5 121.875V153.125C187.5 158.927 185.195 164.491 181.093 168.593C176.991 172.695 171.427 175 165.625 175H34.375Z" fill="#322662"/>
<path d="M147.25 58.9996C148.12 59.8696 148.81 60.9024 149.281 62.0391C149.752 63.1759 149.994 64.3942 149.994 65.6246C149.994 66.8549 149.752 68.0733 149.281 69.21C148.81 70.3467 148.12 71.3796 147.25 72.2496C146.38 73.1196 145.347 73.8097 144.21 74.2805C143.074 74.7514 141.855 74.9937 140.625 74.9937C139.395 74.9937 138.176 74.7514 137.04 74.2805C135.903 73.8097 134.87 73.1196 134 72.2496L109.375 47.6371V118.75C109.375 121.236 108.387 123.621 106.629 125.379C104.871 127.137 102.486 128.125 100 128.125C97.5136 128.125 95.1291 127.137 93.3709 125.379C91.6127 123.621 90.625 121.236 90.625 118.75V47.6371L66 72.2496C65.13 73.1196 64.0972 73.8097 62.9604 74.2805C61.8237 74.7514 60.6054 74.9937 59.375 74.9937C58.1446 74.9937 56.9263 74.7514 55.7896 74.2805C54.6529 73.8097 53.62 73.1196 52.75 72.2496C51.88 71.3796 51.1899 70.3467 50.719 69.21C50.2482 68.0733 50.0059 66.8549 50.0059 65.6246C50.0059 64.3942 50.2482 63.1759 50.719 62.0391C51.1899 60.9024 51.88 59.8696 52.75 58.9996L93.375 18.3746C95.1328 16.6189 97.5156 15.6328 100 15.6328C102.484 15.6328 104.867 16.6189 106.625 18.3746L147.25 58.9996Z" fill="#322662"/>
</svg>
