<svg width="35" height="35" viewBox="0 0 35 35" fill="none" xmlns="http://www.w3.org/2000/svg">
<path d="M29.8995 5.09258C28.2868 3.47227 26.3661 2.18753 24.2494 1.31323C22.1327 0.438921 19.8622 -0.00746053 17.5704 9.43162e-05C7.96734 9.43162e-05 0.140704 7.78757 0.140704 17.3425C0.140704 20.405 0.949749 23.38 2.46231 26.005L0 35L9.23367 32.585C11.7839 33.9675 14.6508 34.7025 17.5704 34.7025C27.1734 34.7025 35 26.915 35 17.36C35 12.7226 33.1884 8.36507 29.8995 5.09258ZM17.5704 31.7625C14.9673 31.7625 12.4171 31.0625 10.1834 29.75L9.65578 29.435L4.16834 30.87L5.62814 25.55L5.27638 25.0075C3.82986 22.7099 3.06193 20.0538 3.0603 17.3425C3.0603 9.39757 9.56784 2.92259 17.5528 2.92259C21.4221 2.92259 25.0628 4.42758 27.7889 7.15758C29.139 8.49433 30.2089 10.0845 30.9365 11.8359C31.6641 13.5873 32.035 15.465 32.0276 17.36C32.0628 25.305 25.5553 31.7625 17.5704 31.7625ZM25.5201 20.9825C25.0804 20.7725 22.9347 19.7225 22.5477 19.565C22.1432 19.425 21.8618 19.355 21.5628 19.775C21.2638 20.2125 20.4372 21.1925 20.191 21.4725C19.9447 21.77 19.6809 21.805 19.2412 21.5775C18.8015 21.3675 17.3945 20.895 15.7412 19.425C14.4397 18.27 13.5779 16.8526 13.3141 16.4151C13.0678 15.9776 13.2789 15.7501 13.5075 15.5226C13.701 15.3301 13.9472 15.0151 14.1583 14.7701C14.3693 14.5251 14.4573 14.3326 14.598 14.0526C14.7387 13.7551 14.6683 13.5101 14.5628 13.3001C14.4573 13.0901 13.5779 10.9551 13.2261 10.0801C12.8744 9.24007 12.505 9.34507 12.2412 9.32757H11.397C11.098 9.32757 10.6407 9.43257 10.2362 9.87007C9.84925 10.3076 8.72362 11.3576 8.72362 13.4926C8.72362 15.6276 10.2889 17.6925 10.5 17.9725C10.7111 18.27 13.5779 22.645 17.9397 24.5175C18.9774 24.9725 19.7864 25.235 20.4196 25.4275C21.4573 25.76 22.407 25.7075 23.1633 25.6025C24.0075 25.48 25.7487 24.5525 26.1005 23.5375C26.4698 22.5225 26.4698 21.665 26.3467 21.4725C26.2236 21.28 25.9598 21.1925 25.5201 20.9825Z" fill="#322662" fill-opacity="0.6"/>
</svg>
