<svg width="101" height="100" viewBox="0 0 101 100" fill="none" xmlns="http://www.w3.org/2000/svg">
<path d="M79.875 20.4582C76.0544 16.6003 71.5042 13.5414 66.4896 11.4597C61.475 9.37806 56.0962 8.31524 50.6667 8.33323C27.9167 8.33323 9.37499 26.8749 9.37499 49.6249C9.37499 56.9166 11.2917 63.9999 14.875 70.2499L9.04166 91.6666L30.9167 85.9166C36.9583 89.2082 43.75 90.9582 50.6667 90.9582C73.4167 90.9582 91.9583 72.4166 91.9583 49.6666C91.9583 38.6249 87.6667 28.2499 79.875 20.4582ZM50.6667 83.9582C44.5 83.9582 38.4583 82.2916 33.1667 79.1666L31.9167 78.4166L18.9167 81.8332L22.375 69.1666L21.5417 67.8749C18.1148 62.4043 16.2955 56.0802 16.2917 49.6249C16.2917 30.7082 31.7083 15.2916 50.625 15.2916C59.7917 15.2916 68.4167 18.8749 74.875 25.3749C78.0734 28.5577 80.608 32.3438 82.3318 36.5138C84.0555 40.6837 84.9342 45.1544 84.9167 49.6666C85 68.5832 69.5833 83.9582 50.6667 83.9582ZM69.5 58.2916C68.4583 57.7916 63.375 55.2916 62.4583 54.9166C61.5 54.5832 60.8333 54.4166 60.125 55.4166C59.4167 56.4582 57.4583 58.7916 56.875 59.4582C56.2917 60.1666 55.6667 60.2499 54.625 59.7082C53.5833 59.2082 50.25 58.0832 46.3333 54.5832C43.25 51.8332 41.2083 48.4582 40.5833 47.4166C40 46.3749 40.5 45.8332 41.0417 45.2916C41.5 44.8332 42.0833 44.0832 42.5833 43.4999C43.0833 42.9166 43.2917 42.4582 43.625 41.7916C43.9583 41.0832 43.7917 40.4999 43.5417 39.9999C43.2917 39.4999 41.2083 34.4166 40.375 32.3332C39.5417 30.3332 38.6667 30.5832 38.0417 30.5416H36.0417C35.3333 30.5416 34.25 30.7916 33.2917 31.8332C32.375 32.8749 29.7083 35.3749 29.7083 40.4582C29.7083 45.5416 33.4167 50.4582 33.9167 51.1249C34.4167 51.8332 41.2083 62.2499 51.5417 66.7082C54 67.7916 55.9167 68.4166 57.4167 68.8749C59.875 69.6666 62.125 69.5416 63.9167 69.2916C65.9167 68.9999 70.0417 66.7916 70.875 64.3749C71.75 61.9582 71.75 59.9166 71.4583 59.4582C71.1667 58.9999 70.5417 58.7916 69.5 58.2916Z" fill="#E6E6E6"/>
</svg>
